SplineFontDB: 3.1
FontName: OxygenSans-Regular
FullName: OxygenSans Regular
FamilyName: OxygenSans
Weight: Book
Copyright: Copyright (c) 2011-12 by vernon adams. All rights reserved.
Version: Release 0.2.3
ItalicAngle: 0
UnderlinePosition: -22
UnderlineWidth: 0
Ascent: 1638
Descent: 410
sfntRevision: 0x00003333
LayerCount: 2
Layer: 0 1 "Back"  1
Layer: 1 1 "Fore"  0
XUID: [1021 14 500265001 14010051]
FSType: 256
OS2Version: 1
OS2_WeightWidthSlopeOnly: 0
OS2_UseTypoMetrics: 1
CreationTime: 1345291205
ModificationTime: 1352134025
PfmFamily: 17
TTFWeight: 400
TTFWidth: 5
LineGap: 0
VLineGap: 0
Panose: 2 0 5 3 0 0 0 0 0 0
OS2TypoAscent: 2035
OS2TypoAOffset: 0
OS2TypoDescent: -672
OS2TypoDOffset: 0
OS2TypoLinegap: 0
OS2WinAscent: 2035
OS2WinAOffset: 0
OS2WinDescent: 672
OS2WinDOffset: 0
HheadAscent: 2035
HheadAOffset: 0
HheadDescent: -672
HheadDOffset: 0
OS2SubXSize: 1331
OS2SubYSize: 1433
OS2SubXOff: 0
OS2SubYOff: 286
OS2SupXSize: 1331
OS2SupYSize: 1433
OS2SupXOff: 0
OS2SupYOff: 983
OS2StrikeYSize: 102
OS2StrikeYPos: 530
OS2Vendor: 'newt'
OS2CodePages: 2000009f.00000000
OS2UnicodeRanges: a00002ff.4000204b.00000000.00000000
Lookup: 258 0 0 "'kern' Horizontal Kerning in Latin lookup 0"  {"'kern' Horizontal Kerning in Latin lookup 0 subtable"  } ['kern' ('DFLT' <'dflt' > 'latn' <'dflt' > ) ]
MarkAttachClasses: 1
DEI: 91125
KernClass2: 30 28 "'kern' Horizontal Kerning in Latin lookup 0 subtable" 
 81 A Agrave Aacute Acircumflex Atilde Adieresis Aring Amacron Abreve Aogonek uni0202
 1 B
 1 C
 75 D O Q Eth Ograve Oacute Ocircumflex Otilde Odieresis Oslash uni020C uni020E
 1 F
 1 K
 1 L
 1 P
 1 R
 1 S
 10 T glyph672
 45 U Ugrave Uacute Ucircumflex Udieresis uni0216
 1 V
 1 W
 18 Y Yacute Ydieresis
 69 b o p ograve oacute ocircumflex otilde odieresis oslash thorn uni020F
 1 c
 1 e
 1 f
 1 h
 27 k kcommaaccent kgreenlandic
 1 n
 29 r rcommaaccent rcaron uni0213
 1 s
 10 t glyph673
 1 v
 1 w
 1 x
 18 y yacute ydieresis

StartChar: .notdef
Encoding: 65536 -1 0
Width: 931
Flags: W
LayerCount: 2
UndoRedoHistory
Layer: 1
Undoes
UndoOperation
Index: 0
Type: 1
WasModified: 0
WasOrder2: 1
Width: 931
VWidth: 2048
LBearingChange: 0
UnicodeEnc: 0
InstructionsLength: 0
SplineSet
186 93 m 1,0,-1
 746 93 l 1,1,-1
 746 901 l 1,2,-1
 186 901 l 1,3,-1
 186 93 l 1,0,-1
93 0 m 1,4,-1
 93 994 l 1,5,-1
 839 994 l 1,6,-1
 839 0 l 1,7,-1
 93 0 l 1,4,-1
EndSplineSet
EndUndoOperation
UndoOperation
Index: 1
Type: 1
WasModified: 0
WasOrder2: 1
Width: 931
VWidth: 2048
LBearingChange: 0
UnicodeEnc: 0
InstructionsLength: 0
SplineSet
186 93 m 1,0,-1
 746 93 l 1,1,-1
 746 901 l 1,2,-1
 186 901 l 1,3,-1
 186 93 l 1,0,-1
93 0 m 1,4,-1
 93 994 l 1,5,-1
 839 994 l 1,6,-1
 839 0 l 1,7,-1
 93 0 l 1,4,-1
EndSplineSet
EndUndoOperation
EndUndoes
Redoes
EndRedoes
EndUndoRedoHistory
Fore
SplineSet
186 93 m 1,0,-1
 746 93 l 1,1,-1
 746 901 l 1,2,-1
 186 901 l 1,3,-1
 186 93 l 1,0,-1
93 0 m 1,4,-1
 93 994 l 1,5,-1
 839 994 l 1,6,-1
 839 0 l 1,7,-1
 93 0 l 1,4,-1
EndSplineSet
EndChar

StartChar: exclam
Encoding: 33 33 4
Width: 557
GlyphClass: 2
Flags: W
LayerCount: 2
UndoRedoHistory
Layer: 1
Undoes
UndoOperation
Index: 0
Type: 1
WasModified: 0
WasOrder2: 1
Width: 557
VWidth: 2048
LBearingChange: 0
UnicodeEnc: 0
InstructionsLength: 0
SplineSet
279 -11 m 128,-1,1
 222 -11 222 -11 190 24.5 c 128,-1,2
 158 60 158 60 158 109 c 128,-1,3
 158 158 158 158 190 193.5 c 128,-1,4
 222 229 222 229 279 229 c 128,-1,5
 336 229 336 229 368 193.5 c 128,-1,6
 400 158 400 158 400 109 c 128,-1,7
 400 60 400 60 368 24.5 c 128,-1,0
 336 -11 336 -11 279 -11 c 128,-1,1
368 1232 m 1,8,-1
 317 396 l 1,9,-1
 245 396 l 1,10,-1
 189 1232 l 1,11,-1
 189 1390 l 1,12,-1
 368 1390 l 1,13,-1
 368 1232 l 1,8,-1
EndSplineSet
EndUndoOperation
UndoOperation
Index: 1
Type: 1
WasModified: 0
WasOrder2: 1
Width: 557
VWidth: 2048
LBearingChange: 0
UnicodeEnc: 0
InstructionsLength: 0
SplineSet
279 -11 m 128,-1,1
 222 -11 222 -11 190 24.5 c 128,-1,2
 158 60 158 60 158 109 c 128,-1,3
 158 158 158 158 190 193.5 c 128,-1,4
 222 229 222 229 279 229 c 128,-1,5
 336 229 336 229 368 193.5 c 128,-1,6
 400 158 400 158 400 109 c 128,-1,7
 400 60 400 60 368 24.5 c 128,-1,0
 336 -11 336 -11 279 -11 c 128,-1,1
368 1232 m 1,8,-1
 317 396 l 1,9,-1
 245 396 l 1,10,-1
 189 1232 l 1,11,-1
 189 1390 l 1,12,-1
 368 1390 l 1,13,-1
 368 1232 l 1,8,-1
EndSplineSet
EndUndoOperation
EndUndoes
Redoes
EndRedoes
EndUndoRedoHistory
Fore
SplineSet
279 -11 m 128,-1,1
 222 -11 222 -11 190 24.5 c 128,-1,2
 158 60 158 60 158 109 c 128,-1,3
 158 158 158 158 190 193.5 c 128,-1,4
 222 229 222 229 279 229 c 128,-1,5
 336 229 336 229 368 193.5 c 128,-1,6
 400 158 400 158 400 109 c 128,-1,7
 400 60 400 60 368 24.5 c 128,-1,0
 336 -11 336 -11 279 -11 c 128,-1,1
368 1232 m 1,8,-1
 317 396 l 1,9,-1
 245 396 l 1,10,-1
 189 1232 l 1,11,-1
 189 1390 l 1,12,-1
 368 1390 l 1,13,-1
 368 1232 l 1,8,-1
EndSplineSet
EndChar

StartChar: quotedbl
Encoding: 34 34 5
Width: 610
GlyphClass: 2
Flags: W
LayerCount: 2
UndoRedoHistory
Layer: 1
Undoes
UndoOperation
Index: 0
Type: 1
WasModified: 0
WasOrder2: 1
Width: 610
VWidth: 2048
LBearingChange: 0
UnicodeEnc: 0
InstructionsLength: 0
SplineSet
386 925 m 1,0,-1
 367 1374 l 1,1,-1
 504 1374 l 1,2,-1
 478 925 l 1,3,-1
 386 925 l 1,0,-1
126 925 m 1,4,-1
 106 1374 l 1,5,-1
 244 1374 l 1,6,-1
 217 925 l 1,7,-1
 126 925 l 1,4,-1
EndSplineSet
EndUndoOperation
UndoOperation
Index: 1
Type: 1
WasModified: 0
WasOrder2: 1
Width: 610
VWidth: 2048
LBearingChange: 0
UnicodeEnc: 0
InstructionsLength: 0
SplineSet
386 925 m 1,0,-1
 367 1374 l 1,1,-1
 504 1374 l 1,2,-1
 478 925 l 1,3,-1
 386 925 l 1,0,-1
126 925 m 1,4,-1
 106 1374 l 1,5,-1
 244 1374 l 1,6,-1
 217 925 l 1,7,-1
 126 925 l 1,4,-1
EndSplineSet
EndUndoOperation
EndUndoes
Redoes
EndRedoes
EndUndoRedoHistory
Fore
SplineSet
386 925 m 1,0,-1
 367 1374 l 1,1,-1
 504 1374 l 1,2,-1
 478 925 l 1,3,-1
 386 925 l 1,0,-1
126 925 m 1,4,-1
 106 1374 l 1,5,-1
 244 1374 l 1,6,-1
 217 925 l 1,7,-1
 126 925 l 1,4,-1
EndSplineSet
EndChar

StartChar: numbersign
Encoding: 35 35 6
Width: 1079
GlyphClass: 2
Flags: W
LayerCount: 2
UndoRedoHistory
Layer: 1
Undoes
UndoOperation
Index: 0
Type: 1
WasModified: 0
WasOrder2: 1
Width: 1079
VWidth: 2048
LBearingChange: 0
UnicodeEnc: 0
InstructionsLength: 0
SplineSet
411 488 m 1,0,-1
 626 488 l 1,1,-1
 698 847 l 1,2,-1
 484 847 l 1,3,-1
 411 488 l 1,0,-1
286 488 m 1,4,-1
 341 846 l 1,5,-1
 180 846 l 1,6,-1
 188 960 l 1,7,-1
 364 960 l 1,8,-1
 440 1330 l 1,9,-1
 579 1330 l 1,10,-1
 507 960 l 1,11,-1
 720 960 l 1,12,-1
 784 1330 l 1,13,-1
 901 1330 l 1,14,-1
 841 960 l 1,15,-1
 966 960 l 1,16,-1
 954 847 l 1,17,-1
 820 847 l 1,18,-1
 759 488 l 1,19,-1
 893 488 l 1,20,-1
 884 373 l 1,21,-1
 743 373 l 1,22,-1
 664 -21 l 1,23,-1
 527 -21 l 1,24,-1
 603 373 l 1,25,-1
 389 373 l 1,26,-1
 317 -21 l 1,27,-1
 199 -21 l 1,28,-1
 266 373 l 1,29,-1
 110 373 l 1,30,-1
 119 488 l 1,31,-1
 286 488 l 1,4,-1
EndSplineSet
EndUndoOperation
UndoOperation
Index: 1
Type: 1
WasModified: 0
WasOrder2: 1
Width: 1079
VWidth: 2048
LBearingChange: 0
UnicodeEnc: 0
InstructionsLength: 0
SplineSet
411 488 m 1,0,-1
 626 488 l 1,1,-1
 698 847 l 1,2,-1
 484 847 l 1,3,-1
 411 488 l 1,0,-1
286 488 m 1,4,-1
 341 846 l 1,5,-1
 180 846 l 1,6,-1
 188 960 l 1,7,-1
 364 960 l 1,8,-1
 440 1330 l 1,9,-1
 579 1330 l 1,10,-1
 507 960 l 1,11,-1
 720 960 l 1,12,-1
 784 1330 l 1,13,-1
 901 1330 l 1,14,-1
 841 960 l 1,15,-1
 966 960 l 1,16,-1
 954 847 l 1,17,-1
 820 847 l 1,18,-1
 759 488 l 1,19,-1
 893 488 l 1,20,-1
 884 373 l 1,21,-1
 743 373 l 1,22,-1
 664 -21 l 1,23,-1
 527 -21 l 1,24,-1
 603 373 l 1,25,-1
 389 373 l 1,26,-1
 317 -21 l 1,27,-1
 199 -21 l 1,28,-1
 266 373 l 1,29,-1
 110 373 l 1,30,-1
 119 488 l 1,31,-1
 286 488 l 1,4,-1
EndSplineSet
EndUndoOperation
EndUndoes
Redoes
EndRedoes
EndUndoRedoHistory
Fore
SplineSet
411 488 m 1,0,-1
 626 488 l 1,1,-1
 698 847 l 1,2,-1
 484 847 l 1,3,-1
 411 488 l 1,0,-1
286 488 m 1,4,-1
 341 846 l 1,5,-1
 180 846 l 1,6,-1
 188 960 l 1,7,-1
 364 960 l 1,8,-1
 440 1330 l 1,9,-1
 579 1330 l 1,10,-1
 507 960 l 1,11,-1
 720 960 l 1,12,-1
 784 1330 l 1,13,-1
 901 1330 l 1,14,-1
 841 960 l 1,15,-1
 966 960 l 1,16,-1
 954 847 l 1,17,-1
 820 847 l 1,18,-1
 759 488 l 1,19,-1
 893 488 l 1,20,-1
 884 373 l 1,21,-1
 743 373 l 1,22,-1
 664 -21 l 1,23,-1
 527 -21 l 1,24,-1
 603 373 l 1,25,-1
 389 373 l 1,26,-1
 317 -21 l 1,27,-1
 199 -21 l 1,28,-1
 266 373 l 1,29,-1
 110 373 l 1,30,-1
 119 488 l 1,31,-1
 286 488 l 1,4,-1
EndSplineSet
EndChar

StartChar: dollar
Encoding: 36 36 7
Width: 1166
GlyphClass: 2
Flags: W
LayerCount: 2
UndoRedoHistory
Layer: 1
Undoes
UndoOperation
Index: 0
Type: 1
WasModified: 0
WasOrder2: 1
Width: 1166
VWidth: 2048
LBearingChange: 0
UnicodeEnc: 0
InstructionsLength: 0
SplineSet
632 -177 m 1,0,-1
 546 -177 l 1,1,-1
 546 -19 l 1,2,3
 425 -14 425 -14 310.5 18.5 c 128,-1,4
 196 51 196 51 131 91 c 1,5,-1
 178 222 l 1,6,7
 248 187 248 187 293 169 c 128,-1,8
 338 151 338 151 417 135 c 128,-1,9
 496 119 496 119 589 119 c 0,10,11
 738 119 738 119 796 189 c 128,-1,12
 854 259 854 259 854 398 c 0,13,14
 854 479 854 479 796 534 c 128,-1,15
 738 589 738 589 611 633 c 2,16,-1
 447 690 l 1,17,18
 297 740 297 740 215 819.5 c 128,-1,19
 133 899 133 899 133 1026 c 0,20,21
 133 1117 133 1117 164.5 1188.5 c 128,-1,22
 196 1260 196 1260 253 1306 c 128,-1,23
 310 1352 310 1352 383.5 1377.5 c 128,-1,24
 457 1403 457 1403 546 1408 c 1,25,-1
 546 1584 l 1,26,-1
 632 1584 l 1,27,-1
 632 1408 l 1,28,29
 719 1404 719 1404 811.5 1381.5 c 128,-1,30
 904 1359 904 1359 964 1321 c 1,31,-1
 918 1198 l 1,32,33
 847 1232 847 1232 771 1249.5 c 128,-1,34
 695 1267 695 1267 576 1270 c 1,35,36
 450 1270 450 1270 375 1206 c 128,-1,37
 300 1142 300 1142 300 1037 c 0,38,39
 300 961 300 961 352 913.5 c 128,-1,40
 404 866 404 866 506 833 c 1,41,-1
 658 782 l 2,42,43
 741 754 741 754 800 725 c 128,-1,44
 859 696 859 696 912.5 652 c 128,-1,45
 966 608 966 608 993.5 545.5 c 128,-1,46
 1021 483 1021 483 1021 403 c 0,47,48
 1021 205 1021 205 922 99 c 128,-1,49
 823 -7 823 -7 632 -18 c 1,50,-1
 632 -177 l 1,0,-1
EndSplineSet
EndUndoOperation
UndoOperation
Index: 1
Type: 1
WasModified: 0
WasOrder2: 1
Width: 1166
VWidth: 2048
LBearingChange: 0
UnicodeEnc: 0
InstructionsLength: 0
SplineSet
632 -177 m 1,0,-1
 546 -177 l 1,1,-1
 546 -19 l 1,2,3
 425 -14 425 -14 310.5 18.5 c 128,-1,4
 196 51 196 51 131 91 c 1,5,-1
 178 222 l 1,6,7
 248 187 248 187 293 169 c 128,-1,8
 338 151 338 151 417 135 c 128,-1,9
 496 119 496 119 589 119 c 0,10,11
 738 119 738 119 796 189 c 128,-1,12
 854 259 854 259 854 398 c 0,13,14
 854 479 854 479 796 534 c 128,-1,15
 738 589 738 589 611 633 c 2,16,-1
 447 690 l 1,17,18
 297 740 297 740 215 819.5 c 128,-1,19
 133 899 133 899 133 1026 c 0,20,21
 133 1117 133 1117 164.5 1188.5 c 128,-1,22
 196 1260 196 1260 253 1306 c 128,-1,23
 310 1352 310 1352 383.5 1377.5 c 128,-1,24
 457 1403 457 1403 546 1408 c 1,25,-1
 546 1584 l 1,26,-1
 632 1584 l 1,27,-1
 632 1408 l 1,28,29
 719 1404 719 1404 811.5 1381.5 c 128,-1,30
 904 1359 904 1359 964 1321 c 1,31,-1
 918 1198 l 1,32,33
 847 1232 847 1232 771 1249.5 c 128,-1,34
 695 1267 695 1267 576 1270 c 1,35,36
 450 1270 450 1270 375 1206 c 128,-1,37
 300 1142 300 1142 300 1037 c 0,38,39
 300 961 300 961 352 913.5 c 128,-1,40
 404 866 404 866 506 833 c 1,41,-1
 658 782 l 2,42,43
 741 754 741 754 800 725 c 128,-1,44
 859 696 859 696 912.5 652 c 128,-1,45
 966 608 966 608 993.5 545.5 c 128,-1,46
 1021 483 1021 483 1021 403 c 0,47,48
 1021 205 1021 205 922 99 c 128,-1,49
 823 -7 823 -7 632 -18 c 1,50,-1
 632 -177 l 1,0,-1
EndSplineSet
EndUndoOperation
EndUndoes
Redoes
EndRedoes
EndUndoRedoHistory
Fore
SplineSet
632 -177 m 1,0,-1
 546 -177 l 1,1,-1
 546 -19 l 1,2,3
 425 -14 425 -14 310.5 18.5 c 128,-1,4
 196 51 196 51 131 91 c 1,5,-1
 178 222 l 1,6,7
 248 187 248 187 293 169 c 128,-1,8
 338 151 338 151 417 135 c 128,-1,9
 496 119 496 119 589 119 c 0,10,11
 738 119 738 119 796 189 c 128,-1,12
 854 259 854 259 854 398 c 0,13,14
 854 479 854 479 796 534 c 128,-1,15
 738 589 738 589 611 633 c 2,16,-1
 447 690 l 1,17,18
 297 740 297 740 215 819.5 c 128,-1,19
 133 899 133 899 133 1026 c 0,20,21
 133 1117 133 1117 164.5 1188.5 c 128,-1,22
 196 1260 196 1260 253 1306 c 128,-1,23
 310 1352 310 1352 383.5 1377.5 c 128,-1,24
 457 1403 457 1403 546 1408 c 1,25,-1
 546 1584 l 1,26,-1
 632 1584 l 1,27,-1
 632 1408 l 1,28,29
 719 1404 719 1404 811.5 1381.5 c 128,-1,30
 904 1359 904 1359 964 1321 c 1,31,-1
 918 1198 l 1,32,33
 847 1232 847 1232 771 1249.5 c 128,-1,34
 695 1267 695 1267 576 1270 c 1,35,36
 450 1270 450 1270 375 1206 c 128,-1,37
 300 1142 300 1142 300 1037 c 0,38,39
 300 961 300 961 352 913.5 c 128,-1,40
 404 866 404 866 506 833 c 1,41,-1
 658 782 l 2,42,43
 741 754 741 754 800 725 c 128,-1,44
 859 696 859 696 912.5 652 c 128,-1,45
 966 608 966 608 993.5 545.5 c 128,-1,46
 1021 483 1021 483 1021 403 c 0,47,48
 1021 205 1021 205 922 99 c 128,-1,49
 823 -7 823 -7 632 -18 c 1,50,-1
 632 -177 l 1,0,-1
EndSplineSet
EndChar

StartChar: percent
Encoding: 37 37 8
Width: 1657
GlyphClass: 2
Flags: W
LayerCount: 2
UndoRedoHistory
Layer: 1
Undoes
UndoOperation
Index: 0
Type: 1
WasModified: 0
WasOrder2: 1
Width: 1657
VWidth: 2048
LBearingChange: 0
UnicodeEnc: 0
InstructionsLength: 0
SplineSet
1272 -14 m 0,0,1
 1120 -14 1120 -14 1036 84 c 128,-1,2
 952 182 952 182 952 336 c 128,-1,3
 952 490 952 490 1036.5 588 c 128,-1,4
 1121 686 1121 686 1272 686 c 0,5,6
 1426 686 1426 686 1509.5 589 c 128,-1,7
 1593 492 1593 492 1593 336 c 0,8,9
 1593 183 1593 183 1508 84.5 c 128,-1,10
 1423 -14 1423 -14 1272 -14 c 0,0,1
1272 89 m 128,-1,12
 1369 89 1369 89 1423.5 161 c 128,-1,13
 1478 233 1478 233 1478 336 c 0,14,15
 1478 441 1478 441 1423.5 511.5 c 128,-1,16
 1369 582 1369 582 1272 582 c 128,-1,17
 1175 582 1175 582 1121 510.5 c 128,-1,18
 1067 439 1067 439 1067 336 c 0,19,20
 1067 231 1067 231 1121 160 c 128,-1,11
 1175 89 1175 89 1272 89 c 128,-1,12
335 -4 m 1,21,-1
 1058 1330 l 1,22,-1
 1206 1330 l 1,23,-1
 458 -4 l 1,24,-1
 335 -4 l 1,21,-1
352 662 m 128,-1,26
 221 662 221 662 142.5 758.5 c 128,-1,27
 64 855 64 855 64 1005 c 0,28,29
 64 1157 64 1157 143 1256 c 128,-1,30
 222 1355 222 1355 352 1355 c 0,31,32
 484 1355 484 1355 563.5 1256.5 c 128,-1,33
 643 1158 643 1158 643 1005 c 0,34,35
 643 855 643 855 563 758.5 c 128,-1,25
 483 662 483 662 352 662 c 128,-1,26
352 768 m 128,-1,37
 435 768 435 768 480.5 836 c 128,-1,38
 526 904 526 904 526 1005 c 0,39,40
 526 1110 526 1110 479.5 1182 c 128,-1,41
 433 1254 433 1254 352 1254 c 0,42,43
 270 1254 270 1254 224.5 1181 c 128,-1,44
 179 1108 179 1108 179 1005 c 0,45,46
 179 900 179 900 224 834 c 128,-1,36
 269 768 269 768 352 768 c 128,-1,37
EndSplineSet
EndUndoOperation
UndoOperation
Index: 1
Type: 1
WasModified: 0
WasOrder2: 1
Width: 1657
VWidth: 2048
LBearingChange: 0
UnicodeEnc: 0
InstructionsLength: 0
SplineSet
1272 -14 m 0,0,1
 1120 -14 1120 -14 1036 84 c 128,-1,2
 952 182 952 182 952 336 c 128,-1,3
 952 490 952 490 1036.5 588 c 128,-1,4
 1121 686 1121 686 1272 686 c 0,5,6
 1426 686 1426 686 1509.5 589 c 128,-1,7
 1593 492 1593 492 1593 336 c 0,8,9
 1593 183 1593 183 1508 84.5 c 128,-1,10
 1423 -14 1423 -14 1272 -14 c 0,0,1
1272 89 m 128,-1,12
 1369 89 1369 89 1423.5 161 c 128,-1,13
 1478 233 1478 233 1478 336 c 0,14,15
 1478 441 1478 441 1423.5 511.5 c 128,-1,16
 1369 582 1369 582 1272 582 c 128,-1,17
 1175 582 1175 582 1121 510.5 c 128,-1,18
 1067 439 1067 439 1067 336 c 0,19,20
 1067 231 1067 231 1121 160 c 128,-1,11
 1175 89 1175 89 1272 89 c 128,-1,12
335 -4 m 1,21,-1
 1058 1330 l 1,22,-1
 1206 1330 l 1,23,-1
 458 -4 l 1,24,-1
 335 -4 l 1,21,-1
352 662 m 128,-1,26
 221 662 221 662 142.5 758.5 c 128,-1,27
 64 855 64 855 64 1005 c 0,28,29
 64 1157 64 1157 143 1256 c 128,-1,30
 222 1355 222 1355 352 1355 c 0,31,32
 484 1355 484 1355 563.5 1256.5 c 128,-1,33
 643 1158 643 1158 643 1005 c 0,34,35
 643 855 643 855 563 758.5 c 128,-1,25
 483 662 483 662 352 662 c 128,-1,26
352 768 m 128,-1,37
 435 768 435 768 480.5 836 c 128,-1,38
 526 904 526 904 526 1005 c 0,39,40
 526 1110 526 1110 479.5 1182 c 128,-1,41
 433 1254 433 1254 352 1254 c 0,42,43
 270 1254 270 1254 224.5 1181 c 128,-1,44
 179 1108 179 1108 179 1005 c 0,45,46
 179 900 179 900 224 834 c 128,-1,36
 269 768 269 768 352 768 c 128,-1,37
EndSplineSet
EndUndoOperation
EndUndoes
Redoes
EndRedoes
EndUndoRedoHistory
Fore
SplineSet
1272 -14 m 0,0,1
 1120 -14 1120 -14 1036 84 c 128,-1,2
 952 182 952 182 952 336 c 128,-1,3
 952 490 952 490 1036.5 588 c 128,-1,4
 1121 686 1121 686 1272 686 c 0,5,6
 1426 686 1426 686 1509.5 589 c 128,-1,7
 1593 492 1593 492 1593 336 c 0,8,9
 1593 183 1593 183 1508 84.5 c 128,-1,10
 1423 -14 1423 -14 1272 -14 c 0,0,1
1272 89 m 128,-1,12
 1369 89 1369 89 1423.5 161 c 128,-1,13
 1478 233 1478 233 1478 336 c 0,14,15
 1478 441 1478 441 1423.5 511.5 c 128,-1,16
 1369 582 1369 582 1272 582 c 128,-1,17
 1175 582 1175 582 1121 510.5 c 128,-1,18
 1067 439 1067 439 1067 336 c 0,19,20
 1067 231 1067 231 1121 160 c 128,-1,11
 1175 89 1175 89 1272 89 c 128,-1,12
335 -4 m 1,21,-1
 1058 1330 l 1,22,-1
 1206 1330 l 1,23,-1
 458 -4 l 1,24,-1
 335 -4 l 1,21,-1
352 662 m 128,-1,26
 221 662 221 662 142.5 758.5 c 128,-1,27
 64 855 64 855 64 1005 c 0,28,29
 64 1157 64 1157 143 1256 c 128,-1,30
 222 1355 222 1355 352 1355 c 0,31,32
 484 1355 484 1355 563.5 1256.5 c 128,-1,33
 643 1158 643 1158 643 1005 c 0,34,35
 643 855 643 855 563 758.5 c 128,-1,25
 483 662 483 662 352 662 c 128,-1,26
352 768 m 128,-1,37
 435 768 435 768 480.5 836 c 128,-1,38
 526 904 526 904 526 1005 c 0,39,40
 526 1110 526 1110 479.5 1182 c 128,-1,41
 433 1254 433 1254 352 1254 c 0,42,43
 270 1254 270 1254 224.5 1181 c 128,-1,44
 179 1108 179 1108 179 1005 c 0,45,46
 179 900 179 900 224 834 c 128,-1,36
 269 768 269 768 352 768 c 128,-1,37
EndSplineSet
EndChar

StartChar: ampersand
Encoding: 38 38 9
Width: 1258
GlyphClass: 2
Flags: W
LayerCount: 2
UndoRedoHistory
Layer: 1
Undoes
UndoOperation
Index: 0
Type: 1
WasModified: 0
WasOrder2: 1
Width: 1258
VWidth: 2048
LBearingChange: 0
UnicodeEnc: 0
InstructionsLength: 0
SplineSet
515 838 m 1,0,1
 613 886 613 886 678.5 965 c 128,-1,2
 744 1044 744 1044 744 1127 c 0,3,4
 744 1203 744 1203 692 1245.5 c 128,-1,5
 640 1288 640 1288 564 1288 c 0,6,7
 479 1288 479 1288 424 1243 c 128,-1,8
 369 1198 369 1198 369 1121 c 0,9,10
 369 1056 369 1056 411 977 c 128,-1,11
 453 898 453 898 515 838 c 1,0,1
536 120 m 0,12,13
 714 120 714 120 860 236 c 1,14,15
 792 309 792 309 659.5 458.5 c 128,-1,16
 527 608 527 608 459 681 c 1,17,18
 349 625 349 625 284 545.5 c 128,-1,19
 219 466 219 466 219 369 c 0,20,21
 219 252 219 252 303 186 c 128,-1,22
 387 120 387 120 536 120 c 0,12,13
528 -21 m 0,23,24
 298 -21 298 -21 178 79.5 c 128,-1,25
 58 180 58 180 58 359 c 0,26,27
 58 621 58 621 374 781 c 1,28,29
 207 964 207 964 207 1115 c 0,30,31
 207 1251 207 1251 303.5 1332 c 128,-1,32
 400 1413 400 1413 561 1413 c 0,33,34
 710 1413 710 1413 812.5 1339 c 128,-1,35
 915 1265 915 1265 915 1131 c 0,36,37
 915 1016 915 1016 825.5 912.5 c 128,-1,38
 736 809 736 809 600 746 c 1,39,-1
 966 337 l 1,40,41
 1046 422 1046 422 1101 545 c 1,42,-1
 1211 461 l 1,43,44
 1156 339 1156 339 1063 230 c 1,45,-1
 1251 27 l 1,46,-1
 1108 -20 l 1,47,-1
 965 130 l 1,48,49
 777 -21 777 -21 528 -21 c 0,23,24
EndSplineSet
EndUndoOperation
UndoOperation
Index: 1
Type: 1
WasModified: 0
WasOrder2: 1
Width: 1258
VWidth: 2048
LBearingChange: 0
UnicodeEnc: 0
InstructionsLength: 0
SplineSet
515 838 m 1,0,1
 613 886 613 886 678.5 965 c 128,-1,2
 744 1044 744 1044 744 1127 c 0,3,4
 744 1203 744 1203 692 1245.5 c 128,-1,5
 640 1288 640 1288 564 1288 c 0,6,7
 479 1288 479 1288 424 1243 c 128,-1,8
 369 1198 369 1198 369 1121 c 0,9,10
 369 1056 369 1056 411 977 c 128,-1,11
 453 898 453 898 515 838 c 1,0,1
536 120 m 0,12,13
 714 120 714 120 860 236 c 1,14,15
 792 309 792 309 659.5 458.5 c 128,-1,16
 527 608 527 608 459 681 c 1,17,18
 349 625 349 625 284 545.5 c 128,-1,19
 219 466 219 466 219 369 c 0,20,21
 219 252 219 252 303 186 c 128,-1,22
 387 120 387 120 536 120 c 0,12,13
528 -21 m 0,23,24
 298 -21 298 -21 178 79.5 c 128,-1,25
 58 180 58 180 58 359 c 0,26,27
 58 621 58 621 374 781 c 1,28,29
 207 964 207 964 207 1115 c 0,30,31
 207 1251 207 1251 303.5 1332 c 128,-1,32
 400 1413 400 1413 561 1413 c 0,33,34
 710 1413 710 1413 812.5 1339 c 128,-1,35
 915 1265 915 1265 915 1131 c 0,36,37
 915 1016 915 1016 825.5 912.5 c 128,-1,38
 736 809 736 809 600 746 c 1,39,-1
 966 337 l 1,40,41
 1046 422 1046 422 1101 545 c 1,42,-1
 1211 461 l 1,43,44
 1156 339 1156 339 1063 230 c 1,45,-1
 1251 27 l 1,46,-1
 1108 -20 l 1,47,-1
 965 130 l 1,48,49
 777 -21 777 -21 528 -21 c 0,23,24
EndSplineSet
EndUndoOperation
EndUndoes
Redoes
EndRedoes
EndUndoRedoHistory
Fore
SplineSet
515 838 m 1,0,1
 613 886 613 886 678.5 965 c 128,-1,2
 744 1044 744 1044 744 1127 c 0,3,4
 744 1203 744 1203 692 1245.5 c 128,-1,5
 640 1288 640 1288 564 1288 c 0,6,7
 479 1288 479 1288 424 1243 c 128,-1,8
 369 1198 369 1198 369 1121 c 0,9,10
 369 1056 369 1056 411 977 c 128,-1,11
 453 898 453 898 515 838 c 1,0,1
536 120 m 0,12,13
 714 120 714 120 860 236 c 1,14,15
 792 309 792 309 659.5 458.5 c 128,-1,16
 527 608 527 608 459 681 c 1,17,18
 349 625 349 625 284 545.5 c 128,-1,19
 219 466 219 466 219 369 c 0,20,21
 219 252 219 252 303 186 c 128,-1,22
 387 120 387 120 536 120 c 0,12,13
528 -21 m 0,23,24
 298 -21 298 -21 178 79.5 c 128,-1,25
 58 180 58 180 58 359 c 0,26,27
 58 621 58 621 374 781 c 1,28,29
 207 964 207 964 207 1115 c 0,30,31
 207 1251 207 1251 303.5 1332 c 128,-1,32
 400 1413 400 1413 561 1413 c 0,33,34
 710 1413 710 1413 812.5 1339 c 128,-1,35
 915 1265 915 1265 915 1131 c 0,36,37
 915 1016 915 1016 825.5 912.5 c 128,-1,38
 736 809 736 809 600 746 c 1,39,-1
 966 337 l 1,40,41
 1046 422 1046 422 1101 545 c 1,42,-1
 1211 461 l 1,43,44
 1156 339 1156 339 1063 230 c 1,45,-1
 1251 27 l 1,46,-1
 1108 -20 l 1,47,-1
 965 130 l 1,48,49
 777 -21 777 -21 528 -21 c 0,23,24
EndSplineSet
EndChar

StartChar: quotesingle
Encoding: 39 39 10
Width: 364
GlyphClass: 2
Flags: W
LayerCount: 2
UndoRedoHistory
Layer: 1
Undoes
UndoOperation
Index: 0
Type: 1
WasModified: 0
WasOrder2: 1
Width: 364
VWidth: 2048
LBearingChange: 0
UnicodeEnc: 0
InstructionsLength: 0
SplineSet
142 885 m 1,0,-1
 95 1390 l 1,1,-1
 269 1390 l 1,2,-1
 227 885 l 1,3,-1
 142 885 l 1,0,-1
EndSplineSet
EndUndoOperation
UndoOperation
Index: 1
Type: 1
WasModified: 0
WasOrder2: 1
Width: 364
VWidth: 2048
LBearingChange: 0
UnicodeEnc: 0
InstructionsLength: 0
SplineSet
142 885 m 1,0,-1
 95 1390 l 1,1,-1
 269 1390 l 1,2,-1
 227 885 l 1,3,-1
 142 885 l 1,0,-1
EndSplineSet
EndUndoOperation
EndUndoes
Redoes
EndRedoes
EndUndoRedoHistory
Fore
SplineSet
142 885 m 1,0,-1
 95 1390 l 1,1,-1
 269 1390 l 1,2,-1
 227 885 l 1,3,-1
 142 885 l 1,0,-1
EndSplineSet
EndChar

StartChar: parenleft
Encoding: 40 40 11
Width: 595
GlyphClass: 2
Flags: W
LayerCount: 2
UndoRedoHistory
Layer: 1
Undoes
UndoOperation
Index: 0
Type: 1
WasModified: 0
WasOrder2: 1
Width: 595
VWidth: 2048
LBearingChange: 0
UnicodeEnc: 0
InstructionsLength: 0
SplineSet
508 -191 m 1,0,-1
 369 -191 l 1,1,2
 251 -28 251 -28 184.5 176.5 c 128,-1,3
 118 381 118 381 118 600 c 0,4,5
 118 1046 118 1046 367 1408 c 1,6,-1
 508 1408 l 1,7,8
 273 1042 273 1042 273 604 c 0,9,10
 273 399 273 399 335 189.5 c 128,-1,11
 397 -20 397 -20 508 -191 c 1,0,-1
EndSplineSet
EndUndoOperation
UndoOperation
Index: 1
Type: 1
WasModified: 0
WasOrder2: 1
Width: 595
VWidth: 2048
LBearingChange: 0
UnicodeEnc: 0
InstructionsLength: 0
SplineSet
508 -191 m 1,0,-1
 369 -191 l 1,1,2
 251 -28 251 -28 184.5 176.5 c 128,-1,3
 118 381 118 381 118 600 c 0,4,5
 118 1046 118 1046 367 1408 c 1,6,-1
 508 1408 l 1,7,8
 273 1042 273 1042 273 604 c 0,9,10
 273 399 273 399 335 189.5 c 128,-1,11
 397 -20 397 -20 508 -191 c 1,0,-1
EndSplineSet
EndUndoOperation
EndUndoes
Redoes
EndRedoes
EndUndoRedoHistory
Fore
SplineSet
508 -191 m 1,0,-1
 369 -191 l 1,1,2
 251 -28 251 -28 184.5 176.5 c 128,-1,3
 118 381 118 381 118 600 c 0,4,5
 118 1046 118 1046 367 1408 c 1,6,-1
 508 1408 l 1,7,8
 273 1042 273 1042 273 604 c 0,9,10
 273 399 273 399 335 189.5 c 128,-1,11
 397 -20 397 -20 508 -191 c 1,0,-1
EndSplineSet
EndChar

StartChar: parenright
Encoding: 41 41 12
Width: 598
GlyphClass: 2
Flags: W
LayerCount: 2
UndoRedoHistory
Layer: 1
Undoes
UndoOperation
Index: 0
Type: 1
WasModified: 0
WasOrder2: 1
Width: 598
VWidth: 2048
LBearingChange: 0
UnicodeEnc: 0
InstructionsLength: 0
SplineSet
228 -191 m 1,0,-1
 89 -191 l 1,1,2
 200 -20 200 -20 262 189.5 c 128,-1,3
 324 399 324 399 324 604 c 0,4,5
 324 1041 324 1041 88 1408 c 1,6,-1
 229 1408 l 1,7,8
 479 1041 479 1041 479 600 c 0,9,10
 479 381 479 381 412.5 176.5 c 128,-1,11
 346 -28 346 -28 228 -191 c 1,0,-1
EndSplineSet
EndUndoOperation
UndoOperation
Index: 1
Type: 1
WasModified: 0
WasOrder2: 1
Width: 598
VWidth: 2048
LBearingChange: 0
UnicodeEnc: 0
InstructionsLength: 0
SplineSet
228 -191 m 1,0,-1
 89 -191 l 1,1,2
 200 -20 200 -20 262 189.5 c 128,-1,3
 324 399 324 399 324 604 c 0,4,5
 324 1041 324 1041 88 1408 c 1,6,-1
 229 1408 l 1,7,8
 479 1041 479 1041 479 600 c 0,9,10
 479 381 479 381 412.5 176.5 c 128,-1,11
 346 -28 346 -28 228 -191 c 1,0,-1
EndSplineSet
EndUndoOperation
EndUndoes
Redoes
EndRedoes
EndUndoRedoHistory
Fore
SplineSet
228 -191 m 1,0,-1
 89 -191 l 1,1,2
 200 -20 200 -20 262 189.5 c 128,-1,3
 324 399 324 399 324 604 c 0,4,5
 324 1041 324 1041 88 1408 c 1,6,-1
 229 1408 l 1,7,8
 479 1041 479 1041 479 600 c 0,9,10
 479 381 479 381 412.5 176.5 c 128,-1,11
 346 -28 346 -28 228 -191 c 1,0,-1
EndSplineSet
EndChar

StartChar: asterisk
Encoding: 42 42 13
Width: 1055
GlyphClass: 2
Flags: W
LayerCount: 2
UndoRedoHistory
Layer: 1
Undoes
UndoOperation
Index: 0
Type: 1
WasModified: 0
WasOrder2: 1
Width: 1055
VWidth: 2048
LBearingChange: 0
UnicodeEnc: 0
InstructionsLength: 0
SplineSet
148 1148 m 1,0,-1
 473 1011 l 1,1,-1
 440 1385 l 1,2,-1
 609 1385 l 1,3,-1
 576 1011 l 1,4,-1
 903 1148 l 1,5,-1
 948 993 l 1,6,-1
 614 917 l 1,7,8
 629 897 629 897 715.5 783.5 c 128,-1,9
 802 670 802 670 844 614 c 1,10,11
 821 599 821 599 773.5 571.5 c 128,-1,12
 726 544 726 544 703 529 c 1,13,-1
 521 858 l 1,14,-1
 349 529 l 1,15,-1
 207 614 l 1,16,-1
 433 917 l 1,17,-1
 103 993 l 1,18,-1
 148 1148 l 1,0,-1
EndSplineSet
EndUndoOperation
UndoOperation
Index: 1
Type: 1
WasModified: 0
WasOrder2: 1
Width: 1055
VWidth: 2048
LBearingChange: 0
UnicodeEnc: 0
InstructionsLength: 0
SplineSet
148 1148 m 1,0,-1
 473 1011 l 1,1,-1
 440 1385 l 1,2,-1
 609 1385 l 1,3,-1
 576 1011 l 1,4,-1
 903 1148 l 1,5,-1
 948 993 l 1,6,-1
 614 917 l 1,7,8
 629 897 629 897 715.5 783.5 c 128,-1,9
 802 670 802 670 844 614 c 1,10,11
 821 599 821 599 773.5 571.5 c 128,-1,12
 726 544 726 544 703 529 c 1,13,-1
 521 858 l 1,14,-1
 349 529 l 1,15,-1
 207 614 l 1,16,-1
 433 917 l 1,17,-1
 103 993 l 1,18,-1
 148 1148 l 1,0,-1
EndSplineSet
EndUndoOperation
EndUndoes
Redoes
EndRedoes
EndUndoRedoHistory
Fore
SplineSet
148 1148 m 1,0,-1
 473 1011 l 1,1,-1
 440 1385 l 1,2,-1
 609 1385 l 1,3,-1
 576 1011 l 1,4,-1
 903 1148 l 1,5,-1
 948 993 l 1,6,-1
 614 917 l 1,7,8
 629 897 629 897 715.5 783.5 c 128,-1,9
 802 670 802 670 844 614 c 1,10,11
 821 599 821 599 773.5 571.5 c 128,-1,12
 726 544 726 544 703 529 c 1,13,-1
 521 858 l 1,14,-1
 349 529 l 1,15,-1
 207 614 l 1,16,-1
 433 917 l 1,17,-1
 103 993 l 1,18,-1
 148 1148 l 1,0,-1
EndSplineSet
EndChar

StartChar: plus
Encoding: 43 43 14
Width: 1052
GlyphClass: 2
Flags: W
LayerCount: 2
UndoRedoHistory
Layer: 1
Undoes
UndoOperation
Index: 0
Type: 1
WasModified: 0
WasOrder2: 1
Width: 1052
VWidth: 2048
LBearingChange: 0
UnicodeEnc: 0
InstructionsLength: 0
SplineSet
465 653 m 1,0,-1
 465 1039 l 1,1,-1
 590 1039 l 1,2,-1
 590 653 l 1,3,-1
 945 653 l 1,4,-1
 945 530 l 1,5,-1
 589 530 l 1,6,-1
 589 139 l 1,7,-1
 464 139 l 1,8,-1
 464 530 l 1,9,-1
 103 530 l 1,10,-1
 103 653 l 1,11,-1
 465 653 l 1,0,-1
EndSplineSet
EndUndoOperation
UndoOperation
Index: 1
Type: 1
WasModified: 0
WasOrder2: 1
Width: 1052
VWidth: 2048
LBearingChange: 0
UnicodeEnc: 0
InstructionsLength: 0
SplineSet
465 653 m 1,0,-1
 465 1039 l 1,1,-1
 590 1039 l 1,2,-1
 590 653 l 1,3,-1
 945 653 l 1,4,-1
 945 530 l 1,5,-1
 589 530 l 1,6,-1
 589 139 l 1,7,-1
 464 139 l 1,8,-1
 464 530 l 1,9,-1
 103 530 l 1,10,-1
 103 653 l 1,11,-1
 465 653 l 1,0,-1
EndSplineSet
EndUndoOperation
EndUndoes
Redoes
EndRedoes
EndUndoRedoHistory
Fore
SplineSet
465 653 m 1,0,-1
 465 1039 l 1,1,-1
 590 1039 l 1,2,-1
 590 653 l 1,3,-1
 945 653 l 1,4,-1
 945 530 l 1,5,-1
 589 530 l 1,6,-1
 589 139 l 1,7,-1
 464 139 l 1,8,-1
 464 530 l 1,9,-1
 103 530 l 1,10,-1
 103 653 l 1,11,-1
 465 653 l 1,0,-1
EndSplineSet
EndChar

StartChar: comma
Encoding: 44 44 15
Width: 436
GlyphClass: 2
Flags: W
LayerCount: 2
UndoRedoHistory
Layer: 1
Undoes
UndoOperation
Index: 0
Type: 1
WasModified: 0
WasOrder2: 1
Width: 436
VWidth: 2048
LBearingChange: 0
UnicodeEnc: 0
InstructionsLength: 0
SplineSet
196 -253 m 1,0,-1
 100 -253 l 1,1,2
 143 135 143 135 147 213 c 1,3,-1
 327 213 l 1,4,-1
 327 173 l 1,5,6
 283 -3 283 -3 196 -253 c 1,0,-1
EndSplineSet
EndUndoOperation
UndoOperation
Index: 1
Type: 1
WasModified: 0
WasOrder2: 1
Width: 436
VWidth: 2048
LBearingChange: 0
UnicodeEnc: 0
InstructionsLength: 0
SplineSet
196 -253 m 1,0,-1
 100 -253 l 1,1,2
 143 135 143 135 147 213 c 1,3,-1
 327 213 l 1,4,-1
 327 173 l 1,5,6
 283 -3 283 -3 196 -253 c 1,0,-1
EndSplineSet
EndUndoOperation
EndUndoes
Redoes
EndRedoes
EndUndoRedoHistory
Fore
SplineSet
196 -253 m 1,0,-1
 100 -253 l 1,1,2
 143 135 143 135 147 213 c 1,3,-1
 327 213 l 1,4,-1
 327 173 l 1,5,6
 283 -3 283 -3 196 -253 c 1,0,-1
EndSplineSet
EndChar

StartChar: hyphen
Encoding: 45 45 16
Width: 812
GlyphClass: 2
Flags: W
LayerCount: 2
UndoRedoHistory
Layer: 1
Undoes
UndoOperation
Index: 0
Type: 1
WasModified: 0
WasOrder2: 1
Width: 812
VWidth: 2048
LBearingChange: 0
UnicodeEnc: 0
InstructionsLength: 0
SplineSet
127 452 m 1,0,-1
 127 586 l 1,1,-1
 685 586 l 1,2,-1
 685 452 l 1,3,-1
 127 452 l 1,0,-1
EndSplineSet
EndUndoOperation
UndoOperation
Index: 1
Type: 1
WasModified: 0
WasOrder2: 1
Width: 812
VWidth: 2048
LBearingChange: 0
UnicodeEnc: 0
InstructionsLength: 0
SplineSet
127 452 m 1,0,-1
 127 586 l 1,1,-1
 685 586 l 1,2,-1
 685 452 l 1,3,-1
 127 452 l 1,0,-1
EndSplineSet
EndUndoOperation
EndUndoes
Redoes
EndRedoes
EndUndoRedoHistory
Fore
SplineSet
127 452 m 1,0,-1
 127 586 l 1,1,-1
 685 586 l 1,2,-1
 685 452 l 1,3,-1
 127 452 l 1,0,-1
EndSplineSet
EndChar

StartChar: period
Encoding: 46 46 17
Width: 478
GlyphClass: 2
Flags: W
LayerCount: 2
UndoRedoHistory
Layer: 1
Undoes
UndoOperation
Index: 0
Type: 1
WasModified: 0
WasOrder2: 1
Width: 478
VWidth: 2048
LBearingChange: 0
UnicodeEnc: 0
InstructionsLength: 0
SplineSet
239 -11 m 128,-1,1
 182 -11 182 -11 150 24.5 c 128,-1,2
 118 60 118 60 118 109 c 128,-1,3
 118 158 118 158 150 193.5 c 128,-1,4
 182 229 182 229 239 229 c 128,-1,5
 296 229 296 229 328 193.5 c 128,-1,6
 360 158 360 158 360 109 c 128,-1,7
 360 60 360 60 328 24.5 c 128,-1,0
 296 -11 296 -11 239 -11 c 128,-1,1
EndSplineSet
EndUndoOperation
UndoOperation
Index: 1
Type: 1
WasModified: 0
WasOrder2: 1
Width: 478
VWidth: 2048
LBearingChange: 0
UnicodeEnc: 0
InstructionsLength: 0
SplineSet
239 -11 m 128,-1,1
 182 -11 182 -11 150 24.5 c 128,-1,2
 118 60 118 60 118 109 c 128,-1,3
 118 158 118 158 150 193.5 c 128,-1,4
 182 229 182 229 239 229 c 128,-1,5
 296 229 296 229 328 193.5 c 128,-1,6
 360 158 360 158 360 109 c 128,-1,7
 360 60 360 60 328 24.5 c 128,-1,0
 296 -11 296 -11 239 -11 c 128,-1,1
EndSplineSet
EndUndoOperation
EndUndoes
Redoes
EndRedoes
EndUndoRedoHistory
Fore
SplineSet
239 -11 m 128,-1,1
 182 -11 182 -11 150 24.5 c 128,-1,2
 118 60 118 60 118 109 c 128,-1,3
 118 158 118 158 150 193.5 c 128,-1,4
 182 229 182 229 239 229 c 128,-1,5
 296 229 296 229 328 193.5 c 128,-1,6
 360 158 360 158 360 109 c 128,-1,7
 360 60 360 60 328 24.5 c 128,-1,0
 296 -11 296 -11 239 -11 c 128,-1,1
EndSplineSet
EndChar

StartChar: slash
Encoding: 47 47 18
Width: 898
GlyphClass: 2
Flags: W
LayerCount: 2
UndoRedoHistory
Layer: 1
Undoes
UndoOperation
Index: 0
Type: 1
WasModified: 0
WasOrder2: 1
Width: 898
VWidth: 2048
LBearingChange: 0
UnicodeEnc: 0
InstructionsLength: 0
SplineSet
68 -198 m 1,0,-1
 683 1334 l 1,1,-1
 816 1334 l 1,2,-1
 199 -198 l 1,3,-1
 68 -198 l 1,0,-1
EndSplineSet
EndUndoOperation
UndoOperation
Index: 1
Type: 1
WasModified: 0
WasOrder2: 1
Width: 898
VWidth: 2048
LBearingChange: 0
UnicodeEnc: 0
InstructionsLength: 0
SplineSet
68 -198 m 1,0,-1
 683 1334 l 1,1,-1
 816 1334 l 1,2,-1
 199 -198 l 1,3,-1
 68 -198 l 1,0,-1
EndSplineSet
EndUndoOperation
EndUndoes
Redoes
EndRedoes
EndUndoRedoHistory
Fore
SplineSet
68 -198 m 1,0,-1
 683 1334 l 1,1,-1
 816 1334 l 1,2,-1
 199 -198 l 1,3,-1
 68 -198 l 1,0,-1
EndSplineSet
EndChar

StartChar: zero
Encoding: 48 48 19
Width: 1145
GlyphClass: 2
Flags: W
LayerCount: 2
UndoRedoHistory
Layer: 1
Undoes
UndoOperation
Index: 0
Type: 1
WasModified: 0
WasOrder2: 1
Width: 1145
VWidth: 2048
LBearingChange: 0
UnicodeEnc: 0
InstructionsLength: 0
SplineSet
576 -18 m 0,0,1
 479 -18 479 -18 400.5 16 c 128,-1,2
 322 50 322 50 267.5 110.5 c 128,-1,3
 213 171 213 171 177 258 c 128,-1,4
 141 345 141 345 124 448.5 c 128,-1,5
 107 552 107 552 107 674 c 0,6,7
 107 997 107 997 225.5 1181.5 c 128,-1,8
 344 1366 344 1366 576 1366 c 0,9,10
 732 1366 732 1366 836.5 1279 c 128,-1,11
 941 1192 941 1192 989.5 1039.5 c 128,-1,12
 1038 887 1038 887 1038 674 c 0,13,14
 1038 520 1038 520 1012 396.5 c 128,-1,15
 986 273 986 273 932 179 c 128,-1,16
 878 85 878 85 787.5 33.5 c 128,-1,17
 697 -18 697 -18 576 -18 c 0,0,1
576 120 m 0,18,19
 718 120 718 120 790.5 261 c 128,-1,20
 863 402 863 402 863 680 c 0,21,22
 863 1228 863 1228 576 1228 c 0,23,24
 434 1228 434 1228 358 1086.5 c 128,-1,25
 282 945 282 945 282 680 c 0,26,27
 282 404 282 404 357.5 262 c 128,-1,28
 433 120 433 120 576 120 c 0,18,19
EndSplineSet
EndUndoOperation
UndoOperation
Index: 1
Type: 1
WasModified: 0
WasOrder2: 1
Width: 1145
VWidth: 2048
LBearingChange: 0
UnicodeEnc: 0
InstructionsLength: 0
SplineSet
576 -18 m 0,0,1
 479 -18 479 -18 400.5 16 c 128,-1,2
 322 50 322 50 267.5 110.5 c 128,-1,3
 213 171 213 171 177 258 c 128,-1,4
 141 345 141 345 124 448.5 c 128,-1,5
 107 552 107 552 107 674 c 0,6,7
 107 997 107 997 225.5 1181.5 c 128,-1,8
 344 1366 344 1366 576 1366 c 0,9,10
 732 1366 732 1366 836.5 1279 c 128,-1,11
 941 1192 941 1192 989.5 1039.5 c 128,-1,12
 1038 887 1038 887 1038 674 c 0,13,14
 1038 520 1038 520 1012 396.5 c 128,-1,15
 986 273 986 273 932 179 c 128,-1,16
 878 85 878 85 787.5 33.5 c 128,-1,17
 697 -18 697 -18 576 -18 c 0,0,1
576 120 m 0,18,19
 718 120 718 120 790.5 261 c 128,-1,20
 863 402 863 402 863 680 c 0,21,22
 863 1228 863 1228 576 1228 c 0,23,24
 434 1228 434 1228 358 1086.5 c 128,-1,25
 282 945 282 945 282 680 c 0,26,27
 282 404 282 404 357.5 262 c 128,-1,28
 433 120 433 120 576 120 c 0,18,19
EndSplineSet
EndUndoOperation
EndUndoes
Redoes
EndRedoes
EndUndoRedoHistory
Fore
SplineSet
576 -18 m 0,0,1
 479 -18 479 -18 400.5 16 c 128,-1,2
 322 50 322 50 267.5 110.5 c 128,-1,3
 213 171 213 171 177 258 c 128,-1,4
 141 345 141 345 124 448.5 c 128,-1,5
 107 552 107 552 107 674 c 0,6,7
 107 997 107 997 225.5 1181.5 c 128,-1,8
 344 1366 344 1366 576 1366 c 0,9,10
 732 1366 732 1366 836.5 1279 c 128,-1,11
 941 1192 941 1192 989.5 1039.5 c 128,-1,12
 1038 887 1038 887 1038 674 c 0,13,14
 1038 520 1038 520 1012 396.5 c 128,-1,15
 986 273 986 273 932 179 c 128,-1,16
 878 85 878 85 787.5 33.5 c 128,-1,17
 697 -18 697 -18 576 -18 c 0,0,1
576 120 m 0,18,19
 718 120 718 120 790.5 261 c 128,-1,20
 863 402 863 402 863 680 c 0,21,22
 863 1228 863 1228 576 1228 c 0,23,24
 434 1228 434 1228 358 1086.5 c 128,-1,25
 282 945 282 945 282 680 c 0,26,27
 282 404 282 404 357.5 262 c 128,-1,28
 433 120 433 120 576 120 c 0,18,19
EndSplineSet
EndChar

StartChar: one
Encoding: 49 49 20
Width: 975
GlyphClass: 2
Flags: W
LayerCount: 2
UndoRedoHistory
Layer: 1
Undoes
UndoOperation
Index: 0
Type: 1
WasModified: 0
WasOrder2: 1
Width: 975
VWidth: 2048
LBearingChange: 0
UnicodeEnc: 0
InstructionsLength: 0
SplineSet
870 0 m 1,0,-1
 144 0 l 1,1,-1
 144 140 l 1,2,-1
 449 140 l 1,3,-1
 449 1193 l 1,4,5
 393 1157 393 1157 317.5 1130.5 c 128,-1,6
 242 1104 242 1104 173 1100 c 1,7,-1
 173 1242 l 1,8,9
 231 1246 231 1246 319.5 1283.5 c 128,-1,10
 408 1321 408 1321 465 1361 c 1,11,-1
 610 1361 l 1,12,-1
 610 140 l 1,13,-1
 870 140 l 1,14,-1
 870 0 l 1,0,-1
EndSplineSet
EndUndoOperation
UndoOperation
Index: 1
Type: 1
WasModified: 0
WasOrder2: 1
Width: 975
VWidth: 2048
LBearingChange: 0
UnicodeEnc: 0
InstructionsLength: 0
SplineSet
870 0 m 1,0,-1
 144 0 l 1,1,-1
 144 140 l 1,2,-1
 449 140 l 1,3,-1
 449 1193 l 1,4,5
 393 1157 393 1157 317.5 1130.5 c 128,-1,6
 242 1104 242 1104 173 1100 c 1,7,-1
 173 1242 l 1,8,9
 231 1246 231 1246 319.5 1283.5 c 128,-1,10
 408 1321 408 1321 465 1361 c 1,11,-1
 610 1361 l 1,12,-1
 610 140 l 1,13,-1
 870 140 l 1,14,-1
 870 0 l 1,0,-1
EndSplineSet
EndUndoOperation
EndUndoes
Redoes
EndRedoes
EndUndoRedoHistory
Fore
SplineSet
870 0 m 1,0,-1
 144 0 l 1,1,-1
 144 140 l 1,2,-1
 449 140 l 1,3,-1
 449 1193 l 1,4,5
 393 1157 393 1157 317.5 1130.5 c 128,-1,6
 242 1104 242 1104 173 1100 c 1,7,-1
 173 1242 l 1,8,9
 231 1246 231 1246 319.5 1283.5 c 128,-1,10
 408 1321 408 1321 465 1361 c 1,11,-1
 610 1361 l 1,12,-1
 610 140 l 1,13,-1
 870 140 l 1,14,-1
 870 0 l 1,0,-1
EndSplineSet
EndChar

StartChar: two
Encoding: 50 50 21
Width: 1036
GlyphClass: 2
Flags: W
LayerCount: 2
UndoRedoHistory
Layer: 1
Undoes
UndoOperation
Index: 0
Type: 1
WasModified: 0
WasOrder2: 1
Width: 1036
VWidth: 2048
LBearingChange: 0
UnicodeEnc: 0
InstructionsLength: 0
SplineSet
108 0 m 1,0,-1
 88 149 l 1,1,-1
 560 648 l 2,2,3
 656 750 656 750 695.5 818 c 128,-1,4
 735 886 735 886 735 985 c 0,5,6
 735 1098 735 1098 672 1160.5 c 128,-1,7
 609 1223 609 1223 493 1223 c 0,8,9
 403 1223 403 1223 324.5 1198 c 128,-1,10
 246 1173 246 1173 159 1111 c 1,11,-1
 107 1247 l 1,12,13
 190 1307 190 1307 281 1336.5 c 128,-1,14
 372 1366 372 1366 498 1366 c 0,15,16
 684 1366 684 1366 797 1265 c 128,-1,17
 910 1164 910 1164 910 996 c 0,18,19
 910 928 910 928 894.5 870 c 128,-1,20
 879 812 879 812 842.5 754.5 c 128,-1,21
 806 697 806 697 768 652 c 128,-1,22
 730 607 730 607 664 539 c 2,23,-1
 280 140 l 1,24,-1
 915 140 l 1,25,-1
 905 0 l 1,26,-1
 108 0 l 1,0,-1
EndSplineSet
EndUndoOperation
UndoOperation
Index: 1
Type: 1
WasModified: 0
WasOrder2: 1
Width: 1036
VWidth: 2048
LBearingChange: 0
UnicodeEnc: 0
InstructionsLength: 0
SplineSet
108 0 m 1,0,-1
 88 149 l 1,1,-1
 560 648 l 2,2,3
 656 750 656 750 695.5 818 c 128,-1,4
 735 886 735 886 735 985 c 0,5,6
 735 1098 735 1098 672 1160.5 c 128,-1,7
 609 1223 609 1223 493 1223 c 0,8,9
 403 1223 403 1223 324.5 1198 c 128,-1,10
 246 1173 246 1173 159 1111 c 1,11,-1
 107 1247 l 1,12,13
 190 1307 190 1307 281 1336.5 c 128,-1,14
 372 1366 372 1366 498 1366 c 0,15,16
 684 1366 684 1366 797 1265 c 128,-1,17
 910 1164 910 1164 910 996 c 0,18,19
 910 928 910 928 894.5 870 c 128,-1,20
 879 812 879 812 842.5 754.5 c 128,-1,21
 806 697 806 697 768 652 c 128,-1,22
 730 607 730 607 664 539 c 2,23,-1
 280 140 l 1,24,-1
 915 140 l 1,25,-1
 905 0 l 1,26,-1
 108 0 l 1,0,-1
EndSplineSet
EndUndoOperation
EndUndoes
Redoes
EndRedoes
EndUndoRedoHistory
Fore
SplineSet
108 0 m 1,0,-1
 88 149 l 1,1,-1
 560 648 l 2,2,3
 656 750 656 750 695.5 818 c 128,-1,4
 735 886 735 886 735 985 c 0,5,6
 735 1098 735 1098 672 1160.5 c 128,-1,7
 609 1223 609 1223 493 1223 c 0,8,9
 403 1223 403 1223 324.5 1198 c 128,-1,10
 246 1173 246 1173 159 1111 c 1,11,-1
 107 1247 l 1,12,13
 190 1307 190 1307 281 1336.5 c 128,-1,14
 372 1366 372 1366 498 1366 c 0,15,16
 684 1366 684 1366 797 1265 c 128,-1,17
 910 1164 910 1164 910 996 c 0,18,19
 910 928 910 928 894.5 870 c 128,-1,20
 879 812 879 812 842.5 754.5 c 128,-1,21
 806 697 806 697 768 652 c 128,-1,22
 730 607 730 607 664 539 c 2,23,-1
 280 140 l 1,24,-1
 915 140 l 1,25,-1
 905 0 l 1,26,-1
 108 0 l 1,0,-1
EndSplineSet
EndChar

StartChar: three
Encoding: 51 51 22
Width: 1105
GlyphClass: 2
Flags: W
LayerCount: 2
UndoRedoHistory
Layer: 1
Undoes
UndoOperation
Index: 0
Type: 1
WasModified: 0
WasOrder2: 1
Width: 1105
VWidth: 2048
LBearingChange: 0
UnicodeEnc: 0
InstructionsLength: 0
SplineSet
800 371 m 0,0,1
 800 438 800 438 778.5 487.5 c 128,-1,2
 757 537 757 537 722 567 c 128,-1,3
 687 597 687 597 631.5 615 c 128,-1,4
 576 633 576 633 520 639.5 c 128,-1,5
 464 646 464 646 388 648 c 1,6,-1
 344 648 l 1,7,-1
 344 784 l 1,8,-1
 389 784 l 1,9,10
 453 786 453 786 501 791.5 c 128,-1,11
 549 797 549 797 598.5 812 c 128,-1,12
 648 827 648 827 679.5 852 c 128,-1,13
 711 877 711 877 731 919.5 c 128,-1,14
 751 962 751 962 751 1020 c 0,15,16
 751 1130 751 1130 688.5 1179 c 128,-1,17
 626 1228 626 1228 501 1228 c 0,18,19
 320 1228 320 1228 196 1130 c 1,20,-1
 145 1263 l 1,21,22
 281 1366 281 1366 536 1366 c 0,23,24
 640 1366 640 1366 726.5 1331 c 128,-1,25
 813 1296 813 1296 869.5 1220.5 c 128,-1,26
 926 1145 926 1145 926 1041 c 0,27,28
 926 791 926 791 687 716 c 1,29,30
 815 688 815 688 887 599 c 128,-1,31
 959 510 959 510 959 369 c 0,32,33
 959 190 959 190 831 86 c 128,-1,34
 703 -18 703 -18 501 -18 c 0,35,36
 378 -18 378 -18 283.5 13 c 128,-1,37
 189 44 189 44 145 85 c 1,38,-1
 196 218 l 1,39,40
 319 120 319 120 502 120 c 0,41,42
 639 120 639 120 719.5 184.5 c 128,-1,43
 800 249 800 249 800 371 c 0,0,1
EndSplineSet
EndUndoOperation
UndoOperation
Index: 1
Type: 1
WasModified: 0
WasOrder2: 1
Width: 1105
VWidth: 2048
LBearingChange: 0
UnicodeEnc: 0
InstructionsLength: 0
SplineSet
800 371 m 0,0,1
 800 438 800 438 778.5 487.5 c 128,-1,2
 757 537 757 537 722 567 c 128,-1,3
 687 597 687 597 631.5 615 c 128,-1,4
 576 633 576 633 520 639.5 c 128,-1,5
 464 646 464 646 388 648 c 1,6,-1
 344 648 l 1,7,-1
 344 784 l 1,8,-1
 389 784 l 1,9,10
 453 786 453 786 501 791.5 c 128,-1,11
 549 797 549 797 598.5 812 c 128,-1,12
 648 827 648 827 679.5 852 c 128,-1,13
 711 877 711 877 731 919.5 c 128,-1,14
 751 962 751 962 751 1020 c 0,15,16
 751 1130 751 1130 688.5 1179 c 128,-1,17
 626 1228 626 1228 501 1228 c 0,18,19
 320 1228 320 1228 196 1130 c 1,20,-1
 145 1263 l 1,21,22
 281 1366 281 1366 536 1366 c 0,23,24
 640 1366 640 1366 726.5 1331 c 128,-1,25
 813 1296 813 1296 869.5 1220.5 c 128,-1,26
 926 1145 926 1145 926 1041 c 0,27,28
 926 791 926 791 687 716 c 1,29,30
 815 688 815 688 887 599 c 128,-1,31
 959 510 959 510 959 369 c 0,32,33
 959 190 959 190 831 86 c 128,-1,34
 703 -18 703 -18 501 -18 c 0,35,36
 378 -18 378 -18 283.5 13 c 128,-1,37
 189 44 189 44 145 85 c 1,38,-1
 196 218 l 1,39,40
 319 120 319 120 502 120 c 0,41,42
 639 120 639 120 719.5 184.5 c 128,-1,43
 800 249 800 249 800 371 c 0,0,1
EndSplineSet
EndUndoOperation
EndUndoes
Redoes
EndRedoes
EndUndoRedoHistory
Fore
SplineSet
800 371 m 0,0,1
 800 438 800 438 778.5 487.5 c 128,-1,2
 757 537 757 537 722 567 c 128,-1,3
 687 597 687 597 631.5 615 c 128,-1,4
 576 633 576 633 520 639.5 c 128,-1,5
 464 646 464 646 388 648 c 1,6,-1
 344 648 l 1,7,-1
 344 784 l 1,8,-1
 389 784 l 1,9,10
 453 786 453 786 501 791.5 c 128,-1,11
 549 797 549 797 598.5 812 c 128,-1,12
 648 827 648 827 679.5 852 c 128,-1,13
 711 877 711 877 731 919.5 c 128,-1,14
 751 962 751 962 751 1020 c 0,15,16
 751 1130 751 1130 688.5 1179 c 128,-1,17
 626 1228 626 1228 501 1228 c 0,18,19
 320 1228 320 1228 196 1130 c 1,20,-1
 145 1263 l 1,21,22
 281 1366 281 1366 536 1366 c 0,23,24
 640 1366 640 1366 726.5 1331 c 128,-1,25
 813 1296 813 1296 869.5 1220.5 c 128,-1,26
 926 1145 926 1145 926 1041 c 0,27,28
 926 791 926 791 687 716 c 1,29,30
 815 688 815 688 887 599 c 128,-1,31
 959 510 959 510 959 369 c 0,32,33
 959 190 959 190 831 86 c 128,-1,34
 703 -18 703 -18 501 -18 c 0,35,36
 378 -18 378 -18 283.5 13 c 128,-1,37
 189 44 189 44 145 85 c 1,38,-1
 196 218 l 1,39,40
 319 120 319 120 502 120 c 0,41,42
 639 120 639 120 719.5 184.5 c 128,-1,43
 800 249 800 249 800 371 c 0,0,1
EndSplineSet
EndChar

StartChar: four
Encoding: 52 52 23
Width: 1138
GlyphClass: 2
Flags: W
LayerCount: 2
UndoRedoHistory
Layer: 1
Undoes
UndoOperation
Index: 0
Type: 1
WasModified: 0
WasOrder2: 1
Width: 1138
VWidth: 2048
LBearingChange: 0
UnicodeEnc: 0
InstructionsLength: 0
SplineSet
732 470 m 1,0,-1
 732 1155 l 1,1,-1
 277 470 l 1,2,-1
 732 470 l 1,0,-1
715 1361 m 1,3,-1
 885 1361 l 1,4,-1
 885 470 l 1,5,-1
 1052 470 l 1,6,-1
 1040 338 l 1,7,-1
 885 338 l 1,8,-1
 885 0 l 1,9,-1
 732 0 l 1,10,-1
 732 338 l 1,11,-1
 117 338 l 1,12,-1
 117 477 l 1,13,-1
 715 1361 l 1,3,-1
EndSplineSet
EndUndoOperation
UndoOperation
Index: 1
Type: 1
WasModified: 0
WasOrder2: 1
Width: 1138
VWidth: 2048
LBearingChange: 0
UnicodeEnc: 0
InstructionsLength: 0
SplineSet
732 470 m 1,0,-1
 732 1155 l 1,1,-1
 277 470 l 1,2,-1
 732 470 l 1,0,-1
715 1361 m 1,3,-1
 885 1361 l 1,4,-1
 885 470 l 1,5,-1
 1052 470 l 1,6,-1
 1040 338 l 1,7,-1
 885 338 l 1,8,-1
 885 0 l 1,9,-1
 732 0 l 1,10,-1
 732 338 l 1,11,-1
 117 338 l 1,12,-1
 117 477 l 1,13,-1
 715 1361 l 1,3,-1
EndSplineSet
EndUndoOperation
EndUndoes
Redoes
EndRedoes
EndUndoRedoHistory
Fore
SplineSet
732 470 m 1,0,-1
 732 1155 l 1,1,-1
 277 470 l 1,2,-1
 732 470 l 1,0,-1
715 1361 m 1,3,-1
 885 1361 l 1,4,-1
 885 470 l 1,5,-1
 1052 470 l 1,6,-1
 1040 338 l 1,7,-1
 885 338 l 1,8,-1
 885 0 l 1,9,-1
 732 0 l 1,10,-1
 732 338 l 1,11,-1
 117 338 l 1,12,-1
 117 477 l 1,13,-1
 715 1361 l 1,3,-1
EndSplineSet
EndChar

StartChar: five
Encoding: 53 53 24
Width: 1043
GlyphClass: 2
Flags: W
LayerCount: 2
UndoRedoHistory
Layer: 1
Undoes
UndoOperation
Index: 0
Type: 1
WasModified: 0
WasOrder2: 1
Width: 1043
VWidth: 2048
LBearingChange: 0
UnicodeEnc: 0
InstructionsLength: 0
SplineSet
474 -21 m 0,0,1
 246 -21 246 -21 109 104 c 1,2,-1
 168 232 l 1,3,4
 302 126 302 126 480 126 c 0,5,6
 628 126 628 126 710 210.5 c 128,-1,7
 792 295 792 295 792 432 c 0,8,9
 792 554 792 554 719 630 c 128,-1,10
 646 706 646 706 512 706 c 0,11,12
 376 706 376 706 295 616 c 1,13,-1
 169 633 l 1,14,-1
 204 1361 l 1,15,-1
 902 1361 l 1,16,-1
 889 1212 l 1,17,-1
 333 1212 l 1,18,19
 333 1208 333 1208 320 784 c 1,20,21
 423 849 423 849 543 849 c 0,22,23
 742 849 742 849 849.5 732.5 c 128,-1,24
 957 616 957 616 957 434 c 0,25,26
 957 227 957 227 829 103 c 128,-1,27
 701 -21 701 -21 474 -21 c 0,0,1
EndSplineSet
EndUndoOperation
UndoOperation
Index: 1
Type: 1
WasModified: 0
WasOrder2: 1
Width: 1043
VWidth: 2048
LBearingChange: 0
UnicodeEnc: 0
InstructionsLength: 0
SplineSet
474 -21 m 0,0,1
 246 -21 246 -21 109 104 c 1,2,-1
 168 232 l 1,3,4
 302 126 302 126 480 126 c 0,5,6
 628 126 628 126 710 210.5 c 128,-1,7
 792 295 792 295 792 432 c 0,8,9
 792 554 792 554 719 630 c 128,-1,10
 646 706 646 706 512 706 c 0,11,12
 376 706 376 706 295 616 c 1,13,-1
 169 633 l 1,14,-1
 204 1361 l 1,15,-1
 902 1361 l 1,16,-1
 889 1212 l 1,17,-1
 333 1212 l 1,18,19
 333 1208 333 1208 320 784 c 1,20,21
 423 849 423 849 543 849 c 0,22,23
 742 849 742 849 849.5 732.5 c 128,-1,24
 957 616 957 616 957 434 c 0,25,26
 957 227 957 227 829 103 c 128,-1,27
 701 -21 701 -21 474 -21 c 0,0,1
EndSplineSet
EndUndoOperation
EndUndoes
Redoes
EndRedoes
EndUndoRedoHistory
Fore
SplineSet
474 -21 m 0,0,1
 246 -21 246 -21 109 104 c 1,2,-1
 168 232 l 1,3,4
 302 126 302 126 480 126 c 0,5,6
 628 126 628 126 710 210.5 c 128,-1,7
 792 295 792 295 792 432 c 0,8,9
 792 554 792 554 719 630 c 128,-1,10
 646 706 646 706 512 706 c 0,11,12
 376 706 376 706 295 616 c 1,13,-1
 169 633 l 1,14,-1
 204 1361 l 1,15,-1
 902 1361 l 1,16,-1
 889 1212 l 1,17,-1
 333 1212 l 1,18,19
 333 1208 333 1208 320 784 c 1,20,21
 423 849 423 849 543 849 c 0,22,23
 742 849 742 849 849.5 732.5 c 128,-1,24
 957 616 957 616 957 434 c 0,25,26
 957 227 957 227 829 103 c 128,-1,27
 701 -21 701 -21 474 -21 c 0,0,1
EndSplineSet
EndChar

StartChar: six
Encoding: 54 54 25
Width: 1172
GlyphClass: 2
Flags: W
LayerCount: 2
UndoRedoHistory
Layer: 1
Undoes
UndoOperation
Index: 0
Type: 1
WasModified: 0
WasOrder2: 1
Width: 1172
VWidth: 2048
LBearingChange: 0
UnicodeEnc: 0
InstructionsLength: 0
SplineSet
580 120 m 128,-1,1
 715 120 715 120 791.5 203 c 128,-1,2
 868 286 868 286 868 409 c 0,3,4
 868 540 868 540 797.5 622.5 c 128,-1,5
 727 705 727 705 594 705 c 0,6,7
 449 705 449 705 369.5 622 c 128,-1,8
 290 539 290 539 290 415 c 128,-1,9
 290 291 290 291 367.5 205.5 c 128,-1,0
 445 120 445 120 580 120 c 128,-1,1
585 -18 m 0,10,11
 444 -18 444 -18 339.5 44 c 128,-1,12
 235 106 235 106 183.5 207 c 128,-1,13
 132 308 132 308 132 433 c 0,14,15
 132 581 132 581 186.5 698 c 128,-1,16
 241 815 241 815 383 994 c 0,17,18
 417 1038 417 1038 491 1126 c 128,-1,19
 565 1214 565 1214 622 1280 c 2,20,-1
 678 1346 l 1,21,-1
 886 1346 l 1,22,-1
 404 776 l 1,23,24
 453 802 453 802 516.5 821.5 c 128,-1,25
 580 841 580 841 631 841 c 0,26,27
 805 841 805 841 922.5 719.5 c 128,-1,28
 1040 598 1040 598 1040 412 c 128,-1,29
 1040 226 1040 226 915 104 c 128,-1,30
 790 -18 790 -18 585 -18 c 0,10,11
EndSplineSet
EndUndoOperation
UndoOperation
Index: 1
Type: 1
WasModified: 0
WasOrder2: 1
Width: 1172
VWidth: 2048
LBearingChange: 0
UnicodeEnc: 0
InstructionsLength: 0
SplineSet
580 120 m 128,-1,1
 715 120 715 120 791.5 203 c 128,-1,2
 868 286 868 286 868 409 c 0,3,4
 868 540 868 540 797.5 622.5 c 128,-1,5
 727 705 727 705 594 705 c 0,6,7
 449 705 449 705 369.5 622 c 128,-1,8
 290 539 290 539 290 415 c 128,-1,9
 290 291 290 291 367.5 205.5 c 128,-1,0
 445 120 445 120 580 120 c 128,-1,1
585 -18 m 0,10,11
 444 -18 444 -18 339.5 44 c 128,-1,12
 235 106 235 106 183.5 207 c 128,-1,13
 132 308 132 308 132 433 c 0,14,15
 132 581 132 581 186.5 698 c 128,-1,16
 241 815 241 815 383 994 c 0,17,18
 417 1038 417 1038 491 1126 c 128,-1,19
 565 1214 565 1214 622 1280 c 2,20,-1
 678 1346 l 1,21,-1
 886 1346 l 1,22,-1
 404 776 l 1,23,24
 453 802 453 802 516.5 821.5 c 128,-1,25
 580 841 580 841 631 841 c 0,26,27
 805 841 805 841 922.5 719.5 c 128,-1,28
 1040 598 1040 598 1040 412 c 128,-1,29
 1040 226 1040 226 915 104 c 128,-1,30
 790 -18 790 -18 585 -18 c 0,10,11
EndSplineSet
EndUndoOperation
EndUndoes
Redoes
EndRedoes
EndUndoRedoHistory
Fore
SplineSet
580 120 m 128,-1,1
 715 120 715 120 791.5 203 c 128,-1,2
 868 286 868 286 868 409 c 0,3,4
 868 540 868 540 797.5 622.5 c 128,-1,5
 727 705 727 705 594 705 c 0,6,7
 449 705 449 705 369.5 622 c 128,-1,8
 290 539 290 539 290 415 c 128,-1,9
 290 291 290 291 367.5 205.5 c 128,-1,0
 445 120 445 120 580 120 c 128,-1,1
585 -18 m 0,10,11
 444 -18 444 -18 339.5 44 c 128,-1,12
 235 106 235 106 183.5 207 c 128,-1,13
 132 308 132 308 132 433 c 0,14,15
 132 581 132 581 186.5 698 c 128,-1,16
 241 815 241 815 383 994 c 0,17,18
 417 1038 417 1038 491 1126 c 128,-1,19
 565 1214 565 1214 622 1280 c 2,20,-1
 678 1346 l 1,21,-1
 886 1346 l 1,22,-1
 404 776 l 1,23,24
 453 802 453 802 516.5 821.5 c 128,-1,25
 580 841 580 841 631 841 c 0,26,27
 805 841 805 841 922.5 719.5 c 128,-1,28
 1040 598 1040 598 1040 412 c 128,-1,29
 1040 226 1040 226 915 104 c 128,-1,30
 790 -18 790 -18 585 -18 c 0,10,11
EndSplineSet
EndChar

StartChar: seven
Encoding: 55 55 26
Width: 984
GlyphClass: 2
Flags: W
LayerCount: 2
UndoRedoHistory
Layer: 1
Undoes
UndoOperation
Index: 0
Type: 1
WasModified: 0
WasOrder2: 1
Width: 984
VWidth: 2048
LBearingChange: 0
UnicodeEnc: 0
InstructionsLength: 0
SplineSet
888 1361 m 1,0,-1
 888 1238 l 1,1,-1
 401 0 l 1,2,-1
 236 0 l 1,3,-1
 703 1220 l 1,4,-1
 119 1220 l 1,5,-1
 109 1361 l 1,6,-1
 888 1361 l 1,0,-1
EndSplineSet
EndUndoOperation
UndoOperation
Index: 1
Type: 1
WasModified: 0
WasOrder2: 1
Width: 984
VWidth: 2048
LBearingChange: 0
UnicodeEnc: 0
InstructionsLength: 0
SplineSet
888 1361 m 1,0,-1
 888 1238 l 1,1,-1
 401 0 l 1,2,-1
 236 0 l 1,3,-1
 703 1220 l 1,4,-1
 119 1220 l 1,5,-1
 109 1361 l 1,6,-1
 888 1361 l 1,0,-1
EndSplineSet
EndUndoOperation
EndUndoes
Redoes
EndRedoes
EndUndoRedoHistory
Fore
SplineSet
888 1361 m 1,0,-1
 888 1238 l 1,1,-1
 401 0 l 1,2,-1
 236 0 l 1,3,-1
 703 1220 l 1,4,-1
 119 1220 l 1,5,-1
 109 1361 l 1,6,-1
 888 1361 l 1,0,-1
EndSplineSet
EndChar

StartChar: eight
Encoding: 56 56 27
Width: 1157
GlyphClass: 2
Flags: W
LayerCount: 2
UndoRedoHistory
Layer: 1
Undoes
UndoOperation
Index: 0
Type: 1
WasModified: 0
WasOrder2: 1
Width: 1157
VWidth: 2048
LBearingChange: 0
UnicodeEnc: 0
InstructionsLength: 0
SplineSet
578 760 m 1,0,1
 831 816 831 816 831 1034 c 0,2,3
 831 1126 831 1126 758 1177 c 128,-1,4
 685 1228 685 1228 578 1228 c 128,-1,5
 471 1228 471 1228 396.5 1177 c 128,-1,6
 322 1126 322 1126 322 1034 c 0,7,8
 322 927 322 927 387.5 857.5 c 128,-1,9
 453 788 453 788 578 760 c 1,0,1
578 120 m 128,-1,11
 703 120 703 120 781.5 184 c 128,-1,12
 860 248 860 248 860 358 c 0,13,14
 860 465 860 465 783 537.5 c 128,-1,15
 706 610 706 610 578 638 c 1,16,17
 450 610 450 610 371.5 537.5 c 128,-1,18
 293 465 293 465 293 358 c 0,19,20
 293 248 293 248 373 184 c 128,-1,10
 453 120 453 120 578 120 c 128,-1,11
578 -18 m 0,21,22
 455 -18 455 -18 355.5 22.5 c 128,-1,23
 256 63 256 63 195 147 c 128,-1,24
 134 231 134 231 134 347 c 0,25,26
 134 476 134 476 208.5 570 c 128,-1,27
 283 664 283 664 416 707 c 1,28,29
 162 797 162 797 162 1031 c 0,30,31
 162 1189 162 1189 277.5 1277.5 c 128,-1,32
 393 1366 393 1366 578 1366 c 128,-1,33
 763 1366 763 1366 877 1277.5 c 128,-1,34
 991 1189 991 1189 991 1031 c 0,35,36
 991 797 991 797 758 707 c 1,37,38
 881 664 881 664 950.5 569.5 c 128,-1,39
 1020 475 1020 475 1020 347 c 0,40,41
 1020 231 1020 231 959.5 147 c 128,-1,42
 899 63 899 63 800.5 22.5 c 128,-1,43
 702 -18 702 -18 578 -18 c 0,21,22
EndSplineSet
EndUndoOperation
UndoOperation
Index: 1
Type: 1
WasModified: 0
WasOrder2: 1
Width: 1157
VWidth: 2048
LBearingChange: 0
UnicodeEnc: 0
InstructionsLength: 0
SplineSet
578 760 m 1,0,1
 831 816 831 816 831 1034 c 0,2,3
 831 1126 831 1126 758 1177 c 128,-1,4
 685 1228 685 1228 578 1228 c 128,-1,5
 471 1228 471 1228 396.5 1177 c 128,-1,6
 322 1126 322 1126 322 1034 c 0,7,8
 322 927 322 927 387.5 857.5 c 128,-1,9
 453 788 453 788 578 760 c 1,0,1
578 120 m 128,-1,11
 703 120 703 120 781.5 184 c 128,-1,12
 860 248 860 248 860 358 c 0,13,14
 860 465 860 465 783 537.5 c 128,-1,15
 706 610 706 610 578 638 c 1,16,17
 450 610 450 610 371.5 537.5 c 128,-1,18
 293 465 293 465 293 358 c 0,19,20
 293 248 293 248 373 184 c 128,-1,10
 453 120 453 120 578 120 c 128,-1,11
578 -18 m 0,21,22
 455 -18 455 -18 355.5 22.5 c 128,-1,23
 256 63 256 63 195 147 c 128,-1,24
 134 231 134 231 134 347 c 0,25,26
 134 476 134 476 208.5 570 c 128,-1,27
 283 664 283 664 416 707 c 1,28,29
 162 797 162 797 162 1031 c 0,30,31
 162 1189 162 1189 277.5 1277.5 c 128,-1,32
 393 1366 393 1366 578 1366 c 128,-1,33
 763 1366 763 1366 877 1277.5 c 128,-1,34
 991 1189 991 1189 991 1031 c 0,35,36
 991 797 991 797 758 707 c 1,37,38
 881 664 881 664 950.5 569.5 c 128,-1,39
 1020 475 1020 475 1020 347 c 0,40,41
 1020 231 1020 231 959.5 147 c 128,-1,42
 899 63 899 63 800.5 22.5 c 128,-1,43
 702 -18 702 -18 578 -18 c 0,21,22
EndSplineSet
EndUndoOperation
EndUndoes
Redoes
EndRedoes
EndUndoRedoHistory
Fore
SplineSet
578 760 m 1,0,1
 831 816 831 816 831 1034 c 0,2,3
 831 1126 831 1126 758 1177 c 128,-1,4
 685 1228 685 1228 578 1228 c 128,-1,5
 471 1228 471 1228 396.5 1177 c 128,-1,6
 322 1126 322 1126 322 1034 c 0,7,8
 322 927 322 927 387.5 857.5 c 128,-1,9
 453 788 453 788 578 760 c 1,0,1
578 120 m 128,-1,11
 703 120 703 120 781.5 184 c 128,-1,12
 860 248 860 248 860 358 c 0,13,14
 860 465 860 465 783 537.5 c 128,-1,15
 706 610 706 610 578 638 c 1,16,17
 450 610 450 610 371.5 537.5 c 128,-1,18
 293 465 293 465 293 358 c 0,19,20
 293 248 293 248 373 184 c 128,-1,10
 453 120 453 120 578 120 c 128,-1,11
578 -18 m 0,21,22
 455 -18 455 -18 355.5 22.5 c 128,-1,23
 256 63 256 63 195 147 c 128,-1,24
 134 231 134 231 134 347 c 0,25,26
 134 476 134 476 208.5 570 c 128,-1,27
 283 664 283 664 416 707 c 1,28,29
 162 797 162 797 162 1031 c 0,30,31
 162 1189 162 1189 277.5 1277.5 c 128,-1,32
 393 1366 393 1366 578 1366 c 128,-1,33
 763 1366 763 1366 877 1277.5 c 128,-1,34
 991 1189 991 1189 991 1031 c 0,35,36
 991 797 991 797 758 707 c 1,37,38
 881 664 881 664 950.5 569.5 c 128,-1,39
 1020 475 1020 475 1020 347 c 0,40,41
 1020 231 1020 231 959.5 147 c 128,-1,42
 899 63 899 63 800.5 22.5 c 128,-1,43
 702 -18 702 -18 578 -18 c 0,21,22
EndSplineSet
EndChar

StartChar: nine
Encoding: 57 57 28
Width: 1156
GlyphClass: 2
Flags: W
LayerCount: 2
UndoRedoHistory
Layer: 1
Undoes
UndoOperation
Index: 0
Type: 1
WasModified: 0
WasOrder2: 1
Width: 1156
VWidth: 2048
LBearingChange: 0
UnicodeEnc: 0
InstructionsLength: 0
SplineSet
581 672 m 0,0,1
 721 672 721 672 788.5 749.5 c 128,-1,2
 856 827 856 827 856 952 c 0,3,4
 856 1075 856 1075 787.5 1152 c 128,-1,5
 719 1229 719 1229 587 1229 c 0,6,7
 454 1229 454 1229 376.5 1148.5 c 128,-1,8
 299 1068 299 1068 299 947 c 0,9,10
 299 822 299 822 373.5 747 c 128,-1,11
 448 672 448 672 581 672 c 0,0,1
472 0 m 1,12,-1
 276 0 l 1,13,-1
 749 591 l 1,14,15
 648 537 648 537 549 537 c 0,16,17
 436 537 436 537 341 586.5 c 128,-1,18
 246 636 246 636 188.5 730 c 128,-1,19
 131 824 131 824 131 944 c 0,20,21
 131 1126 131 1126 255.5 1246.5 c 128,-1,22
 380 1367 380 1367 581 1367 c 0,23,24
 788 1367 788 1367 906 1244.5 c 128,-1,25
 1024 1122 1024 1122 1024 934 c 0,26,27
 1024 805 1024 805 981 701.5 c 128,-1,28
 938 598 938 598 831 453 c 1,29,30
 792 402 792 402 702.5 288.5 c 128,-1,31
 613 175 613 175 542 88 c 1,32,-1
 472 0 l 1,12,-1
EndSplineSet
EndUndoOperation
UndoOperation
Index: 1
Type: 1
WasModified: 0
WasOrder2: 1
Width: 1156
VWidth: 2048
LBearingChange: 0
UnicodeEnc: 0
InstructionsLength: 0
SplineSet
581 672 m 0,0,1
 721 672 721 672 788.5 749.5 c 128,-1,2
 856 827 856 827 856 952 c 0,3,4
 856 1075 856 1075 787.5 1152 c 128,-1,5
 719 1229 719 1229 587 1229 c 0,6,7
 454 1229 454 1229 376.5 1148.5 c 128,-1,8
 299 1068 299 1068 299 947 c 0,9,10
 299 822 299 822 373.5 747 c 128,-1,11
 448 672 448 672 581 672 c 0,0,1
472 0 m 1,12,-1
 276 0 l 1,13,-1
 749 591 l 1,14,15
 648 537 648 537 549 537 c 0,16,17
 436 537 436 537 341 586.5 c 128,-1,18
 246 636 246 636 188.5 730 c 128,-1,19
 131 824 131 824 131 944 c 0,20,21
 131 1126 131 1126 255.5 1246.5 c 128,-1,22
 380 1367 380 1367 581 1367 c 0,23,24
 788 1367 788 1367 906 1244.5 c 128,-1,25
 1024 1122 1024 1122 1024 934 c 0,26,27
 1024 805 1024 805 981 701.5 c 128,-1,28
 938 598 938 598 831 453 c 1,29,30
 792 402 792 402 702.5 288.5 c 128,-1,31
 613 175 613 175 542 88 c 1,32,-1
 472 0 l 1,12,-1
EndSplineSet
EndUndoOperation
EndUndoes
Redoes
EndRedoes
EndUndoRedoHistory
Fore
SplineSet
581 672 m 0,0,1
 721 672 721 672 788.5 749.5 c 128,-1,2
 856 827 856 827 856 952 c 0,3,4
 856 1075 856 1075 787.5 1152 c 128,-1,5
 719 1229 719 1229 587 1229 c 0,6,7
 454 1229 454 1229 376.5 1148.5 c 128,-1,8
 299 1068 299 1068 299 947 c 0,9,10
 299 822 299 822 373.5 747 c 128,-1,11
 448 672 448 672 581 672 c 0,0,1
472 0 m 1,12,-1
 276 0 l 1,13,-1
 749 591 l 1,14,15
 648 537 648 537 549 537 c 0,16,17
 436 537 436 537 341 586.5 c 128,-1,18
 246 636 246 636 188.5 730 c 128,-1,19
 131 824 131 824 131 944 c 0,20,21
 131 1126 131 1126 255.5 1246.5 c 128,-1,22
 380 1367 380 1367 581 1367 c 0,23,24
 788 1367 788 1367 906 1244.5 c 128,-1,25
 1024 1122 1024 1122 1024 934 c 0,26,27
 1024 805 1024 805 981 701.5 c 128,-1,28
 938 598 938 598 831 453 c 1,29,30
 792 402 792 402 702.5 288.5 c 128,-1,31
 613 175 613 175 542 88 c 1,32,-1
 472 0 l 1,12,-1
EndSplineSet
EndChar

StartChar: colon
Encoding: 58 58 29
Width: 435
GlyphClass: 2
Flags: W
LayerCount: 2
UndoRedoHistory
Layer: 1
Undoes
UndoOperation
Index: 0
Type: 1
WasModified: 0
WasOrder2: 1
Width: 435
VWidth: 2048
LBearingChange: 0
UnicodeEnc: 0
InstructionsLength: 0
SplineSet
125 813 m 1,0,-1
 125 1023 l 1,1,-1
 312 1023 l 1,2,-1
 312 813 l 1,3,-1
 125 813 l 1,0,-1
125 -23 m 1,4,-1
 125 189 l 1,5,-1
 312 189 l 1,6,-1
 312 -23 l 1,7,-1
 125 -23 l 1,4,-1
EndSplineSet
EndUndoOperation
UndoOperation
Index: 1
Type: 1
WasModified: 0
WasOrder2: 1
Width: 435
VWidth: 2048
LBearingChange: 0
UnicodeEnc: 0
InstructionsLength: 0
SplineSet
125 813 m 1,0,-1
 125 1023 l 1,1,-1
 312 1023 l 1,2,-1
 312 813 l 1,3,-1
 125 813 l 1,0,-1
125 -23 m 1,4,-1
 125 189 l 1,5,-1
 312 189 l 1,6,-1
 312 -23 l 1,7,-1
 125 -23 l 1,4,-1
EndSplineSet
EndUndoOperation
EndUndoes
Redoes
EndRedoes
EndUndoRedoHistory
Fore
SplineSet
125 813 m 1,0,-1
 125 1023 l 1,1,-1
 312 1023 l 1,2,-1
 312 813 l 1,3,-1
 125 813 l 1,0,-1
125 -23 m 1,4,-1
 125 189 l 1,5,-1
 312 189 l 1,6,-1
 312 -23 l 1,7,-1
 125 -23 l 1,4,-1
EndSplineSet
EndChar

StartChar: semicolon
Encoding: 59 59 30
Width: 451
GlyphClass: 2
Flags: W
LayerCount: 2
UndoRedoHistory
Layer: 1
Undoes
UndoOperation
Index: 0
Type: 1
WasModified: 0
WasOrder2: 1
Width: 451
VWidth: 2048
LBearingChange: 0
UnicodeEnc: 0
InstructionsLength: 0
SplineSet
142 813 m 1,0,-1
 142 1023 l 1,1,-1
 329 1023 l 1,2,-1
 329 813 l 1,3,-1
 142 813 l 1,0,-1
109 -282 m 1,4,-1
 160 179 l 1,5,-1
 326 179 l 1,6,-1
 212 -282 l 1,7,-1
 109 -282 l 1,4,-1
EndSplineSet
EndUndoOperation
UndoOperation
Index: 1
Type: 1
WasModified: 0
WasOrder2: 1
Width: 451
VWidth: 2048
LBearingChange: 0
UnicodeEnc: 0
InstructionsLength: 0
SplineSet
142 813 m 1,0,-1
 142 1023 l 1,1,-1
 329 1023 l 1,2,-1
 329 813 l 1,3,-1
 142 813 l 1,0,-1
109 -282 m 1,4,-1
 160 179 l 1,5,-1
 326 179 l 1,6,-1
 212 -282 l 1,7,-1
 109 -282 l 1,4,-1
EndSplineSet
EndUndoOperation
EndUndoes
Redoes
EndRedoes
EndUndoRedoHistory
Fore
SplineSet
142 813 m 1,0,-1
 142 1023 l 1,1,-1
 329 1023 l 1,2,-1
 329 813 l 1,3,-1
 142 813 l 1,0,-1
109 -282 m 1,4,-1
 160 179 l 1,5,-1
 326 179 l 1,6,-1
 212 -282 l 1,7,-1
 109 -282 l 1,4,-1
EndSplineSet
EndChar

StartChar: less
Encoding: 60 60 31
Width: 1094
GlyphClass: 2
Flags: W
LayerCount: 2
UndoRedoHistory
Layer: 1
Undoes
UndoOperation
Index: 0
Type: 1
WasModified: 0
WasOrder2: 1
Width: 1094
VWidth: 2048
LBearingChange: 0
UnicodeEnc: 0
InstructionsLength: 0
SplineSet
976 944 m 1,0,-1
 270 599 l 1,1,-1
 974 277 l 1,2,-1
 974 133 l 1,3,-1
 102 551 l 1,4,-1
 102 639 l 1,5,-1
 976 1087 l 1,6,-1
 976 944 l 1,0,-1
EndSplineSet
EndUndoOperation
UndoOperation
Index: 1
Type: 1
WasModified: 0
WasOrder2: 1
Width: 1094
VWidth: 2048
LBearingChange: 0
UnicodeEnc: 0
InstructionsLength: 0
SplineSet
976 944 m 1,0,-1
 270 599 l 1,1,-1
 974 277 l 1,2,-1
 974 133 l 1,3,-1
 102 551 l 1,4,-1
 102 639 l 1,5,-1
 976 1087 l 1,6,-1
 976 944 l 1,0,-1
EndSplineSet
EndUndoOperation
EndUndoes
Redoes
EndRedoes
EndUndoRedoHistory
Fore
SplineSet
976 944 m 1,0,-1
 270 599 l 1,1,-1
 974 277 l 1,2,-1
 974 133 l 1,3,-1
 102 551 l 1,4,-1
 102 639 l 1,5,-1
 976 1087 l 1,6,-1
 976 944 l 1,0,-1
EndSplineSet
EndChar

StartChar: equal
Encoding: 61 61 32
Width: 1114
GlyphClass: 2
Flags: W
LayerCount: 2
UndoRedoHistory
Layer: 1
Undoes
UndoOperation
Index: 0
Type: 1
WasModified: 0
WasOrder2: 1
Width: 1114
VWidth: 2048
LBearingChange: 0
UnicodeEnc: 0
InstructionsLength: 0
SplineSet
116 727 m 1,0,-1
 116 858 l 1,1,-1
 996 858 l 1,2,-1
 996 727 l 1,3,-1
 116 727 l 1,0,-1
117 343 m 1,4,-1
 117 472 l 1,5,-1
 996 472 l 1,6,-1
 996 343 l 1,7,-1
 117 343 l 1,4,-1
EndSplineSet
EndUndoOperation
UndoOperation
Index: 1
Type: 1
WasModified: 0
WasOrder2: 1
Width: 1114
VWidth: 2048
LBearingChange: 0
UnicodeEnc: 0
InstructionsLength: 0
SplineSet
116 727 m 1,0,-1
 116 858 l 1,1,-1
 996 858 l 1,2,-1
 996 727 l 1,3,-1
 116 727 l 1,0,-1
117 343 m 1,4,-1
 117 472 l 1,5,-1
 996 472 l 1,6,-1
 996 343 l 1,7,-1
 117 343 l 1,4,-1
EndSplineSet
EndUndoOperation
EndUndoes
Redoes
EndRedoes
EndUndoRedoHistory
Fore
SplineSet
116 727 m 1,0,-1
 116 858 l 1,1,-1
 996 858 l 1,2,-1
 996 727 l 1,3,-1
 116 727 l 1,0,-1
117 343 m 1,4,-1
 117 472 l 1,5,-1
 996 472 l 1,6,-1
 996 343 l 1,7,-1
 117 343 l 1,4,-1
EndSplineSet
EndChar

StartChar: greater
Encoding: 62 62 33
Width: 1102
GlyphClass: 2
Flags: W
LayerCount: 2
UndoRedoHistory
Layer: 1
Undoes
UndoOperation
Index: 0
Type: 1
WasModified: 0
WasOrder2: 1
Width: 1102
VWidth: 2048
LBearingChange: 0
UnicodeEnc: 0
InstructionsLength: 0
SplineSet
123 1092 m 1,0,-1
 995 638 l 1,1,-1
 995 550 l 1,2,-1
 121 138 l 1,3,-1
 121 283 l 1,4,-1
 825 599 l 1,5,-1
 123 950 l 1,6,-1
 123 1092 l 1,0,-1
EndSplineSet
EndUndoOperation
UndoOperation
Index: 1
Type: 1
WasModified: 0
WasOrder2: 1
Width: 1102
VWidth: 2048
LBearingChange: 0
UnicodeEnc: 0
InstructionsLength: 0
SplineSet
123 1092 m 1,0,-1
 995 638 l 1,1,-1
 995 550 l 1,2,-1
 121 138 l 1,3,-1
 121 283 l 1,4,-1
 825 599 l 1,5,-1
 123 950 l 1,6,-1
 123 1092 l 1,0,-1
EndSplineSet
EndUndoOperation
EndUndoes
Redoes
EndRedoes
EndUndoRedoHistory
Fore
SplineSet
123 1092 m 1,0,-1
 995 638 l 1,1,-1
 995 550 l 1,2,-1
 121 138 l 1,3,-1
 121 283 l 1,4,-1
 825 599 l 1,5,-1
 123 950 l 1,6,-1
 123 1092 l 1,0,-1
EndSplineSet
EndChar

StartChar: question
Encoding: 63 63 34
Width: 819
GlyphClass: 2
Flags: W
LayerCount: 2
UndoRedoHistory
Layer: 1
Undoes
UndoOperation
Index: 0
Type: 1
WasModified: 0
WasOrder2: 1
Width: 819
VWidth: 2048
LBearingChange: 0
UnicodeEnc: 0
InstructionsLength: 0
SplineSet
359 -11 m 128,-1,1
 302 -11 302 -11 270 24.5 c 128,-1,2
 238 60 238 60 238 109 c 128,-1,3
 238 158 238 158 270 193.5 c 128,-1,4
 302 229 302 229 359 229 c 128,-1,5
 416 229 416 229 448 193.5 c 128,-1,6
 480 158 480 158 480 109 c 128,-1,7
 480 60 480 60 448 24.5 c 128,-1,0
 416 -11 416 -11 359 -11 c 128,-1,1
386 396 m 1,8,-1
 307 396 l 1,9,10
 307 467 307 467 347.5 567 c 128,-1,11
 388 667 388 667 436.5 750 c 128,-1,12
 485 833 485 833 525.5 926.5 c 128,-1,13
 566 1020 566 1020 566 1079 c 0,14,15
 565 1166 565 1166 510.5 1207.5 c 128,-1,16
 456 1249 456 1249 361 1249 c 0,17,18
 245 1249 245 1249 126 1176 c 1,19,-1
 85 1299 l 1,20,21
 196 1387 196 1387 386 1387 c 0,22,23
 533 1387 533 1387 623.5 1309 c 128,-1,24
 714 1231 714 1231 714 1092 c 0,25,26
 714 1006 714 1006 680.5 919.5 c 128,-1,27
 647 833 647 833 602.5 767.5 c 128,-1,28
 558 702 558 702 493.5 597 c 128,-1,29
 429 492 429 492 386 396 c 1,8,-1
EndSplineSet
EndUndoOperation
UndoOperation
Index: 1
Type: 1
WasModified: 0
WasOrder2: 1
Width: 819
VWidth: 2048
LBearingChange: 0
UnicodeEnc: 0
InstructionsLength: 0
SplineSet
359 -11 m 128,-1,1
 302 -11 302 -11 270 24.5 c 128,-1,2
 238 60 238 60 238 109 c 128,-1,3
 238 158 238 158 270 193.5 c 128,-1,4
 302 229 302 229 359 229 c 128,-1,5
 416 229 416 229 448 193.5 c 128,-1,6
 480 158 480 158 480 109 c 128,-1,7
 480 60 480 60 448 24.5 c 128,-1,0
 416 -11 416 -11 359 -11 c 128,-1,1
386 396 m 1,8,-1
 307 396 l 1,9,10
 307 467 307 467 347.5 567 c 128,-1,11
 388 667 388 667 436.5 750 c 128,-1,12
 485 833 485 833 525.5 926.5 c 128,-1,13
 566 1020 566 1020 566 1079 c 0,14,15
 565 1166 565 1166 510.5 1207.5 c 128,-1,16
 456 1249 456 1249 361 1249 c 0,17,18
 245 1249 245 1249 126 1176 c 1,19,-1
 85 1299 l 1,20,21
 196 1387 196 1387 386 1387 c 0,22,23
 533 1387 533 1387 623.5 1309 c 128,-1,24
 714 1231 714 1231 714 1092 c 0,25,26
 714 1006 714 1006 680.5 919.5 c 128,-1,27
 647 833 647 833 602.5 767.5 c 128,-1,28
 558 702 558 702 493.5 597 c 128,-1,29
 429 492 429 492 386 396 c 1,8,-1
EndSplineSet
EndUndoOperation
EndUndoes
Redoes
EndRedoes
EndUndoRedoHistory
Fore
SplineSet
359 -11 m 128,-1,1
 302 -11 302 -11 270 24.5 c 128,-1,2
 238 60 238 60 238 109 c 128,-1,3
 238 158 238 158 270 193.5 c 128,-1,4
 302 229 302 229 359 229 c 128,-1,5
 416 229 416 229 448 193.5 c 128,-1,6
 480 158 480 158 480 109 c 128,-1,7
 480 60 480 60 448 24.5 c 128,-1,0
 416 -11 416 -11 359 -11 c 128,-1,1
386 396 m 1,8,-1
 307 396 l 1,9,10
 307 467 307 467 347.5 567 c 128,-1,11
 388 667 388 667 436.5 750 c 128,-1,12
 485 833 485 833 525.5 926.5 c 128,-1,13
 566 1020 566 1020 566 1079 c 0,14,15
 565 1166 565 1166 510.5 1207.5 c 128,-1,16
 456 1249 456 1249 361 1249 c 0,17,18
 245 1249 245 1249 126 1176 c 1,19,-1
 85 1299 l 1,20,21
 196 1387 196 1387 386 1387 c 0,22,23
 533 1387 533 1387 623.5 1309 c 128,-1,24
 714 1231 714 1231 714 1092 c 0,25,26
 714 1006 714 1006 680.5 919.5 c 128,-1,27
 647 833 647 833 602.5 767.5 c 128,-1,28
 558 702 558 702 493.5 597 c 128,-1,29
 429 492 429 492 386 396 c 1,8,-1
EndSplineSet
EndChar

StartChar: at
Encoding: 64 64 35
Width: 1634
GlyphClass: 2
Flags: W
LayerCount: 2
UndoRedoHistory
Layer: 1
Undoes
UndoOperation
Index: 0
Type: 1
WasModified: 0
WasOrder2: 1
Width: 1634
VWidth: 2048
LBearingChange: 0
UnicodeEnc: 0
InstructionsLength: 0
SplineSet
757 360 m 0,0,1
 853 360 853 360 903.5 440 c 128,-1,2
 954 520 954 520 972 664 c 0,3,4
 984 758 984 758 996 872 c 1,5,6
 945 890 945 890 863 890 c 0,7,8
 739 890 739 890 675 795 c 128,-1,9
 611 700 611 700 611 554 c 0,10,11
 611 464 611 464 647.5 412 c 128,-1,12
 684 360 684 360 757 360 c 0,0,1
797 -119 m 0,13,14
 478 -119 478 -119 285.5 71 c 128,-1,15
 93 261 93 261 93 587 c 0,16,17
 93 804 93 804 189.5 980 c 128,-1,18
 286 1156 286 1156 461 1257 c 128,-1,19
 636 1358 636 1358 857 1358 c 0,20,21
 1051 1358 1051 1358 1206.5 1279.5 c 128,-1,22
 1362 1201 1362 1201 1452 1053 c 128,-1,23
 1542 905 1542 905 1542 713 c 0,24,25
 1542 606 1542 606 1509.5 514.5 c 128,-1,26
 1477 423 1477 423 1424 363 c 128,-1,27
 1371 303 1371 303 1304 269.5 c 128,-1,28
 1237 236 1237 236 1166 236 c 0,29,30
 1092 236 1092 236 1043 277 c 128,-1,31
 994 318 994 318 984 391 c 1,32,33
 943 333 943 333 881 288.5 c 128,-1,34
 819 244 819 244 740 244 c 0,35,36
 622 244 622 244 551.5 329.5 c 128,-1,37
 481 415 481 415 481 561 c 0,38,39
 481 683 481 683 524 781.5 c 128,-1,40
 567 880 567 880 655 940 c 128,-1,41
 743 1000 743 1000 862 1000 c 0,42,43
 990 1000 990 1000 1138 950 c 1,44,45
 1132 909 1132 909 1113.5 785.5 c 128,-1,46
 1095 662 1095 662 1087 594 c 128,-1,47
 1079 526 1079 526 1079 476 c 0,48,49
 1079 347 1079 347 1180 347 c 0,50,51
 1271 347 1271 347 1346.5 456.5 c 128,-1,52
 1422 566 1422 566 1422 720 c 0,53,54
 1422 881 1422 881 1348 1001 c 128,-1,55
 1274 1121 1274 1121 1144.5 1183 c 128,-1,56
 1015 1245 1015 1245 849 1245 c 0,57,58
 666 1245 666 1245 521 1160.5 c 128,-1,59
 376 1076 376 1076 295.5 927 c 128,-1,60
 215 778 215 778 215 591 c 0,61,62
 215 312 215 312 374 153.5 c 128,-1,63
 533 -5 533 -5 798 -5 c 0,64,65
 1024 -5 1024 -5 1204 98 c 1,66,-1
 1236 -3 l 1,67,68
 1063 -119 1063 -119 797 -119 c 0,13,14
EndSplineSet
EndUndoOperation
UndoOperation
Index: 1
Type: 1
WasModified: 0
WasOrder2: 1
Width: 1634
VWidth: 2048
LBearingChange: 0
UnicodeEnc: 0
InstructionsLength: 0
SplineSet
757 360 m 0,0,1
 853 360 853 360 903.5 440 c 128,-1,2
 954 520 954 520 972 664 c 0,3,4
 984 758 984 758 996 872 c 1,5,6
 945 890 945 890 863 890 c 0,7,8
 739 890 739 890 675 795 c 128,-1,9
 611 700 611 700 611 554 c 0,10,11
 611 464 611 464 647.5 412 c 128,-1,12
 684 360 684 360 757 360 c 0,0,1
797 -119 m 0,13,14
 478 -119 478 -119 285.5 71 c 128,-1,15
 93 261 93 261 93 587 c 0,16,17
 93 804 93 804 189.5 980 c 128,-1,18
 286 1156 286 1156 461 1257 c 128,-1,19
 636 1358 636 1358 857 1358 c 0,20,21
 1051 1358 1051 1358 1206.5 1279.5 c 128,-1,22
 1362 1201 1362 1201 1452 1053 c 128,-1,23
 1542 905 1542 905 1542 713 c 0,24,25
 1542 606 1542 606 1509.5 514.5 c 128,-1,26
 1477 423 1477 423 1424 363 c 128,-1,27
 1371 303 1371 303 1304 269.5 c 128,-1,28
 1237 236 1237 236 1166 236 c 0,29,30
 1092 236 1092 236 1043 277 c 128,-1,31
 994 318 994 318 984 391 c 1,32,33
 943 333 943 333 881 288.5 c 128,-1,34
 819 244 819 244 740 244 c 0,35,36
 622 244 622 244 551.5 329.5 c 128,-1,37
 481 415 481 415 481 561 c 0,38,39
 481 683 481 683 524 781.5 c 128,-1,40
 567 880 567 880 655 940 c 128,-1,41
 743 1000 743 1000 862 1000 c 0,42,43
 990 1000 990 1000 1138 950 c 1,44,45
 1132 909 1132 909 1113.5 785.5 c 128,-1,46
 1095 662 1095 662 1087 594 c 128,-1,47
 1079 526 1079 526 1079 476 c 0,48,49
 1079 347 1079 347 1180 347 c 0,50,51
 1271 347 1271 347 1346.5 456.5 c 128,-1,52
 1422 566 1422 566 1422 720 c 0,53,54
 1422 881 1422 881 1348 1001 c 128,-1,55
 1274 1121 1274 1121 1144.5 1183 c 128,-1,56
 1015 1245 1015 1245 849 1245 c 0,57,58
 666 1245 666 1245 521 1160.5 c 128,-1,59
 376 1076 376 1076 295.5 927 c 128,-1,60
 215 778 215 778 215 591 c 0,61,62
 215 312 215 312 374 153.5 c 128,-1,63
 533 -5 533 -5 798 -5 c 0,64,65
 1024 -5 1024 -5 1204 98 c 1,66,-1
 1236 -3 l 1,67,68
 1063 -119 1063 -119 797 -119 c 0,13,14
EndSplineSet
EndUndoOperation
EndUndoes
Redoes
EndRedoes
EndUndoRedoHistory
Fore
SplineSet
757 360 m 0,0,1
 853 360 853 360 903.5 440 c 128,-1,2
 954 520 954 520 972 664 c 0,3,4
 984 758 984 758 996 872 c 1,5,6
 945 890 945 890 863 890 c 0,7,8
 739 890 739 890 675 795 c 128,-1,9
 611 700 611 700 611 554 c 0,10,11
 611 464 611 464 647.5 412 c 128,-1,12
 684 360 684 360 757 360 c 0,0,1
797 -119 m 0,13,14
 478 -119 478 -119 285.5 71 c 128,-1,15
 93 261 93 261 93 587 c 0,16,17
 93 804 93 804 189.5 980 c 128,-1,18
 286 1156 286 1156 461 1257 c 128,-1,19
 636 1358 636 1358 857 1358 c 0,20,21
 1051 1358 1051 1358 1206.5 1279.5 c 128,-1,22
 1362 1201 1362 1201 1452 1053 c 128,-1,23
 1542 905 1542 905 1542 713 c 0,24,25
 1542 606 1542 606 1509.5 514.5 c 128,-1,26
 1477 423 1477 423 1424 363 c 128,-1,27
 1371 303 1371 303 1304 269.5 c 128,-1,28
 1237 236 1237 236 1166 236 c 0,29,30
 1092 236 1092 236 1043 277 c 128,-1,31
 994 318 994 318 984 391 c 1,32,33
 943 333 943 333 881 288.5 c 128,-1,34
 819 244 819 244 740 244 c 0,35,36
 622 244 622 244 551.5 329.5 c 128,-1,37
 481 415 481 415 481 561 c 0,38,39
 481 683 481 683 524 781.5 c 128,-1,40
 567 880 567 880 655 940 c 128,-1,41
 743 1000 743 1000 862 1000 c 0,42,43
 990 1000 990 1000 1138 950 c 1,44,45
 1132 909 1132 909 1113.5 785.5 c 128,-1,46
 1095 662 1095 662 1087 594 c 128,-1,47
 1079 526 1079 526 1079 476 c 0,48,49
 1079 347 1079 347 1180 347 c 0,50,51
 1271 347 1271 347 1346.5 456.5 c 128,-1,52
 1422 566 1422 566 1422 720 c 0,53,54
 1422 881 1422 881 1348 1001 c 128,-1,55
 1274 1121 1274 1121 1144.5 1183 c 128,-1,56
 1015 1245 1015 1245 849 1245 c 0,57,58
 666 1245 666 1245 521 1160.5 c 128,-1,59
 376 1076 376 1076 295.5 927 c 128,-1,60
 215 778 215 778 215 591 c 0,61,62
 215 312 215 312 374 153.5 c 128,-1,63
 533 -5 533 -5 798 -5 c 0,64,65
 1024 -5 1024 -5 1204 98 c 1,66,-1
 1236 -3 l 1,67,68
 1063 -119 1063 -119 797 -119 c 0,13,14
EndSplineSet
EndChar

StartChar: A
Encoding: 65 65 36
Width: 1283
GlyphClass: 2
Flags: W
LayerCount: 2
UndoRedoHistory
Layer: 1
Undoes
UndoOperation
Index: 0
Type: 1
WasModified: 0
WasOrder2: 1
Width: 1283
VWidth: 2048
LBearingChange: 0
UnicodeEnc: 0
InstructionsLength: 0
SplineSet
37 0 m 1,0,-1
 541 1390 l 1,1,-1
 743 1390 l 1,2,-1
 1246 0 l 1,3,-1
 1078 0 l 1,4,-1
 919 430 l 1,5,-1
 375 430 l 1,6,-1
 215 0 l 1,7,-1
 37 0 l 1,0,-1
426 561 m 1,8,-1
 870 561 l 1,9,-1
 641 1223 l 1,10,-1
 426 561 l 1,8,-1
EndSplineSet
EndUndoOperation
UndoOperation
Index: 1
Type: 1
WasModified: 0
WasOrder2: 1
Width: 1283
VWidth: 2048
LBearingChange: 0
UnicodeEnc: 0
InstructionsLength: 0
SplineSet
37 0 m 1,0,-1
 541 1390 l 1,1,-1
 743 1390 l 1,2,-1
 1246 0 l 1,3,-1
 1078 0 l 1,4,-1
 919 430 l 1,5,-1
 375 430 l 1,6,-1
 215 0 l 1,7,-1
 37 0 l 1,0,-1
426 561 m 1,8,-1
 870 561 l 1,9,-1
 641 1223 l 1,10,-1
 426 561 l 1,8,-1
EndSplineSet
EndUndoOperation
EndUndoes
Redoes
EndRedoes
EndUndoRedoHistory
Fore
SplineSet
37 0 m 1,0,-1
 541 1390 l 1,1,-1
 743 1390 l 1,2,-1
 1246 0 l 1,3,-1
 1078 0 l 1,4,-1
 919 430 l 1,5,-1
 375 430 l 1,6,-1
 215 0 l 1,7,-1
 37 0 l 1,0,-1
426 561 m 1,8,-1
 870 561 l 1,9,-1
 641 1223 l 1,10,-1
 426 561 l 1,8,-1
EndSplineSet
EndChar

StartChar: B
Encoding: 66 66 37
Width: 1235
GlyphClass: 2
Flags: W
LayerCount: 2
UndoRedoHistory
Layer: 1
Undoes
UndoOperation
Index: 0
Type: 1
WasModified: 0
WasOrder2: 1
Width: 1235
VWidth: 2048
LBearingChange: 0
UnicodeEnc: 0
InstructionsLength: 0
SplineSet
339 797 m 1,0,-1
 632 797 l 2,1,2
 773 797 773 797 848 850.5 c 128,-1,3
 923 904 923 904 923 1031 c 128,-1,4
 923 1158 923 1158 835 1207.5 c 128,-1,5
 747 1257 747 1257 563 1257 c 2,6,-1
 339 1257 l 1,7,-1
 339 797 l 1,0,-1
339 129 m 1,8,-1
 625 129 l 2,9,10
 796 129 796 129 885 205.5 c 128,-1,11
 974 282 974 282 974 419 c 0,12,13
 974 558 974 558 880 614.5 c 128,-1,14
 786 671 786 671 587 671 c 2,15,-1
 339 671 l 1,16,-1
 339 129 l 1,8,-1
178 0 m 1,17,-1
 178 1390 l 1,18,-1
 571 1390 l 2,19,20
 835 1390 835 1390 963 1309.5 c 128,-1,21
 1091 1229 1091 1229 1091 1055 c 0,22,23
 1091 1029 1091 1029 1088 1003 c 128,-1,24
 1085 977 1085 977 1071 936 c 128,-1,25
 1057 895 1057 895 1034 861.5 c 128,-1,26
 1011 828 1011 828 966 795 c 128,-1,27
 921 762 921 762 861 743 c 1,28,29
 999 718 999 718 1070.5 628.5 c 128,-1,30
 1142 539 1142 539 1142 413 c 0,31,32
 1142 227 1142 227 1018 113.5 c 128,-1,33
 894 0 894 0 657 0 c 2,34,-1
 178 0 l 1,17,-1
EndSplineSet
EndUndoOperation
UndoOperation
Index: 1
Type: 1
WasModified: 0
WasOrder2: 1
Width: 1235
VWidth: 2048
LBearingChange: 0
UnicodeEnc: 0
InstructionsLength: 0
SplineSet
339 797 m 1,0,-1
 632 797 l 2,1,2
 773 797 773 797 848 850.5 c 128,-1,3
 923 904 923 904 923 1031 c 128,-1,4
 923 1158 923 1158 835 1207.5 c 128,-1,5
 747 1257 747 1257 563 1257 c 2,6,-1
 339 1257 l 1,7,-1
 339 797 l 1,0,-1
339 129 m 1,8,-1
 625 129 l 2,9,10
 796 129 796 129 885 205.5 c 128,-1,11
 974 282 974 282 974 419 c 0,12,13
 974 558 974 558 880 614.5 c 128,-1,14
 786 671 786 671 587 671 c 2,15,-1
 339 671 l 1,16,-1
 339 129 l 1,8,-1
178 0 m 1,17,-1
 178 1390 l 1,18,-1
 571 1390 l 2,19,20
 835 1390 835 1390 963 1309.5 c 128,-1,21
 1091 1229 1091 1229 1091 1055 c 0,22,23
 1091 1029 1091 1029 1088 1003 c 128,-1,24
 1085 977 1085 977 1071 936 c 128,-1,25
 1057 895 1057 895 1034 861.5 c 128,-1,26
 1011 828 1011 828 966 795 c 128,-1,27
 921 762 921 762 861 743 c 1,28,29
 999 718 999 718 1070.5 628.5 c 128,-1,30
 1142 539 1142 539 1142 413 c 0,31,32
 1142 227 1142 227 1018 113.5 c 128,-1,33
 894 0 894 0 657 0 c 2,34,-1
 178 0 l 1,17,-1
EndSplineSet
EndUndoOperation
EndUndoes
Redoes
EndRedoes
EndUndoRedoHistory
Fore
SplineSet
339 797 m 1,0,-1
 632 797 l 2,1,2
 773 797 773 797 848 850.5 c 128,-1,3
 923 904 923 904 923 1031 c 128,-1,4
 923 1158 923 1158 835 1207.5 c 128,-1,5
 747 1257 747 1257 563 1257 c 2,6,-1
 339 1257 l 1,7,-1
 339 797 l 1,0,-1
339 129 m 1,8,-1
 625 129 l 2,9,10
 796 129 796 129 885 205.5 c 128,-1,11
 974 282 974 282 974 419 c 0,12,13
 974 558 974 558 880 614.5 c 128,-1,14
 786 671 786 671 587 671 c 2,15,-1
 339 671 l 1,16,-1
 339 129 l 1,8,-1
178 0 m 1,17,-1
 178 1390 l 1,18,-1
 571 1390 l 2,19,20
 835 1390 835 1390 963 1309.5 c 128,-1,21
 1091 1229 1091 1229 1091 1055 c 0,22,23
 1091 1029 1091 1029 1088 1003 c 128,-1,24
 1085 977 1085 977 1071 936 c 128,-1,25
 1057 895 1057 895 1034 861.5 c 128,-1,26
 1011 828 1011 828 966 795 c 128,-1,27
 921 762 921 762 861 743 c 1,28,29
 999 718 999 718 1070.5 628.5 c 128,-1,30
 1142 539 1142 539 1142 413 c 0,31,32
 1142 227 1142 227 1018 113.5 c 128,-1,33
 894 0 894 0 657 0 c 2,34,-1
 178 0 l 1,17,-1
EndSplineSet
EndChar

StartChar: C
Encoding: 67 67 38
Width: 1252
GlyphClass: 2
Flags: W
LayerCount: 2
UndoRedoHistory
Layer: 1
Undoes
UndoOperation
Index: 0
Type: 1
WasModified: 0
WasOrder2: 1
Width: 1252
VWidth: 2048
LBearingChange: 0
UnicodeEnc: 0
InstructionsLength: 0
SplineSet
743 -18 m 1,0,1
 550 -15 550 -15 403.5 84 c 128,-1,2
 257 183 257 183 180 350 c 128,-1,3
 103 517 103 517 103 725 c 0,4,5
 103 928 103 928 181 1083 c 128,-1,6
 259 1238 259 1238 409 1325.5 c 128,-1,7
 559 1413 559 1413 761 1413 c 0,8,9
 993 1413 993 1413 1151 1313 c 1,10,-1
 1097 1189 l 1,11,12
 952 1275 952 1275 763 1275 c 0,13,14
 532 1275 532 1275 403.5 1120.5 c 128,-1,15
 275 966 275 966 275 719 c 0,16,17
 275 623 275 623 294.5 535 c 128,-1,18
 314 447 314 447 355 371 c 128,-1,19
 396 295 396 295 455 239.5 c 128,-1,20
 514 184 514 184 597 152 c 128,-1,21
 680 120 680 120 779 120 c 0,22,23
 945 120 945 120 1105 196 c 1,24,-1
 1131 68 l 1,25,26
 1076 34 1076 34 969 8 c 128,-1,27
 862 -18 862 -18 743 -18 c 1,0,1
EndSplineSet
EndUndoOperation
UndoOperation
Index: 1
Type: 1
WasModified: 0
WasOrder2: 1
Width: 1252
VWidth: 2048
LBearingChange: 0
UnicodeEnc: 0
InstructionsLength: 0
SplineSet
743 -18 m 1,0,1
 550 -15 550 -15 403.5 84 c 128,-1,2
 257 183 257 183 180 350 c 128,-1,3
 103 517 103 517 103 725 c 0,4,5
 103 928 103 928 181 1083 c 128,-1,6
 259 1238 259 1238 409 1325.5 c 128,-1,7
 559 1413 559 1413 761 1413 c 0,8,9
 993 1413 993 1413 1151 1313 c 1,10,-1
 1097 1189 l 1,11,12
 952 1275 952 1275 763 1275 c 0,13,14
 532 1275 532 1275 403.5 1120.5 c 128,-1,15
 275 966 275 966 275 719 c 0,16,17
 275 623 275 623 294.5 535 c 128,-1,18
 314 447 314 447 355 371 c 128,-1,19
 396 295 396 295 455 239.5 c 128,-1,20
 514 184 514 184 597 152 c 128,-1,21
 680 120 680 120 779 120 c 0,22,23
 945 120 945 120 1105 196 c 1,24,-1
 1131 68 l 1,25,26
 1076 34 1076 34 969 8 c 128,-1,27
 862 -18 862 -18 743 -18 c 1,0,1
EndSplineSet
EndUndoOperation
EndUndoes
Redoes
EndRedoes
EndUndoRedoHistory
Fore
SplineSet
743 -18 m 1,0,1
 550 -15 550 -15 403.5 84 c 128,-1,2
 257 183 257 183 180 350 c 128,-1,3
 103 517 103 517 103 725 c 0,4,5
 103 928 103 928 181 1083 c 128,-1,6
 259 1238 259 1238 409 1325.5 c 128,-1,7
 559 1413 559 1413 761 1413 c 0,8,9
 993 1413 993 1413 1151 1313 c 1,10,-1
 1097 1189 l 1,11,12
 952 1275 952 1275 763 1275 c 0,13,14
 532 1275 532 1275 403.5 1120.5 c 128,-1,15
 275 966 275 966 275 719 c 0,16,17
 275 623 275 623 294.5 535 c 128,-1,18
 314 447 314 447 355 371 c 128,-1,19
 396 295 396 295 455 239.5 c 128,-1,20
 514 184 514 184 597 152 c 128,-1,21
 680 120 680 120 779 120 c 0,22,23
 945 120 945 120 1105 196 c 1,24,-1
 1131 68 l 1,25,26
 1076 34 1076 34 969 8 c 128,-1,27
 862 -18 862 -18 743 -18 c 1,0,1
EndSplineSet
EndChar

StartChar: D
Encoding: 68 68 39
Width: 1410
GlyphClass: 2
Flags: W
LayerCount: 2
UndoRedoHistory
Layer: 1
Undoes
UndoOperation
Index: 0
Type: 1
WasModified: 0
WasOrder2: 1
Width: 1410
VWidth: 2048
LBearingChange: 0
UnicodeEnc: 0
InstructionsLength: 0
SplineSet
178 0 m 1,0,-1
 178 1390 l 1,1,-1
 558 1390 l 2,2,3
 728 1390 728 1390 865 1347 c 128,-1,4
 1002 1304 1002 1304 1101 1220 c 128,-1,5
 1200 1136 1200 1136 1253.5 1003 c 128,-1,6
 1307 870 1307 870 1307 698 c 0,7,8
 1307 366 1307 366 1115.5 183 c 128,-1,9
 924 0 924 0 586 0 c 2,10,-1
 178 0 l 1,0,-1
356 1252 m 1,11,-1
 356 137 l 1,12,-1
 581 137 l 2,13,14
 848 137 848 137 988.5 282 c 128,-1,15
 1129 427 1129 427 1129 694 c 0,16,17
 1129 1252 1129 1252 554 1252 c 2,18,-1
 356 1252 l 1,11,-1
EndSplineSet
EndUndoOperation
UndoOperation
Index: 1
Type: 1
WasModified: 0
WasOrder2: 1
Width: 1410
VWidth: 2048
LBearingChange: 0
UnicodeEnc: 0
InstructionsLength: 0
SplineSet
178 0 m 1,0,-1
 178 1390 l 1,1,-1
 558 1390 l 2,2,3
 728 1390 728 1390 865 1347 c 128,-1,4
 1002 1304 1002 1304 1101 1220 c 128,-1,5
 1200 1136 1200 1136 1253.5 1003 c 128,-1,6
 1307 870 1307 870 1307 698 c 0,7,8
 1307 366 1307 366 1115.5 183 c 128,-1,9
 924 0 924 0 586 0 c 2,10,-1
 178 0 l 1,0,-1
356 1252 m 1,11,-1
 356 137 l 1,12,-1
 581 137 l 2,13,14
 848 137 848 137 988.5 282 c 128,-1,15
 1129 427 1129 427 1129 694 c 0,16,17
 1129 1252 1129 1252 554 1252 c 2,18,-1
 356 1252 l 1,11,-1
EndSplineSet
EndUndoOperation
EndUndoes
Redoes
EndRedoes
EndUndoRedoHistory
Fore
SplineSet
178 0 m 1,0,-1
 178 1390 l 1,1,-1
 558 1390 l 2,2,3
 728 1390 728 1390 865 1347 c 128,-1,4
 1002 1304 1002 1304 1101 1220 c 128,-1,5
 1200 1136 1200 1136 1253.5 1003 c 128,-1,6
 1307 870 1307 870 1307 698 c 0,7,8
 1307 366 1307 366 1115.5 183 c 128,-1,9
 924 0 924 0 586 0 c 2,10,-1
 178 0 l 1,0,-1
356 1252 m 1,11,-1
 356 137 l 1,12,-1
 581 137 l 2,13,14
 848 137 848 137 988.5 282 c 128,-1,15
 1129 427 1129 427 1129 694 c 0,16,17
 1129 1252 1129 1252 554 1252 c 2,18,-1
 356 1252 l 1,11,-1
EndSplineSet
EndChar

StartChar: E
Encoding: 69 69 40
Width: 1114
GlyphClass: 2
Flags: W
LayerCount: 2
UndoRedoHistory
Layer: 1
Undoes
UndoOperation
Index: 0
Type: 1
WasModified: 0
WasOrder2: 1
Width: 1114
VWidth: 2048
LBearingChange: 0
UnicodeEnc: 0
InstructionsLength: 0
SplineSet
356 1251 m 1,0,-1
 356 799 l 1,1,-1
 936 799 l 1,2,-1
 936 662 l 1,3,-1
 356 662 l 1,4,-1
 356 139 l 1,5,-1
 996 139 l 1,6,-1
 988 0 l 1,7,-1
 178 0 l 1,8,-1
 178 1390 l 1,9,-1
 996 1390 l 1,10,-1
 989 1251 l 1,11,-1
 356 1251 l 1,0,-1
EndSplineSet
EndUndoOperation
UndoOperation
Index: 1
Type: 1
WasModified: 0
WasOrder2: 1
Width: 1114
VWidth: 2048
LBearingChange: 0
UnicodeEnc: 0
InstructionsLength: 0
SplineSet
356 1251 m 1,0,-1
 356 799 l 1,1,-1
 936 799 l 1,2,-1
 936 662 l 1,3,-1
 356 662 l 1,4,-1
 356 139 l 1,5,-1
 996 139 l 1,6,-1
 988 0 l 1,7,-1
 178 0 l 1,8,-1
 178 1390 l 1,9,-1
 996 1390 l 1,10,-1
 989 1251 l 1,11,-1
 356 1251 l 1,0,-1
EndSplineSet
EndUndoOperation
EndUndoes
Redoes
EndRedoes
EndUndoRedoHistory
Fore
SplineSet
356 1251 m 1,0,-1
 356 799 l 1,1,-1
 936 799 l 1,2,-1
 936 662 l 1,3,-1
 356 662 l 1,4,-1
 356 139 l 1,5,-1
 996 139 l 1,6,-1
 988 0 l 1,7,-1
 178 0 l 1,8,-1
 178 1390 l 1,9,-1
 996 1390 l 1,10,-1
 989 1251 l 1,11,-1
 356 1251 l 1,0,-1
EndSplineSet
EndChar

StartChar: F
Encoding: 70 70 41
Width: 1027
GlyphClass: 2
Flags: W
LayerCount: 2
UndoRedoHistory
Layer: 1
Undoes
UndoOperation
Index: 0
Type: 1
WasModified: 0
WasOrder2: 1
Width: 1027
VWidth: 2048
LBearingChange: 0
UnicodeEnc: 0
InstructionsLength: 0
SplineSet
357 1251 m 1,0,-1
 357 790 l 1,1,-1
 891 790 l 1,2,-1
 891 657 l 1,3,-1
 357 657 l 1,4,-1
 357 0 l 1,5,-1
 178 0 l 1,6,-1
 178 1390 l 1,7,-1
 957 1390 l 1,8,-1
 946 1251 l 1,9,-1
 357 1251 l 1,0,-1
EndSplineSet
EndUndoOperation
UndoOperation
Index: 1
Type: 1
WasModified: 0
WasOrder2: 1
Width: 1027
VWidth: 2048
LBearingChange: 0
UnicodeEnc: 0
InstructionsLength: 0
SplineSet
357 1251 m 1,0,-1
 357 790 l 1,1,-1
 891 790 l 1,2,-1
 891 657 l 1,3,-1
 357 657 l 1,4,-1
 357 0 l 1,5,-1
 178 0 l 1,6,-1
 178 1390 l 1,7,-1
 957 1390 l 1,8,-1
 946 1251 l 1,9,-1
 357 1251 l 1,0,-1
EndSplineSet
EndUndoOperation
EndUndoes
Redoes
EndRedoes
EndUndoRedoHistory
Fore
SplineSet
357 1251 m 1,0,-1
 357 790 l 1,1,-1
 891 790 l 1,2,-1
 891 657 l 1,3,-1
 357 657 l 1,4,-1
 357 0 l 1,5,-1
 178 0 l 1,6,-1
 178 1390 l 1,7,-1
 957 1390 l 1,8,-1
 946 1251 l 1,9,-1
 357 1251 l 1,0,-1
EndSplineSet
EndChar

StartChar: G
Encoding: 71 71 42
Width: 1425
GlyphClass: 2
Flags: W
LayerCount: 2
UndoRedoHistory
Layer: 1
Undoes
UndoOperation
Index: 0
Type: 1
WasModified: 0
WasOrder2: 1
Width: 1425
VWidth: 2048
LBearingChange: 0
UnicodeEnc: 0
InstructionsLength: 0
SplineSet
768 -18 m 0,0,1
 600 -18 600 -18 471 36 c 128,-1,2
 342 90 342 90 262.5 187 c 128,-1,3
 183 284 183 284 143 411.5 c 128,-1,4
 103 539 103 539 103 692 c 0,5,6
 103 847 103 847 145 976.5 c 128,-1,7
 187 1106 187 1106 270.5 1204.5 c 128,-1,8
 354 1303 354 1303 489 1358 c 128,-1,9
 624 1413 624 1413 800 1413 c 0,10,11
 927 1413 927 1413 1043.5 1386.5 c 128,-1,12
 1160 1360 1160 1360 1242 1307 c 1,13,-1
 1192 1185 l 1,14,15
 1020 1275 1020 1275 800 1275 c 0,16,17
 690 1275 690 1275 602 1245 c 128,-1,18
 514 1215 514 1215 455 1162 c 128,-1,19
 396 1109 396 1109 356 1034.5 c 128,-1,20
 316 960 316 960 298.5 875 c 128,-1,21
 281 790 281 790 281 692 c 0,22,23
 281 565 281 565 310 462.5 c 128,-1,24
 339 360 339 360 398 282.5 c 128,-1,25
 457 205 457 205 553.5 162.5 c 128,-1,26
 650 120 650 120 778 120 c 0,27,28
 861 120 861 120 957 128 c 128,-1,29
 1053 136 1053 136 1095 147 c 1,30,-1
 1095 579 l 1,31,-1
 766 579 l 1,32,-1
 774 716 l 1,33,-1
 1273 716 l 1,34,-1
 1273 59 l 1,35,36
 1073 -18 1073 -18 768 -18 c 0,0,1
EndSplineSet
EndUndoOperation
UndoOperation
Index: 1
Type: 1
WasModified: 0
WasOrder2: 1
Width: 1425
VWidth: 2048
LBearingChange: 0
UnicodeEnc: 0
InstructionsLength: 0
SplineSet
768 -18 m 0,0,1
 600 -18 600 -18 471 36 c 128,-1,2
 342 90 342 90 262.5 187 c 128,-1,3
 183 284 183 284 143 411.5 c 128,-1,4
 103 539 103 539 103 692 c 0,5,6
 103 847 103 847 145 976.5 c 128,-1,7
 187 1106 187 1106 270.5 1204.5 c 128,-1,8
 354 1303 354 1303 489 1358 c 128,-1,9
 624 1413 624 1413 800 1413 c 0,10,11
 927 1413 927 1413 1043.5 1386.5 c 128,-1,12
 1160 1360 1160 1360 1242 1307 c 1,13,-1
 1192 1185 l 1,14,15
 1020 1275 1020 1275 800 1275 c 0,16,17
 690 1275 690 1275 602 1245 c 128,-1,18
 514 1215 514 1215 455 1162 c 128,-1,19
 396 1109 396 1109 356 1034.5 c 128,-1,20
 316 960 316 960 298.5 875 c 128,-1,21
 281 790 281 790 281 692 c 0,22,23
 281 565 281 565 310 462.5 c 128,-1,24
 339 360 339 360 398 282.5 c 128,-1,25
 457 205 457 205 553.5 162.5 c 128,-1,26
 650 120 650 120 778 120 c 0,27,28
 861 120 861 120 957 128 c 128,-1,29
 1053 136 1053 136 1095 147 c 1,30,-1
 1095 579 l 1,31,-1
 766 579 l 1,32,-1
 774 716 l 1,33,-1
 1273 716 l 1,34,-1
 1273 59 l 1,35,36
 1073 -18 1073 -18 768 -18 c 0,0,1
EndSplineSet
EndUndoOperation
EndUndoes
Redoes
EndRedoes
EndUndoRedoHistory
Fore
SplineSet
768 -18 m 0,0,1
 600 -18 600 -18 471 36 c 128,-1,2
 342 90 342 90 262.5 187 c 128,-1,3
 183 284 183 284 143 411.5 c 128,-1,4
 103 539 103 539 103 692 c 0,5,6
 103 847 103 847 145 976.5 c 128,-1,7
 187 1106 187 1106 270.5 1204.5 c 128,-1,8
 354 1303 354 1303 489 1358 c 128,-1,9
 624 1413 624 1413 800 1413 c 0,10,11
 927 1413 927 1413 1043.5 1386.5 c 128,-1,12
 1160 1360 1160 1360 1242 1307 c 1,13,-1
 1192 1185 l 1,14,15
 1020 1275 1020 1275 800 1275 c 0,16,17
 690 1275 690 1275 602 1245 c 128,-1,18
 514 1215 514 1215 455 1162 c 128,-1,19
 396 1109 396 1109 356 1034.5 c 128,-1,20
 316 960 316 960 298.5 875 c 128,-1,21
 281 790 281 790 281 692 c 0,22,23
 281 565 281 565 310 462.5 c 128,-1,24
 339 360 339 360 398 282.5 c 128,-1,25
 457 205 457 205 553.5 162.5 c 128,-1,26
 650 120 650 120 778 120 c 0,27,28
 861 120 861 120 957 128 c 128,-1,29
 1053 136 1053 136 1095 147 c 1,30,-1
 1095 579 l 1,31,-1
 766 579 l 1,32,-1
 774 716 l 1,33,-1
 1273 716 l 1,34,-1
 1273 59 l 1,35,36
 1073 -18 1073 -18 768 -18 c 0,0,1
EndSplineSet
EndChar

StartChar: H
Encoding: 72 72 43
Width: 1435
GlyphClass: 2
Flags: W
LayerCount: 2
UndoRedoHistory
Layer: 1
Undoes
UndoOperation
Index: 0
Type: 1
WasModified: 0
WasOrder2: 1
Width: 1435
VWidth: 2048
LBearingChange: 0
UnicodeEnc: 0
InstructionsLength: 0
SplineSet
356 766 m 1,0,-1
 1079 766 l 1,1,-1
 1079 1390 l 1,2,-1
 1257 1390 l 1,3,-1
 1257 0 l 1,4,-1
 1079 0 l 1,5,-1
 1079 634 l 1,6,-1
 356 634 l 1,7,-1
 356 0 l 1,8,-1
 178 0 l 1,9,-1
 178 1390 l 1,10,-1
 356 1390 l 1,11,-1
 356 766 l 1,0,-1
EndSplineSet
EndUndoOperation
UndoOperation
Index: 1
Type: 1
WasModified: 0
WasOrder2: 1
Width: 1435
VWidth: 2048
LBearingChange: 0
UnicodeEnc: 0
InstructionsLength: 0
SplineSet
356 766 m 1,0,-1
 1079 766 l 1,1,-1
 1079 1390 l 1,2,-1
 1257 1390 l 1,3,-1
 1257 0 l 1,4,-1
 1079 0 l 1,5,-1
 1079 634 l 1,6,-1
 356 634 l 1,7,-1
 356 0 l 1,8,-1
 178 0 l 1,9,-1
 178 1390 l 1,10,-1
 356 1390 l 1,11,-1
 356 766 l 1,0,-1
EndSplineSet
EndUndoOperation
EndUndoes
Redoes
EndRedoes
EndUndoRedoHistory
Fore
SplineSet
356 766 m 1,0,-1
 1079 766 l 1,1,-1
 1079 1390 l 1,2,-1
 1257 1390 l 1,3,-1
 1257 0 l 1,4,-1
 1079 0 l 1,5,-1
 1079 634 l 1,6,-1
 356 634 l 1,7,-1
 356 0 l 1,8,-1
 178 0 l 1,9,-1
 178 1390 l 1,10,-1
 356 1390 l 1,11,-1
 356 766 l 1,0,-1
EndSplineSet
EndChar

StartChar: I
Encoding: 73 73 44
Width: 557
GlyphClass: 2
Flags: W
LayerCount: 2
UndoRedoHistory
Layer: 1
Undoes
UndoOperation
Index: 0
Type: 1
WasModified: 0
WasOrder2: 1
Width: 557
VWidth: 2048
LBearingChange: 0
UnicodeEnc: 0
InstructionsLength: 0
SplineSet
196 0 m 1,0,-1
 196 1390 l 1,1,-1
 375 1390 l 1,2,-1
 375 0 l 1,3,-1
 196 0 l 1,0,-1
EndSplineSet
EndUndoOperation
UndoOperation
Index: 1
Type: 1
WasModified: 0
WasOrder2: 1
Width: 557
VWidth: 2048
LBearingChange: 0
UnicodeEnc: 0
InstructionsLength: 0
SplineSet
196 0 m 1,0,-1
 196 1390 l 1,1,-1
 375 1390 l 1,2,-1
 375 0 l 1,3,-1
 196 0 l 1,0,-1
EndSplineSet
EndUndoOperation
EndUndoes
Redoes
EndRedoes
EndUndoRedoHistory
Fore
SplineSet
196 0 m 1,0,-1
 196 1390 l 1,1,-1
 375 1390 l 1,2,-1
 375 0 l 1,3,-1
 196 0 l 1,0,-1
EndSplineSet
EndChar

StartChar: J
Encoding: 74 74 45
Width: 678
GlyphClass: 2
Flags: W
LayerCount: 2
UndoRedoHistory
Layer: 1
Undoes
UndoOperation
Index: 0
Type: 1
WasModified: 0
WasOrder2: 1
Width: 678
VWidth: 2048
LBearingChange: 0
UnicodeEnc: 0
InstructionsLength: 0
SplineSet
93 -192 m 1,0,-1
 79 -45 l 1,1,2
 129 -45 129 -45 167 -38.5 c 128,-1,3
 205 -32 205 -32 231 -23 c 128,-1,4
 257 -14 257 -14 274.5 4 c 128,-1,5
 292 22 292 22 301 37.5 c 128,-1,6
 310 53 310 53 314.5 81.5 c 128,-1,7
 319 110 319 110 320 130 c 128,-1,8
 321 150 321 150 321 186 c 2,9,-1
 321 1408 l 1,10,-1
 499 1408 l 1,11,-1
 499 219 l 2,12,13
 499 143 499 143 494 91 c 128,-1,14
 489 39 489 39 473.5 -11 c 128,-1,15
 458 -61 458 -61 430.5 -92 c 128,-1,16
 403 -123 403 -123 358 -147 c 128,-1,17
 313 -171 313 -171 247.5 -181.5 c 128,-1,18
 182 -192 182 -192 93 -192 c 1,0,-1
EndSplineSet
EndUndoOperation
UndoOperation
Index: 1
Type: 1
WasModified: 0
WasOrder2: 1
Width: 678
VWidth: 2048
LBearingChange: 0
UnicodeEnc: 0
InstructionsLength: 0
SplineSet
93 -192 m 1,0,-1
 79 -45 l 1,1,2
 129 -45 129 -45 167 -38.5 c 128,-1,3
 205 -32 205 -32 231 -23 c 128,-1,4
 257 -14 257 -14 274.5 4 c 128,-1,5
 292 22 292 22 301 37.5 c 128,-1,6
 310 53 310 53 314.5 81.5 c 128,-1,7
 319 110 319 110 320 130 c 128,-1,8
 321 150 321 150 321 186 c 2,9,-1
 321 1408 l 1,10,-1
 499 1408 l 1,11,-1
 499 219 l 2,12,13
 499 143 499 143 494 91 c 128,-1,14
 489 39 489 39 473.5 -11 c 128,-1,15
 458 -61 458 -61 430.5 -92 c 128,-1,16
 403 -123 403 -123 358 -147 c 128,-1,17
 313 -171 313 -171 247.5 -181.5 c 128,-1,18
 182 -192 182 -192 93 -192 c 1,0,-1
EndSplineSet
EndUndoOperation
EndUndoes
Redoes
EndRedoes
EndUndoRedoHistory
Fore
SplineSet
93 -192 m 1,0,-1
 79 -45 l 1,1,2
 129 -45 129 -45 167 -38.5 c 128,-1,3
 205 -32 205 -32 231 -23 c 128,-1,4
 257 -14 257 -14 274.5 4 c 128,-1,5
 292 22 292 22 301 37.5 c 128,-1,6
 310 53 310 53 314.5 81.5 c 128,-1,7
 319 110 319 110 320 130 c 128,-1,8
 321 150 321 150 321 186 c 2,9,-1
 321 1408 l 1,10,-1
 499 1408 l 1,11,-1
 499 219 l 2,12,13
 499 143 499 143 494 91 c 128,-1,14
 489 39 489 39 473.5 -11 c 128,-1,15
 458 -61 458 -61 430.5 -92 c 128,-1,16
 403 -123 403 -123 358 -147 c 128,-1,17
 313 -171 313 -171 247.5 -181.5 c 128,-1,18
 182 -192 182 -192 93 -192 c 1,0,-1
EndSplineSet
EndChar

StartChar: K
Encoding: 75 75 46
Width: 1234
GlyphClass: 2
Flags: W
LayerCount: 2
UndoRedoHistory
Layer: 1
Undoes
UndoOperation
Index: 0
Type: 1
WasModified: 0
WasOrder2: 1
Width: 1234
VWidth: 2048
LBearingChange: 0
UnicodeEnc: 0
InstructionsLength: 0
SplineSet
949 1389 m 1,0,-1
 1173 1389 l 1,1,-1
 603 763 l 1,2,-1
 1220 0 l 1,3,-1
 1011 0 l 1,4,-1
 468 675 l 1,5,-1
 356 568 l 1,6,-1
 356 0 l 1,7,-1
 178 0 l 1,8,-1
 178 1389 l 1,9,-1
 356 1389 l 1,10,-1
 356 752 l 1,11,-1
 949 1389 l 1,0,-1
EndSplineSet
EndUndoOperation
UndoOperation
Index: 1
Type: 1
WasModified: 0
WasOrder2: 1
Width: 1234
VWidth: 2048
LBearingChange: 0
UnicodeEnc: 0
InstructionsLength: 0
SplineSet
949 1389 m 1,0,-1
 1173 1389 l 1,1,-1
 603 763 l 1,2,-1
 1220 0 l 1,3,-1
 1011 0 l 1,4,-1
 468 675 l 1,5,-1
 356 568 l 1,6,-1
 356 0 l 1,7,-1
 178 0 l 1,8,-1
 178 1389 l 1,9,-1
 356 1389 l 1,10,-1
 356 752 l 1,11,-1
 949 1389 l 1,0,-1
EndSplineSet
EndUndoOperation
EndUndoes
Redoes
EndRedoes
EndUndoRedoHistory
Fore
SplineSet
949 1389 m 1,0,-1
 1173 1389 l 1,1,-1
 603 763 l 1,2,-1
 1220 0 l 1,3,-1
 1011 0 l 1,4,-1
 468 675 l 1,5,-1
 356 568 l 1,6,-1
 356 0 l 1,7,-1
 178 0 l 1,8,-1
 178 1389 l 1,9,-1
 356 1389 l 1,10,-1
 356 752 l 1,11,-1
 949 1389 l 1,0,-1
EndSplineSet
EndChar

StartChar: L
Encoding: 76 76 47
Width: 979
GlyphClass: 2
Flags: W
LayerCount: 2
UndoRedoHistory
Layer: 1
Undoes
UndoOperation
Index: 0
Type: 1
WasModified: 0
WasOrder2: 1
Width: 979
VWidth: 2048
LBearingChange: 0
UnicodeEnc: 0
InstructionsLength: 0
SplineSet
945 140 m 1,0,-1
 938 0 l 1,1,-1
 178 0 l 1,2,-1
 178 1390 l 1,3,-1
 357 1390 l 1,4,-1
 357 140 l 1,5,-1
 945 140 l 1,0,-1
EndSplineSet
EndUndoOperation
UndoOperation
Index: 1
Type: 1
WasModified: 0
WasOrder2: 1
Width: 979
VWidth: 2048
LBearingChange: 0
UnicodeEnc: 0
InstructionsLength: 0
SplineSet
945 140 m 1,0,-1
 938 0 l 1,1,-1
 178 0 l 1,2,-1
 178 1390 l 1,3,-1
 357 1390 l 1,4,-1
 357 140 l 1,5,-1
 945 140 l 1,0,-1
EndSplineSet
EndUndoOperation
EndUndoes
Redoes
EndRedoes
EndUndoRedoHistory
Fore
SplineSet
945 140 m 1,0,-1
 938 0 l 1,1,-1
 178 0 l 1,2,-1
 178 1390 l 1,3,-1
 357 1390 l 1,4,-1
 357 140 l 1,5,-1
 945 140 l 1,0,-1
EndSplineSet
EndChar

StartChar: M
Encoding: 77 77 48
Width: 1663
GlyphClass: 2
Flags: W
LayerCount: 2
UndoRedoHistory
Layer: 1
Undoes
UndoOperation
Index: 0
Type: 1
WasModified: 0
WasOrder2: 1
Width: 1663
VWidth: 2048
LBearingChange: 0
UnicodeEnc: 0
InstructionsLength: 0
SplineSet
1278 1390 m 1,0,-1
 1485 1390 l 1,1,-1
 1485 0 l 1,2,-1
 1330 0 l 1,3,-1
 1330 843 l 1,4,-1
 1337 1163 l 1,5,-1
 911 108 l 1,6,-1
 753 108 l 1,7,-1
 322 1167 l 1,8,-1
 333 839 l 1,9,-1
 333 0 l 1,10,-1
 178 0 l 1,11,-1
 178 1390 l 1,12,-1
 391 1390 l 1,13,-1
 832 305 l 1,14,-1
 1278 1390 l 1,0,-1
EndSplineSet
EndUndoOperation
UndoOperation
Index: 1
Type: 1
WasModified: 0
WasOrder2: 1
Width: 1663
VWidth: 2048
LBearingChange: 0
UnicodeEnc: 0
InstructionsLength: 0
SplineSet
1278 1390 m 1,0,-1
 1485 1390 l 1,1,-1
 1485 0 l 1,2,-1
 1330 0 l 1,3,-1
 1330 843 l 1,4,-1
 1337 1163 l 1,5,-1
 911 108 l 1,6,-1
 753 108 l 1,7,-1
 322 1167 l 1,8,-1
 333 839 l 1,9,-1
 333 0 l 1,10,-1
 178 0 l 1,11,-1
 178 1390 l 1,12,-1
 391 1390 l 1,13,-1
 832 305 l 1,14,-1
 1278 1390 l 1,0,-1
EndSplineSet
EndUndoOperation
EndUndoes
Redoes
EndRedoes
EndUndoRedoHistory
Fore
SplineSet
1278 1390 m 1,0,-1
 1485 1390 l 1,1,-1
 1485 0 l 1,2,-1
 1330 0 l 1,3,-1
 1330 843 l 1,4,-1
 1337 1163 l 1,5,-1
 911 108 l 1,6,-1
 753 108 l 1,7,-1
 322 1167 l 1,8,-1
 333 839 l 1,9,-1
 333 0 l 1,10,-1
 178 0 l 1,11,-1
 178 1390 l 1,12,-1
 391 1390 l 1,13,-1
 832 305 l 1,14,-1
 1278 1390 l 1,0,-1
EndSplineSet
EndChar

StartChar: N
Encoding: 78 78 49
Width: 1485
GlyphClass: 2
Flags: W
LayerCount: 2
UndoRedoHistory
Layer: 1
Undoes
UndoOperation
Index: 0
Type: 1
WasModified: 0
WasOrder2: 1
Width: 1485
VWidth: 2048
LBearingChange: 0
UnicodeEnc: 0
InstructionsLength: 0
SplineSet
1156 208 m 1,0,-1
 1151 555 l 1,1,-1
 1151 1390 l 1,2,-1
 1307 1390 l 1,3,-1
 1307 0 l 1,4,-1
 1124 0 l 1,5,-1
 329 1181 l 1,6,-1
 334 830 l 1,7,-1
 334 0 l 1,8,-1
 178 0 l 1,9,-1
 178 1390 l 1,10,-1
 357 1390 l 1,11,-1
 1156 208 l 1,0,-1
EndSplineSet
EndUndoOperation
UndoOperation
Index: 1
Type: 1
WasModified: 0
WasOrder2: 1
Width: 1485
VWidth: 2048
LBearingChange: 0
UnicodeEnc: 0
InstructionsLength: 0
SplineSet
1156 208 m 1,0,-1
 1151 555 l 1,1,-1
 1151 1390 l 1,2,-1
 1307 1390 l 1,3,-1
 1307 0 l 1,4,-1
 1124 0 l 1,5,-1
 329 1181 l 1,6,-1
 334 830 l 1,7,-1
 334 0 l 1,8,-1
 178 0 l 1,9,-1
 178 1390 l 1,10,-1
 357 1390 l 1,11,-1
 1156 208 l 1,0,-1
EndSplineSet
EndUndoOperation
EndUndoes
Redoes
EndRedoes
EndUndoRedoHistory
Fore
SplineSet
1156 208 m 1,0,-1
 1151 555 l 1,1,-1
 1151 1390 l 1,2,-1
 1307 1390 l 1,3,-1
 1307 0 l 1,4,-1
 1124 0 l 1,5,-1
 329 1181 l 1,6,-1
 334 830 l 1,7,-1
 334 0 l 1,8,-1
 178 0 l 1,9,-1
 178 1390 l 1,10,-1
 357 1390 l 1,11,-1
 1156 208 l 1,0,-1
EndSplineSet
EndChar

StartChar: O
Encoding: 79 79 50
Width: 1513
GlyphClass: 2
Flags: W
LayerCount: 2
UndoRedoHistory
Layer: 1
Undoes
UndoOperation
Index: 0
Type: 1
WasModified: 0
WasOrder2: 1
Width: 1513
VWidth: 2048
LBearingChange: 0
UnicodeEnc: 0
InstructionsLength: 0
SplineSet
757 120 m 0,0,1
 875 120 875 120 967 165 c 128,-1,2
 1059 210 1059 210 1116 289.5 c 128,-1,3
 1173 369 1173 369 1202 472.5 c 128,-1,4
 1231 576 1231 576 1231 697 c 0,5,6
 1231 865 1231 865 1180 993.5 c 128,-1,7
 1129 1122 1129 1122 1020.5 1198.5 c 128,-1,8
 912 1275 912 1275 758 1275 c 0,9,10
 642 1275 642 1275 550.5 1231.5 c 128,-1,11
 459 1188 459 1188 400.5 1110 c 128,-1,12
 342 1032 342 1032 312 927 c 128,-1,13
 282 822 282 822 282 697 c 0,14,15
 282 600 282 600 300 514.5 c 128,-1,16
 318 429 318 429 356 356.5 c 128,-1,17
 394 284 394 284 449.5 231.5 c 128,-1,18
 505 179 505 179 583.5 149.5 c 128,-1,19
 662 120 662 120 757 120 c 0,0,1
1410 697 m 0,20,21
 1410 490 1410 490 1335 330 c 128,-1,22
 1260 170 1260 170 1110.5 76 c 128,-1,23
 961 -18 961 -18 757 -18 c 0,24,25
 601 -18 601 -18 476.5 35 c 128,-1,26
 352 88 352 88 270.5 183.5 c 128,-1,27
 189 279 189 279 146 410 c 128,-1,28
 103 541 103 541 103 698 c 0,29,30
 103 912 103 912 179 1072.5 c 128,-1,31
 255 1233 255 1233 404 1323 c 128,-1,32
 553 1413 553 1413 758 1413 c 0,33,34
 959 1413 959 1413 1107.5 1322.5 c 128,-1,35
 1256 1232 1256 1232 1333 1070.5 c 128,-1,36
 1410 909 1410 909 1410 697 c 0,20,21
EndSplineSet
EndUndoOperation
UndoOperation
Index: 1
Type: 1
WasModified: 0
WasOrder2: 1
Width: 1513
VWidth: 2048
LBearingChange: 0
UnicodeEnc: 0
InstructionsLength: 0
SplineSet
757 120 m 0,0,1
 875 120 875 120 967 165 c 128,-1,2
 1059 210 1059 210 1116 289.5 c 128,-1,3
 1173 369 1173 369 1202 472.5 c 128,-1,4
 1231 576 1231 576 1231 697 c 0,5,6
 1231 865 1231 865 1180 993.5 c 128,-1,7
 1129 1122 1129 1122 1020.5 1198.5 c 128,-1,8
 912 1275 912 1275 758 1275 c 0,9,10
 642 1275 642 1275 550.5 1231.5 c 128,-1,11
 459 1188 459 1188 400.5 1110 c 128,-1,12
 342 1032 342 1032 312 927 c 128,-1,13
 282 822 282 822 282 697 c 0,14,15
 282 600 282 600 300 514.5 c 128,-1,16
 318 429 318 429 356 356.5 c 128,-1,17
 394 284 394 284 449.5 231.5 c 128,-1,18
 505 179 505 179 583.5 149.5 c 128,-1,19
 662 120 662 120 757 120 c 0,0,1
1410 697 m 0,20,21
 1410 490 1410 490 1335 330 c 128,-1,22
 1260 170 1260 170 1110.5 76 c 128,-1,23
 961 -18 961 -18 757 -18 c 0,24,25
 601 -18 601 -18 476.5 35 c 128,-1,26
 352 88 352 88 270.5 183.5 c 128,-1,27
 189 279 189 279 146 410 c 128,-1,28
 103 541 103 541 103 698 c 0,29,30
 103 912 103 912 179 1072.5 c 128,-1,31
 255 1233 255 1233 404 1323 c 128,-1,32
 553 1413 553 1413 758 1413 c 0,33,34
 959 1413 959 1413 1107.5 1322.5 c 128,-1,35
 1256 1232 1256 1232 1333 1070.5 c 128,-1,36
 1410 909 1410 909 1410 697 c 0,20,21
EndSplineSet
EndUndoOperation
EndUndoes
Redoes
EndRedoes
EndUndoRedoHistory
Fore
SplineSet
757 120 m 0,0,1
 875 120 875 120 967 165 c 128,-1,2
 1059 210 1059 210 1116 289.5 c 128,-1,3
 1173 369 1173 369 1202 472.5 c 128,-1,4
 1231 576 1231 576 1231 697 c 0,5,6
 1231 865 1231 865 1180 993.5 c 128,-1,7
 1129 1122 1129 1122 1020.5 1198.5 c 128,-1,8
 912 1275 912 1275 758 1275 c 0,9,10
 642 1275 642 1275 550.5 1231.5 c 128,-1,11
 459 1188 459 1188 400.5 1110 c 128,-1,12
 342 1032 342 1032 312 927 c 128,-1,13
 282 822 282 822 282 697 c 0,14,15
 282 600 282 600 300 514.5 c 128,-1,16
 318 429 318 429 356 356.5 c 128,-1,17
 394 284 394 284 449.5 231.5 c 128,-1,18
 505 179 505 179 583.5 149.5 c 128,-1,19
 662 120 662 120 757 120 c 0,0,1
1410 697 m 0,20,21
 1410 490 1410 490 1335 330 c 128,-1,22
 1260 170 1260 170 1110.5 76 c 128,-1,23
 961 -18 961 -18 757 -18 c 0,24,25
 601 -18 601 -18 476.5 35 c 128,-1,26
 352 88 352 88 270.5 183.5 c 128,-1,27
 189 279 189 279 146 410 c 128,-1,28
 103 541 103 541 103 698 c 0,29,30
 103 912 103 912 179 1072.5 c 128,-1,31
 255 1233 255 1233 404 1323 c 128,-1,32
 553 1413 553 1413 758 1413 c 0,33,34
 959 1413 959 1413 1107.5 1322.5 c 128,-1,35
 1256 1232 1256 1232 1333 1070.5 c 128,-1,36
 1410 909 1410 909 1410 697 c 0,20,21
EndSplineSet
EndChar

StartChar: P
Encoding: 80 80 51
Width: 1166
GlyphClass: 2
Flags: W
LayerCount: 2
UndoRedoHistory
Layer: 1
Undoes
UndoOperation
Index: 0
Type: 1
WasModified: 0
WasOrder2: 1
Width: 1166
VWidth: 2048
LBearingChange: 0
UnicodeEnc: 0
InstructionsLength: 0
SplineSet
615 744 m 0,0,1
 777 744 777 744 842 811.5 c 128,-1,2
 907 879 907 879 907 1020 c 0,3,4
 907 1138 907 1138 832 1195.5 c 128,-1,5
 757 1253 757 1253 624 1253 c 2,6,-1
 357 1253 l 1,7,-1
 357 746 l 1,8,9
 552 744 552 744 615 744 c 0,0,1
178 0 m 1,10,-1
 178 1390 l 1,11,-1
 628 1390 l 2,12,13
 833 1390 833 1390 959.5 1295.5 c 128,-1,14
 1086 1201 1086 1201 1086 1023 c 0,15,16
 1086 613 1086 613 607 613 c 0,17,18
 410 613 410 613 357 616 c 1,19,-1
 357 0 l 1,20,-1
 178 0 l 1,10,-1
EndSplineSet
EndUndoOperation
UndoOperation
Index: 1
Type: 1
WasModified: 0
WasOrder2: 1
Width: 1166
VWidth: 2048
LBearingChange: 0
UnicodeEnc: 0
InstructionsLength: 0
SplineSet
615 744 m 0,0,1
 777 744 777 744 842 811.5 c 128,-1,2
 907 879 907 879 907 1020 c 0,3,4
 907 1138 907 1138 832 1195.5 c 128,-1,5
 757 1253 757 1253 624 1253 c 2,6,-1
 357 1253 l 1,7,-1
 357 746 l 1,8,9
 552 744 552 744 615 744 c 0,0,1
178 0 m 1,10,-1
 178 1390 l 1,11,-1
 628 1390 l 2,12,13
 833 1390 833 1390 959.5 1295.5 c 128,-1,14
 1086 1201 1086 1201 1086 1023 c 0,15,16
 1086 613 1086 613 607 613 c 0,17,18
 410 613 410 613 357 616 c 1,19,-1
 357 0 l 1,20,-1
 178 0 l 1,10,-1
EndSplineSet
EndUndoOperation
EndUndoes
Redoes
EndRedoes
EndUndoRedoHistory
Fore
SplineSet
615 744 m 0,0,1
 777 744 777 744 842 811.5 c 128,-1,2
 907 879 907 879 907 1020 c 0,3,4
 907 1138 907 1138 832 1195.5 c 128,-1,5
 757 1253 757 1253 624 1253 c 2,6,-1
 357 1253 l 1,7,-1
 357 746 l 1,8,9
 552 744 552 744 615 744 c 0,0,1
178 0 m 1,10,-1
 178 1390 l 1,11,-1
 628 1390 l 2,12,13
 833 1390 833 1390 959.5 1295.5 c 128,-1,14
 1086 1201 1086 1201 1086 1023 c 0,15,16
 1086 613 1086 613 607 613 c 0,17,18
 410 613 410 613 357 616 c 1,19,-1
 357 0 l 1,20,-1
 178 0 l 1,10,-1
EndSplineSet
EndChar

StartChar: Q
Encoding: 81 81 52
Width: 1517
GlyphClass: 2
Flags: W
LayerCount: 2
UndoRedoHistory
Layer: 1
Undoes
UndoOperation
Index: 0
Type: 1
WasModified: 0
WasOrder2: 1
Width: 1517
VWidth: 2048
LBearingChange: 0
UnicodeEnc: 0
InstructionsLength: 0
SplineSet
1255 -318 m 1,0,-1
 1152 -421 l 1,1,2
 1109 -379 1109 -379 1005.5 -244 c 128,-1,3
 902 -109 902 -109 851 -7 c 1,4,-1
 1001 23 l 1,5,6
 1146 -212 1146 -212 1255 -318 c 1,0,-1
757 120 m 0,7,8
 875 120 875 120 967 165 c 128,-1,9
 1059 210 1059 210 1116 289.5 c 128,-1,10
 1173 369 1173 369 1202 472.5 c 128,-1,11
 1231 576 1231 576 1231 697 c 0,12,13
 1231 865 1231 865 1180 993.5 c 128,-1,14
 1129 1122 1129 1122 1020.5 1198.5 c 128,-1,15
 912 1275 912 1275 758 1275 c 0,16,17
 642 1275 642 1275 550.5 1231.5 c 128,-1,18
 459 1188 459 1188 400.5 1110 c 128,-1,19
 342 1032 342 1032 312 927 c 128,-1,20
 282 822 282 822 282 697 c 0,21,22
 282 600 282 600 300 514.5 c 128,-1,23
 318 429 318 429 356 356.5 c 128,-1,24
 394 284 394 284 449.5 231.5 c 128,-1,25
 505 179 505 179 583.5 149.5 c 128,-1,26
 662 120 662 120 757 120 c 0,7,8
1410 697 m 0,27,28
 1410 490 1410 490 1335 330 c 128,-1,29
 1260 170 1260 170 1110.5 76 c 128,-1,30
 961 -18 961 -18 757 -18 c 0,31,32
 601 -18 601 -18 476.5 35 c 128,-1,33
 352 88 352 88 270.5 183.5 c 128,-1,34
 189 279 189 279 146 410 c 128,-1,35
 103 541 103 541 103 698 c 0,36,37
 103 912 103 912 179 1072.5 c 128,-1,38
 255 1233 255 1233 404 1323 c 128,-1,39
 553 1413 553 1413 758 1413 c 0,40,41
 959 1413 959 1413 1107.5 1322.5 c 128,-1,42
 1256 1232 1256 1232 1333 1070.5 c 128,-1,43
 1410 909 1410 909 1410 697 c 0,27,28
EndSplineSet
EndUndoOperation
UndoOperation
Index: 1
Type: 1
WasModified: 0
WasOrder2: 1
Width: 1517
VWidth: 2048
LBearingChange: 0
UnicodeEnc: 0
InstructionsLength: 0
SplineSet
1255 -318 m 1,0,-1
 1152 -421 l 1,1,2
 1109 -379 1109 -379 1005.5 -244 c 128,-1,3
 902 -109 902 -109 851 -7 c 1,4,-1
 1001 23 l 1,5,6
 1146 -212 1146 -212 1255 -318 c 1,0,-1
757 120 m 0,7,8
 875 120 875 120 967 165 c 128,-1,9
 1059 210 1059 210 1116 289.5 c 128,-1,10
 1173 369 1173 369 1202 472.5 c 128,-1,11
 1231 576 1231 576 1231 697 c 0,12,13
 1231 865 1231 865 1180 993.5 c 128,-1,14
 1129 1122 1129 1122 1020.5 1198.5 c 128,-1,15
 912 1275 912 1275 758 1275 c 0,16,17
 642 1275 642 1275 550.5 1231.5 c 128,-1,18
 459 1188 459 1188 400.5 1110 c 128,-1,19
 342 1032 342 1032 312 927 c 128,-1,20
 282 822 282 822 282 697 c 0,21,22
 282 600 282 600 300 514.5 c 128,-1,23
 318 429 318 429 356 356.5 c 128,-1,24
 394 284 394 284 449.5 231.5 c 128,-1,25
 505 179 505 179 583.5 149.5 c 128,-1,26
 662 120 662 120 757 120 c 0,7,8
1410 697 m 0,27,28
 1410 490 1410 490 1335 330 c 128,-1,29
 1260 170 1260 170 1110.5 76 c 128,-1,30
 961 -18 961 -18 757 -18 c 0,31,32
 601 -18 601 -18 476.5 35 c 128,-1,33
 352 88 352 88 270.5 183.5 c 128,-1,34
 189 279 189 279 146 410 c 128,-1,35
 103 541 103 541 103 698 c 0,36,37
 103 912 103 912 179 1072.5 c 128,-1,38
 255 1233 255 1233 404 1323 c 128,-1,39
 553 1413 553 1413 758 1413 c 0,40,41
 959 1413 959 1413 1107.5 1322.5 c 128,-1,42
 1256 1232 1256 1232 1333 1070.5 c 128,-1,43
 1410 909 1410 909 1410 697 c 0,27,28
EndSplineSet
EndUndoOperation
EndUndoes
Redoes
EndRedoes
EndUndoRedoHistory
Fore
SplineSet
1255 -318 m 1,0,-1
 1152 -421 l 1,1,2
 1109 -379 1109 -379 1005.5 -244 c 128,-1,3
 902 -109 902 -109 851 -7 c 1,4,-1
 1001 23 l 1,5,6
 1146 -212 1146 -212 1255 -318 c 1,0,-1
757 120 m 0,7,8
 875 120 875 120 967 165 c 128,-1,9
 1059 210 1059 210 1116 289.5 c 128,-1,10
 1173 369 1173 369 1202 472.5 c 128,-1,11
 1231 576 1231 576 1231 697 c 0,12,13
 1231 865 1231 865 1180 993.5 c 128,-1,14
 1129 1122 1129 1122 1020.5 1198.5 c 128,-1,15
 912 1275 912 1275 758 1275 c 0,16,17
 642 1275 642 1275 550.5 1231.5 c 128,-1,18
 459 1188 459 1188 400.5 1110 c 128,-1,19
 342 1032 342 1032 312 927 c 128,-1,20
 282 822 282 822 282 697 c 0,21,22
 282 600 282 600 300 514.5 c 128,-1,23
 318 429 318 429 356 356.5 c 128,-1,24
 394 284 394 284 449.5 231.5 c 128,-1,25
 505 179 505 179 583.5 149.5 c 128,-1,26
 662 120 662 120 757 120 c 0,7,8
1410 697 m 0,27,28
 1410 490 1410 490 1335 330 c 128,-1,29
 1260 170 1260 170 1110.5 76 c 128,-1,30
 961 -18 961 -18 757 -18 c 0,31,32
 601 -18 601 -18 476.5 35 c 128,-1,33
 352 88 352 88 270.5 183.5 c 128,-1,34
 189 279 189 279 146 410 c 128,-1,35
 103 541 103 541 103 698 c 0,36,37
 103 912 103 912 179 1072.5 c 128,-1,38
 255 1233 255 1233 404 1323 c 128,-1,39
 553 1413 553 1413 758 1413 c 0,40,41
 959 1413 959 1413 1107.5 1322.5 c 128,-1,42
 1256 1232 1256 1232 1333 1070.5 c 128,-1,43
 1410 909 1410 909 1410 697 c 0,27,28
EndSplineSet
EndChar

StartChar: R
Encoding: 82 82 53
Width: 1357
GlyphClass: 2
Flags: W
LayerCount: 2
UndoRedoHistory
Layer: 1
Undoes
UndoOperation
Index: 0
Type: 1
WasModified: 0
WasOrder2: 1
Width: 1357
VWidth: 2048
LBearingChange: 0
UnicodeEnc: 0
InstructionsLength: 0
SplineSet
178 0 m 1,0,-1
 178 1390 l 1,1,-1
 681 1390 l 2,2,3
 785 1390 785 1390 862 1381 c 128,-1,4
 939 1372 939 1372 1005 1348.5 c 128,-1,5
 1071 1325 1071 1325 1112 1285.5 c 128,-1,6
 1153 1246 1153 1246 1175.5 1185 c 128,-1,7
 1198 1124 1198 1124 1198 1040 c 0,8,9
 1198 904 1198 904 1145 821.5 c 128,-1,10
 1092 739 1092 739 953 700 c 1,11,12
 953 698 953 698 968 668 c 128,-1,13
 983 638 983 638 1006 591.5 c 128,-1,14
 1029 545 1029 545 1042 517 c 2,15,-1
 1262 0 l 1,16,-1
 1076 0 l 1,17,-1
 891 464 l 1,18,19
 821 620 821 620 793 664 c 1,20,21
 726 659 726 659 632 659 c 2,22,-1
 357 661 l 1,23,-1
 357 0 l 1,24,-1
 178 0 l 1,0,-1
716 799 m 2,25,26
 807 799 807 799 867 813.5 c 128,-1,27
 927 828 927 828 960.5 859 c 128,-1,28
 994 890 994 890 1007.5 932.5 c 128,-1,29
 1021 975 1021 975 1021 1038 c 0,30,31
 1021 1149 1021 1149 952.5 1200.5 c 128,-1,32
 884 1252 884 1252 708 1252 c 2,33,-1
 357 1252 l 1,34,-1
 357 799 l 1,35,-1
 716 799 l 2,25,26
EndSplineSet
EndUndoOperation
UndoOperation
Index: 1
Type: 1
WasModified: 0
WasOrder2: 1
Width: 1357
VWidth: 2048
LBearingChange: 0
UnicodeEnc: 0
InstructionsLength: 0
SplineSet
178 0 m 1,0,-1
 178 1390 l 1,1,-1
 681 1390 l 2,2,3
 785 1390 785 1390 862 1381 c 128,-1,4
 939 1372 939 1372 1005 1348.5 c 128,-1,5
 1071 1325 1071 1325 1112 1285.5 c 128,-1,6
 1153 1246 1153 1246 1175.5 1185 c 128,-1,7
 1198 1124 1198 1124 1198 1040 c 0,8,9
 1198 904 1198 904 1145 821.5 c 128,-1,10
 1092 739 1092 739 953 700 c 1,11,12
 953 698 953 698 968 668 c 128,-1,13
 983 638 983 638 1006 591.5 c 128,-1,14
 1029 545 1029 545 1042 517 c 2,15,-1
 1262 0 l 1,16,-1
 1076 0 l 1,17,-1
 891 464 l 1,18,19
 821 620 821 620 793 664 c 1,20,21
 726 659 726 659 632 659 c 2,22,-1
 357 661 l 1,23,-1
 357 0 l 1,24,-1
 178 0 l 1,0,-1
716 799 m 2,25,26
 807 799 807 799 867 813.5 c 128,-1,27
 927 828 927 828 960.5 859 c 128,-1,28
 994 890 994 890 1007.5 932.5 c 128,-1,29
 1021 975 1021 975 1021 1038 c 0,30,31
 1021 1149 1021 1149 952.5 1200.5 c 128,-1,32
 884 1252 884 1252 708 1252 c 2,33,-1
 357 1252 l 1,34,-1
 357 799 l 1,35,-1
 716 799 l 2,25,26
EndSplineSet
EndUndoOperation
EndUndoes
Redoes
EndRedoes
EndUndoRedoHistory
Fore
SplineSet
178 0 m 1,0,-1
 178 1390 l 1,1,-1
 681 1390 l 2,2,3
 785 1390 785 1390 862 1381 c 128,-1,4
 939 1372 939 1372 1005 1348.5 c 128,-1,5
 1071 1325 1071 1325 1112 1285.5 c 128,-1,6
 1153 1246 1153 1246 1175.5 1185 c 128,-1,7
 1198 1124 1198 1124 1198 1040 c 0,8,9
 1198 904 1198 904 1145 821.5 c 128,-1,10
 1092 739 1092 739 953 700 c 1,11,12
 953 698 953 698 968 668 c 128,-1,13
 983 638 983 638 1006 591.5 c 128,-1,14
 1029 545 1029 545 1042 517 c 2,15,-1
 1262 0 l 1,16,-1
 1076 0 l 1,17,-1
 891 464 l 1,18,19
 821 620 821 620 793 664 c 1,20,21
 726 659 726 659 632 659 c 2,22,-1
 357 661 l 1,23,-1
 357 0 l 1,24,-1
 178 0 l 1,0,-1
716 799 m 2,25,26
 807 799 807 799 867 813.5 c 128,-1,27
 927 828 927 828 960.5 859 c 128,-1,28
 994 890 994 890 1007.5 932.5 c 128,-1,29
 1021 975 1021 975 1021 1038 c 0,30,31
 1021 1149 1021 1149 952.5 1200.5 c 128,-1,32
 884 1252 884 1252 708 1252 c 2,33,-1
 357 1252 l 1,34,-1
 357 799 l 1,35,-1
 716 799 l 2,25,26
EndSplineSet
EndChar

StartChar: S
Encoding: 83 83 54
Width: 1229
GlyphClass: 2
Flags: W
LayerCount: 2
UndoRedoHistory
Layer: 1
Undoes
UndoOperation
Index: 0
Type: 1
WasModified: 0
WasOrder2: 1
Width: 1229
VWidth: 2048
LBearingChange: 0
UnicodeEnc: 0
InstructionsLength: 0
SplineSet
606 -18 m 0,0,1
 455 -18 455 -18 336.5 20.5 c 128,-1,2
 218 59 218 59 140 110 c 1,3,-1
 195 238 l 1,4,5
 395 120 395 120 606 120 c 0,6,7
 745 120 745 120 825.5 184 c 128,-1,8
 906 248 906 248 906 369 c 0,9,10
 906 460 906 460 848.5 519.5 c 128,-1,11
 791 579 791 579 663 624 c 2,12,-1
 434 704 l 1,13,14
 296 748 296 748 219 834.5 c 128,-1,15
 142 921 142 921 142 1051 c 0,16,17
 142 1147 142 1147 179.5 1218.5 c 128,-1,18
 217 1290 217 1290 284 1331.5 c 128,-1,19
 351 1373 351 1373 434 1393 c 128,-1,20
 517 1413 517 1413 617 1413 c 0,21,22
 728 1413 728 1413 830 1380 c 128,-1,23
 932 1347 932 1347 1006 1298 c 1,24,-1
 951 1173 l 1,25,26
 784 1275 784 1275 623 1275 c 0,27,28
 556 1275 556 1275 499.5 1263 c 128,-1,29
 443 1251 443 1251 398 1226.5 c 128,-1,30
 353 1202 353 1202 327 1159.5 c 128,-1,31
 301 1117 301 1117 301 1062 c 0,32,33
 301 907 301 907 491 848 c 1,34,-1
 708 772 l 1,35,36
 788 747 788 747 847.5 716.5 c 128,-1,37
 907 686 907 686 957.5 640.5 c 128,-1,38
 1008 595 1008 595 1034.5 528.5 c 128,-1,39
 1061 462 1061 462 1061 376 c 0,40,41
 1061 181 1061 181 936.5 81.5 c 128,-1,42
 812 -18 812 -18 606 -18 c 0,0,1
EndSplineSet
EndUndoOperation
UndoOperation
Index: 1
Type: 1
WasModified: 0
WasOrder2: 1
Width: 1229
VWidth: 2048
LBearingChange: 0
UnicodeEnc: 0
InstructionsLength: 0
SplineSet
606 -18 m 0,0,1
 455 -18 455 -18 336.5 20.5 c 128,-1,2
 218 59 218 59 140 110 c 1,3,-1
 195 238 l 1,4,5
 395 120 395 120 606 120 c 0,6,7
 745 120 745 120 825.5 184 c 128,-1,8
 906 248 906 248 906 369 c 0,9,10
 906 460 906 460 848.5 519.5 c 128,-1,11
 791 579 791 579 663 624 c 2,12,-1
 434 704 l 1,13,14
 296 748 296 748 219 834.5 c 128,-1,15
 142 921 142 921 142 1051 c 0,16,17
 142 1147 142 1147 179.5 1218.5 c 128,-1,18
 217 1290 217 1290 284 1331.5 c 128,-1,19
 351 1373 351 1373 434 1393 c 128,-1,20
 517 1413 517 1413 617 1413 c 0,21,22
 728 1413 728 1413 830 1380 c 128,-1,23
 932 1347 932 1347 1006 1298 c 1,24,-1
 951 1173 l 1,25,26
 784 1275 784 1275 623 1275 c 0,27,28
 556 1275 556 1275 499.5 1263 c 128,-1,29
 443 1251 443 1251 398 1226.5 c 128,-1,30
 353 1202 353 1202 327 1159.5 c 128,-1,31
 301 1117 301 1117 301 1062 c 0,32,33
 301 907 301 907 491 848 c 1,34,-1
 708 772 l 1,35,36
 788 747 788 747 847.5 716.5 c 128,-1,37
 907 686 907 686 957.5 640.5 c 128,-1,38
 1008 595 1008 595 1034.5 528.5 c 128,-1,39
 1061 462 1061 462 1061 376 c 0,40,41
 1061 181 1061 181 936.5 81.5 c 128,-1,42
 812 -18 812 -18 606 -18 c 0,0,1
EndSplineSet
EndUndoOperation
EndUndoes
Redoes
EndRedoes
EndUndoRedoHistory
Fore
SplineSet
606 -18 m 0,0,1
 455 -18 455 -18 336.5 20.5 c 128,-1,2
 218 59 218 59 140 110 c 1,3,-1
 195 238 l 1,4,5
 395 120 395 120 606 120 c 0,6,7
 745 120 745 120 825.5 184 c 128,-1,8
 906 248 906 248 906 369 c 0,9,10
 906 460 906 460 848.5 519.5 c 128,-1,11
 791 579 791 579 663 624 c 2,12,-1
 434 704 l 1,13,14
 296 748 296 748 219 834.5 c 128,-1,15
 142 921 142 921 142 1051 c 0,16,17
 142 1147 142 1147 179.5 1218.5 c 128,-1,18
 217 1290 217 1290 284 1331.5 c 128,-1,19
 351 1373 351 1373 434 1393 c 128,-1,20
 517 1413 517 1413 617 1413 c 0,21,22
 728 1413 728 1413 830 1380 c 128,-1,23
 932 1347 932 1347 1006 1298 c 1,24,-1
 951 1173 l 1,25,26
 784 1275 784 1275 623 1275 c 0,27,28
 556 1275 556 1275 499.5 1263 c 128,-1,29
 443 1251 443 1251 398 1226.5 c 128,-1,30
 353 1202 353 1202 327 1159.5 c 128,-1,31
 301 1117 301 1117 301 1062 c 0,32,33
 301 907 301 907 491 848 c 1,34,-1
 708 772 l 1,35,36
 788 747 788 747 847.5 716.5 c 128,-1,37
 907 686 907 686 957.5 640.5 c 128,-1,38
 1008 595 1008 595 1034.5 528.5 c 128,-1,39
 1061 462 1061 462 1061 376 c 0,40,41
 1061 181 1061 181 936.5 81.5 c 128,-1,42
 812 -18 812 -18 606 -18 c 0,0,1
EndSplineSet
EndChar

StartChar: T
Encoding: 84 84 55
Width: 1088
GlyphClass: 2
Flags: W
LayerCount: 2
UndoRedoHistory
Layer: 1
Undoes
UndoOperation
Index: 0
Type: 1
WasModified: 0
WasOrder2: 1
Width: 1088
VWidth: 2048
LBearingChange: 0
UnicodeEnc: 0
InstructionsLength: 0
SplineSet
1049 1390 m 1,0,-1
 1049 1251 l 1,1,-1
 633 1251 l 1,2,-1
 633 0 l 1,3,-1
 454 0 l 1,4,-1
 454 1251 l 1,5,-1
 39 1251 l 1,6,-1
 39 1390 l 1,7,-1
 1049 1390 l 1,0,-1
EndSplineSet
EndUndoOperation
UndoOperation
Index: 1
Type: 1
WasModified: 0
WasOrder2: 1
Width: 1088
VWidth: 2048
LBearingChange: 0
UnicodeEnc: 0
InstructionsLength: 0
SplineSet
1049 1390 m 1,0,-1
 1049 1251 l 1,1,-1
 633 1251 l 1,2,-1
 633 0 l 1,3,-1
 454 0 l 1,4,-1
 454 1251 l 1,5,-1
 39 1251 l 1,6,-1
 39 1390 l 1,7,-1
 1049 1390 l 1,0,-1
EndSplineSet
EndUndoOperation
EndUndoes
Redoes
EndRedoes
EndUndoRedoHistory
Fore
SplineSet
1049 1390 m 1,0,-1
 1049 1251 l 1,1,-1
 633 1251 l 1,2,-1
 633 0 l 1,3,-1
 454 0 l 1,4,-1
 454 1251 l 1,5,-1
 39 1251 l 1,6,-1
 39 1390 l 1,7,-1
 1049 1390 l 1,0,-1
EndSplineSet
EndChar

StartChar: U
Encoding: 85 85 56
Width: 1327
GlyphClass: 2
Flags: W
LayerCount: 2
UndoRedoHistory
Layer: 1
Undoes
UndoOperation
Index: 0
Type: 1
WasModified: 0
WasOrder2: 1
Width: 1327
VWidth: 2048
LBearingChange: 0
UnicodeEnc: 0
InstructionsLength: 0
SplineSet
663 -18 m 0,0,1
 399 -18 399 -18 265.5 121.5 c 128,-1,2
 132 261 132 261 132 495 c 2,3,-1
 132 1390 l 1,4,-1
 309 1390 l 1,5,-1
 309 492 l 2,6,7
 309 306 309 306 395 213 c 128,-1,8
 481 120 481 120 663 120 c 0,9,10
 1018 120 1018 120 1018 492 c 2,11,-1
 1018 1390 l 1,12,-1
 1195 1390 l 1,13,-1
 1195 493 l 2,14,15
 1195 380 1195 380 1162.5 287.5 c 128,-1,16
 1130 195 1130 195 1066 126 c 128,-1,17
 1002 57 1002 57 899.5 19.5 c 128,-1,18
 797 -18 797 -18 663 -18 c 0,0,1
EndSplineSet
EndUndoOperation
UndoOperation
Index: 1
Type: 1
WasModified: 0
WasOrder2: 1
Width: 1327
VWidth: 2048
LBearingChange: 0
UnicodeEnc: 0
InstructionsLength: 0
SplineSet
663 -18 m 0,0,1
 399 -18 399 -18 265.5 121.5 c 128,-1,2
 132 261 132 261 132 495 c 2,3,-1
 132 1390 l 1,4,-1
 309 1390 l 1,5,-1
 309 492 l 2,6,7
 309 306 309 306 395 213 c 128,-1,8
 481 120 481 120 663 120 c 0,9,10
 1018 120 1018 120 1018 492 c 2,11,-1
 1018 1390 l 1,12,-1
 1195 1390 l 1,13,-1
 1195 493 l 2,14,15
 1195 380 1195 380 1162.5 287.5 c 128,-1,16
 1130 195 1130 195 1066 126 c 128,-1,17
 1002 57 1002 57 899.5 19.5 c 128,-1,18
 797 -18 797 -18 663 -18 c 0,0,1
EndSplineSet
EndUndoOperation
EndUndoes
Redoes
EndRedoes
EndUndoRedoHistory
Fore
SplineSet
663 -18 m 0,0,1
 399 -18 399 -18 265.5 121.5 c 128,-1,2
 132 261 132 261 132 495 c 2,3,-1
 132 1390 l 1,4,-1
 309 1390 l 1,5,-1
 309 492 l 2,6,7
 309 306 309 306 395 213 c 128,-1,8
 481 120 481 120 663 120 c 0,9,10
 1018 120 1018 120 1018 492 c 2,11,-1
 1018 1390 l 1,12,-1
 1195 1390 l 1,13,-1
 1195 493 l 2,14,15
 1195 380 1195 380 1162.5 287.5 c 128,-1,16
 1130 195 1130 195 1066 126 c 128,-1,17
 1002 57 1002 57 899.5 19.5 c 128,-1,18
 797 -18 797 -18 663 -18 c 0,0,1
EndSplineSet
EndChar

StartChar: V
Encoding: 86 86 57
Width: 1264
GlyphClass: 2
Flags: W
LayerCount: 2
UndoRedoHistory
Layer: 1
Undoes
UndoOperation
Index: 0
Type: 1
WasModified: 0
WasOrder2: 1
Width: 1264
VWidth: 2048
LBearingChange: 0
UnicodeEnc: 0
InstructionsLength: 0
SplineSet
716 0 m 1,0,-1
 548 0 l 1,1,-1
 38 1390 l 1,2,-1
 224 1390 l 1,3,-1
 529 492 l 1,4,-1
 632 197 l 1,5,-1
 736 495 l 1,6,-1
 1042 1390 l 1,7,-1
 1226 1390 l 1,8,-1
 716 0 l 1,0,-1
EndSplineSet
EndUndoOperation
UndoOperation
Index: 1
Type: 1
WasModified: 0
WasOrder2: 1
Width: 1264
VWidth: 2048
LBearingChange: 0
UnicodeEnc: 0
InstructionsLength: 0
SplineSet
716 0 m 1,0,-1
 548 0 l 1,1,-1
 38 1390 l 1,2,-1
 224 1390 l 1,3,-1
 529 492 l 1,4,-1
 632 197 l 1,5,-1
 736 495 l 1,6,-1
 1042 1390 l 1,7,-1
 1226 1390 l 1,8,-1
 716 0 l 1,0,-1
EndSplineSet
EndUndoOperation
EndUndoes
Redoes
EndRedoes
EndUndoRedoHistory
Fore
SplineSet
716 0 m 1,0,-1
 548 0 l 1,1,-1
 38 1390 l 1,2,-1
 224 1390 l 1,3,-1
 529 492 l 1,4,-1
 632 197 l 1,5,-1
 736 495 l 1,6,-1
 1042 1390 l 1,7,-1
 1226 1390 l 1,8,-1
 716 0 l 1,0,-1
EndSplineSet
EndChar

StartChar: W
Encoding: 87 87 58
Width: 2002
GlyphClass: 2
Flags: W
LayerCount: 2
UndoRedoHistory
Layer: 1
Undoes
UndoOperation
Index: 0
Type: 1
WasModified: 0
WasOrder2: 1
Width: 2002
VWidth: 2048
LBearingChange: 0
UnicodeEnc: 0
InstructionsLength: 0
SplineSet
911 1365 m 1,0,-1
 1093 1365 l 1,1,-1
 1423 221 l 1,2,-1
 1759 1390 l 1,3,-1
 1936 1390 l 1,4,-1
 1521 0 l 1,5,-1
 1336 0 l 1,6,-1
 1009 1160 l 1,7,-1
 660 0 l 1,8,-1
 478 0 l 1,9,-1
 66 1390 l 1,10,-1
 244 1390 l 1,11,-1
 573 222 l 1,12,-1
 911 1365 l 1,0,-1
EndSplineSet
EndUndoOperation
UndoOperation
Index: 1
Type: 1
WasModified: 0
WasOrder2: 1
Width: 2002
VWidth: 2048
LBearingChange: 0
UnicodeEnc: 0
InstructionsLength: 0
SplineSet
911 1365 m 1,0,-1
 1093 1365 l 1,1,-1
 1423 221 l 1,2,-1
 1759 1390 l 1,3,-1
 1936 1390 l 1,4,-1
 1521 0 l 1,5,-1
 1336 0 l 1,6,-1
 1009 1160 l 1,7,-1
 660 0 l 1,8,-1
 478 0 l 1,9,-1
 66 1390 l 1,10,-1
 244 1390 l 1,11,-1
 573 222 l 1,12,-1
 911 1365 l 1,0,-1
EndSplineSet
EndUndoOperation
EndUndoes
Redoes
EndRedoes
EndUndoRedoHistory
Fore
SplineSet
911 1365 m 1,0,-1
 1093 1365 l 1,1,-1
 1423 221 l 1,2,-1
 1759 1390 l 1,3,-1
 1936 1390 l 1,4,-1
 1521 0 l 1,5,-1
 1336 0 l 1,6,-1
 1009 1160 l 1,7,-1
 660 0 l 1,8,-1
 478 0 l 1,9,-1
 66 1390 l 1,10,-1
 244 1390 l 1,11,-1
 573 222 l 1,12,-1
 911 1365 l 1,0,-1
EndSplineSet
EndChar

StartChar: X
Encoding: 88 88 59
Width: 1196
GlyphClass: 2
Flags: W
LayerCount: 2
UndoRedoHistory
Layer: 1
Undoes
UndoOperation
Index: 0
Type: 1
WasModified: 0
WasOrder2: 1
Width: 1196
VWidth: 2048
LBearingChange: 0
UnicodeEnc: 0
InstructionsLength: 0
SplineSet
696 709 m 1,0,-1
 1161 0 l 1,1,-1
 975 0 l 1,2,-1
 603 572 l 1,3,-1
 232 0 l 1,4,-1
 46 0 l 1,5,-1
 510 709 l 1,6,-1
 46 1390 l 1,7,-1
 232 1390 l 1,8,-1
 603 846 l 1,9,-1
 975 1390 l 1,10,-1
 1161 1390 l 1,11,-1
 696 709 l 1,0,-1
EndSplineSet
EndUndoOperation
UndoOperation
Index: 1
Type: 1
WasModified: 0
WasOrder2: 1
Width: 1196
VWidth: 2048
LBearingChange: 0
UnicodeEnc: 0
InstructionsLength: 0
SplineSet
696 709 m 1,0,-1
 1161 0 l 1,1,-1
 975 0 l 1,2,-1
 603 572 l 1,3,-1
 232 0 l 1,4,-1
 46 0 l 1,5,-1
 510 709 l 1,6,-1
 46 1390 l 1,7,-1
 232 1390 l 1,8,-1
 603 846 l 1,9,-1
 975 1390 l 1,10,-1
 1161 1390 l 1,11,-1
 696 709 l 1,0,-1
EndSplineSet
EndUndoOperation
EndUndoes
Redoes
EndRedoes
EndUndoRedoHistory
Fore
SplineSet
696 709 m 1,0,-1
 1161 0 l 1,1,-1
 975 0 l 1,2,-1
 603 572 l 1,3,-1
 232 0 l 1,4,-1
 46 0 l 1,5,-1
 510 709 l 1,6,-1
 46 1390 l 1,7,-1
 232 1390 l 1,8,-1
 603 846 l 1,9,-1
 975 1390 l 1,10,-1
 1161 1390 l 1,11,-1
 696 709 l 1,0,-1
EndSplineSet
EndChar

StartChar: Y
Encoding: 89 89 60
Width: 1181
GlyphClass: 2
Flags: W
LayerCount: 2
UndoRedoHistory
Layer: 1
Undoes
UndoOperation
Index: 0
Type: 1
WasModified: 0
WasOrder2: 1
Width: 1181
VWidth: 2048
LBearingChange: 0
UnicodeEnc: 0
InstructionsLength: 0
SplineSet
604 723 m 1,0,-1
 991 1390 l 1,1,-1
 1169 1390 l 1,2,-1
 694 577 l 1,3,-1
 694 0 l 1,4,-1
 516 0 l 1,5,-1
 516 573 l 1,6,-1
 12 1390 l 1,7,-1
 190 1390 l 1,8,-1
 604 723 l 1,0,-1
EndSplineSet
EndUndoOperation
UndoOperation
Index: 1
Type: 1
WasModified: 0
WasOrder2: 1
Width: 1181
VWidth: 2048
LBearingChange: 0
UnicodeEnc: 0
InstructionsLength: 0
SplineSet
604 723 m 1,0,-1
 991 1390 l 1,1,-1
 1169 1390 l 1,2,-1
 694 577 l 1,3,-1
 694 0 l 1,4,-1
 516 0 l 1,5,-1
 516 573 l 1,6,-1
 12 1390 l 1,7,-1
 190 1390 l 1,8,-1
 604 723 l 1,0,-1
EndSplineSet
EndUndoOperation
EndUndoes
Redoes
EndRedoes
EndUndoRedoHistory
Fore
SplineSet
604 723 m 1,0,-1
 991 1390 l 1,1,-1
 1169 1390 l 1,2,-1
 694 577 l 1,3,-1
 694 0 l 1,4,-1
 516 0 l 1,5,-1
 516 573 l 1,6,-1
 12 1390 l 1,7,-1
 190 1390 l 1,8,-1
 604 723 l 1,0,-1
EndSplineSet
EndChar

StartChar: Z
Encoding: 90 90 61
Width: 1190
GlyphClass: 2
Flags: W
LayerCount: 2
UndoRedoHistory
Layer: 1
Undoes
UndoOperation
Index: 0
Type: 1
WasModified: 0
WasOrder2: 1
Width: 1190
VWidth: 2048
LBearingChange: 0
UnicodeEnc: 0
InstructionsLength: 0
SplineSet
149 1390 m 1,0,-1
 1061 1390 l 1,1,-1
 1061 1272 l 1,2,-1
 323 138 l 1,3,-1
 1068 138 l 1,4,-1
 1062 0 l 1,5,-1
 122 0 l 1,6,-1
 122 124 l 1,7,-1
 856 1252 l 1,8,-1
 149 1252 l 1,9,-1
 149 1390 l 1,0,-1
EndSplineSet
EndUndoOperation
UndoOperation
Index: 1
Type: 1
WasModified: 0
WasOrder2: 1
Width: 1190
VWidth: 2048
LBearingChange: 0
UnicodeEnc: 0
InstructionsLength: 0
SplineSet
149 1390 m 1,0,-1
 1061 1390 l 1,1,-1
 1061 1272 l 1,2,-1
 323 138 l 1,3,-1
 1068 138 l 1,4,-1
 1062 0 l 1,5,-1
 122 0 l 1,6,-1
 122 124 l 1,7,-1
 856 1252 l 1,8,-1
 149 1252 l 1,9,-1
 149 1390 l 1,0,-1
EndSplineSet
EndUndoOperation
EndUndoes
Redoes
EndRedoes
EndUndoRedoHistory
Fore
SplineSet
149 1390 m 1,0,-1
 1061 1390 l 1,1,-1
 1061 1272 l 1,2,-1
 323 138 l 1,3,-1
 1068 138 l 1,4,-1
 1062 0 l 1,5,-1
 122 0 l 1,6,-1
 122 124 l 1,7,-1
 856 1252 l 1,8,-1
 149 1252 l 1,9,-1
 149 1390 l 1,0,-1
EndSplineSet
EndChar

StartChar: bracketleft
Encoding: 91 91 62
Width: 643
GlyphClass: 2
Flags: W
LayerCount: 2
UndoRedoHistory
Layer: 1
Undoes
UndoOperation
Index: 0
Type: 1
WasModified: 0
WasOrder2: 1
Width: 643
VWidth: 2048
LBearingChange: 0
UnicodeEnc: 0
InstructionsLength: 0
SplineSet
294 1229 m 1,0,-1
 294 -147 l 1,1,-1
 549 -147 l 1,2,-1
 549 -267 l 1,3,-1
 136 -267 l 1,4,-1
 136 1350 l 1,5,-1
 549 1350 l 1,6,-1
 549 1229 l 1,7,-1
 294 1229 l 1,0,-1
EndSplineSet
EndUndoOperation
UndoOperation
Index: 1
Type: 1
WasModified: 0
WasOrder2: 1
Width: 643
VWidth: 2048
LBearingChange: 0
UnicodeEnc: 0
InstructionsLength: 0
SplineSet
294 1229 m 1,0,-1
 294 -147 l 1,1,-1
 549 -147 l 1,2,-1
 549 -267 l 1,3,-1
 136 -267 l 1,4,-1
 136 1350 l 1,5,-1
 549 1350 l 1,6,-1
 549 1229 l 1,7,-1
 294 1229 l 1,0,-1
EndSplineSet
EndUndoOperation
EndUndoes
Redoes
EndRedoes
EndUndoRedoHistory
Fore
SplineSet
294 1229 m 1,0,-1
 294 -147 l 1,1,-1
 549 -147 l 1,2,-1
 549 -267 l 1,3,-1
 136 -267 l 1,4,-1
 136 1350 l 1,5,-1
 549 1350 l 1,6,-1
 549 1229 l 1,7,-1
 294 1229 l 1,0,-1
EndSplineSet
EndChar

StartChar: backslash
Encoding: 92 92 63
Width: 850
GlyphClass: 2
Flags: W
LayerCount: 2
UndoRedoHistory
Layer: 1
Undoes
UndoOperation
Index: 0
Type: 1
WasModified: 0
WasOrder2: 1
Width: 850
VWidth: 2048
LBearingChange: 0
UnicodeEnc: 0
InstructionsLength: 0
SplineSet
625 -55 m 1,0,-1
 80 1332 l 1,1,-1
 222 1332 l 1,2,-1
 767 -55 l 1,3,-1
 625 -55 l 1,0,-1
EndSplineSet
EndUndoOperation
UndoOperation
Index: 1
Type: 1
WasModified: 0
WasOrder2: 1
Width: 850
VWidth: 2048
LBearingChange: 0
UnicodeEnc: 0
InstructionsLength: 0
SplineSet
625 -55 m 1,0,-1
 80 1332 l 1,1,-1
 222 1332 l 1,2,-1
 767 -55 l 1,3,-1
 625 -55 l 1,0,-1
EndSplineSet
EndUndoOperation
EndUndoes
Redoes
EndRedoes
EndUndoRedoHistory
Fore
SplineSet
625 -55 m 1,0,-1
 80 1332 l 1,1,-1
 222 1332 l 1,2,-1
 767 -55 l 1,3,-1
 625 -55 l 1,0,-1
EndSplineSet
EndChar

StartChar: bracketright
Encoding: 93 93 64
Width: 645
GlyphClass: 2
Flags: W
LayerCount: 2
UndoRedoHistory
Layer: 1
Undoes
UndoOperation
Index: 0
Type: 1
WasModified: 0
WasOrder2: 1
Width: 645
VWidth: 2048
LBearingChange: 0
UnicodeEnc: 0
InstructionsLength: 0
SplineSet
96 1229 m 1,0,-1
 96 1350 l 1,1,-1
 509 1350 l 1,2,-1
 509 -267 l 1,3,-1
 96 -267 l 1,4,-1
 96 -147 l 1,5,-1
 351 -147 l 1,6,-1
 351 1229 l 1,7,-1
 96 1229 l 1,0,-1
EndSplineSet
EndUndoOperation
UndoOperation
Index: 1
Type: 1
WasModified: 0
WasOrder2: 1
Width: 645
VWidth: 2048
LBearingChange: 0
UnicodeEnc: 0
InstructionsLength: 0
SplineSet
96 1229 m 1,0,-1
 96 1350 l 1,1,-1
 509 1350 l 1,2,-1
 509 -267 l 1,3,-1
 96 -267 l 1,4,-1
 96 -147 l 1,5,-1
 351 -147 l 1,6,-1
 351 1229 l 1,7,-1
 96 1229 l 1,0,-1
EndSplineSet
EndUndoOperation
EndUndoes
Redoes
EndRedoes
EndUndoRedoHistory
Fore
SplineSet
96 1229 m 1,0,-1
 96 1350 l 1,1,-1
 509 1350 l 1,2,-1
 509 -267 l 1,3,-1
 96 -267 l 1,4,-1
 96 -147 l 1,5,-1
 351 -147 l 1,6,-1
 351 1229 l 1,7,-1
 96 1229 l 1,0,-1
EndSplineSet
EndChar

StartChar: asciicircum
Encoding: 94 94 65
Width: 1143
GlyphClass: 2
Flags: W
LayerCount: 2
UndoRedoHistory
Layer: 1
Undoes
UndoOperation
Index: 0
Type: 1
WasModified: 0
WasOrder2: 1
Width: 1143
VWidth: 2048
LBearingChange: 0
UnicodeEnc: 0
InstructionsLength: 0
SplineSet
109 536 m 1,0,-1
 514 1380 l 1,1,-1
 607 1380 l 1,2,-1
 1035 536 l 1,3,-1
 905 536 l 1,4,-1
 561 1215 l 1,5,-1
 241 536 l 1,6,-1
 109 536 l 1,0,-1
EndSplineSet
EndUndoOperation
UndoOperation
Index: 1
Type: 1
WasModified: 0
WasOrder2: 1
Width: 1143
VWidth: 2048
LBearingChange: 0
UnicodeEnc: 0
InstructionsLength: 0
SplineSet
109 536 m 1,0,-1
 514 1380 l 1,1,-1
 607 1380 l 1,2,-1
 1035 536 l 1,3,-1
 905 536 l 1,4,-1
 561 1215 l 1,5,-1
 241 536 l 1,6,-1
 109 536 l 1,0,-1
EndSplineSet
EndUndoOperation
EndUndoes
Redoes
EndRedoes
EndUndoRedoHistory
Fore
SplineSet
109 536 m 1,0,-1
 514 1380 l 1,1,-1
 607 1380 l 1,2,-1
 1035 536 l 1,3,-1
 905 536 l 1,4,-1
 561 1215 l 1,5,-1
 241 536 l 1,6,-1
 109 536 l 1,0,-1
EndSplineSet
EndChar

StartChar: underscore
Encoding: 95 95 66
Width: 1009
GlyphClass: 2
Flags: W
LayerCount: 2
UndoRedoHistory
Layer: 1
Undoes
UndoOperation
Index: 0
Type: 1
WasModified: 0
WasOrder2: 1
Width: 1009
VWidth: 2048
LBearingChange: 0
UnicodeEnc: 0
InstructionsLength: 0
SplineSet
78 -277 m 1,0,-1
 78 -155 l 1,1,-1
 933 -155 l 1,2,-1
 933 -277 l 1,3,-1
 78 -277 l 1,0,-1
EndSplineSet
EndUndoOperation
UndoOperation
Index: 1
Type: 1
WasModified: 0
WasOrder2: 1
Width: 1009
VWidth: 2048
LBearingChange: 0
UnicodeEnc: 0
InstructionsLength: 0
SplineSet
78 -277 m 1,0,-1
 78 -155 l 1,1,-1
 933 -155 l 1,2,-1
 933 -277 l 1,3,-1
 78 -277 l 1,0,-1
EndSplineSet
EndUndoOperation
EndUndoes
Redoes
EndRedoes
EndUndoRedoHistory
Fore
SplineSet
78 -277 m 1,0,-1
 78 -155 l 1,1,-1
 933 -155 l 1,2,-1
 933 -277 l 1,3,-1
 78 -277 l 1,0,-1
EndSplineSet
EndChar

StartChar: grave
Encoding: 96 96 67
Width: 585
GlyphClass: 2
Flags: W
LayerCount: 2
UndoRedoHistory
Layer: 1
Undoes
UndoOperation
Index: 0
Type: 1
WasModified: 0
WasOrder2: 1
Width: 585
VWidth: 2048
LBearingChange: 0
UnicodeEnc: 0
InstructionsLength: 0
SplineSet
371 1138 m 1,0,-1
 77 1491 l 1,1,-1
 305 1491 l 1,2,-1
 473 1138 l 1,3,-1
 371 1138 l 1,0,-1
EndSplineSet
EndUndoOperation
UndoOperation
Index: 1
Type: 1
WasModified: 0
WasOrder2: 1
Width: 585
VWidth: 2048
LBearingChange: 0
UnicodeEnc: 0
InstructionsLength: 0
SplineSet
371 1138 m 1,0,-1
 77 1491 l 1,1,-1
 305 1491 l 1,2,-1
 473 1138 l 1,3,-1
 371 1138 l 1,0,-1
EndSplineSet
EndUndoOperation
EndUndoes
Redoes
EndRedoes
EndUndoRedoHistory
Fore
SplineSet
371 1138 m 1,0,-1
 77 1491 l 1,1,-1
 305 1491 l 1,2,-1
 473 1138 l 1,3,-1
 371 1138 l 1,0,-1
EndSplineSet
EndChar

StartChar: a
Encoding: 97 97 68
Width: 1093
GlyphClass: 2
Flags: W
LayerCount: 2
UndoRedoHistory
Layer: 1
Undoes
UndoOperation
Index: 0
Type: 1
WasModified: 0
WasOrder2: 1
Width: 1093
VWidth: 2048
LBearingChange: 0
UnicodeEnc: 0
InstructionsLength: 0
SplineSet
461 102 m 0,0,1
 556 102 556 102 650 145.5 c 128,-1,2
 744 189 744 189 767 251 c 1,3,-1
 767 490 l 1,4,5
 674 481 674 481 651 478 c 0,6,7
 451 454 451 454 376 409.5 c 128,-1,8
 301 365 301 365 301 262 c 0,9,10
 301 184 301 184 347.5 143 c 128,-1,11
 394 102 394 102 461 102 c 0,0,1
438 -21 m 0,12,13
 301 -21 301 -21 214 54 c 128,-1,14
 127 129 127 129 127 263 c 0,15,16
 127 417 127 417 246 491.5 c 128,-1,17
 365 566 365 566 592 583 c 1,18,-1
 767 597 l 1,19,-1
 767 685 l 2,20,21
 767 788 767 788 714.5 837 c 128,-1,22
 662 886 662 886 554 886 c 0,23,24
 480 886 480 886 388 866 c 128,-1,25
 296 846 296 846 227 812 c 1,26,27
 214 844 214 844 180 935 c 1,28,29
 245 971 245 971 349.5 995 c 128,-1,30
 454 1019 454 1019 550 1019 c 0,31,32
 742 1019 742 1019 842 936 c 128,-1,33
 942 853 942 853 942 661 c 2,34,-1
 942 0 l 1,35,-1
 801 0 l 1,36,-1
 774 112 l 1,37,38
 730 47 730 47 637.5 13 c 128,-1,39
 545 -21 545 -21 438 -21 c 0,12,13
EndSplineSet
EndUndoOperation
UndoOperation
Index: 1
Type: 1
WasModified: 0
WasOrder2: 1
Width: 1093
VWidth: 2048
LBearingChange: 0
UnicodeEnc: 0
InstructionsLength: 0
SplineSet
461 102 m 0,0,1
 556 102 556 102 650 145.5 c 128,-1,2
 744 189 744 189 767 251 c 1,3,-1
 767 490 l 1,4,5
 674 481 674 481 651 478 c 0,6,7
 451 454 451 454 376 409.5 c 128,-1,8
 301 365 301 365 301 262 c 0,9,10
 301 184 301 184 347.5 143 c 128,-1,11
 394 102 394 102 461 102 c 0,0,1
438 -21 m 0,12,13
 301 -21 301 -21 214 54 c 128,-1,14
 127 129 127 129 127 263 c 0,15,16
 127 417 127 417 246 491.5 c 128,-1,17
 365 566 365 566 592 583 c 1,18,-1
 767 597 l 1,19,-1
 767 685 l 2,20,21
 767 788 767 788 714.5 837 c 128,-1,22
 662 886 662 886 554 886 c 0,23,24
 480 886 480 886 388 866 c 128,-1,25
 296 846 296 846 227 812 c 1,26,27
 214 844 214 844 180 935 c 1,28,29
 245 971 245 971 349.5 995 c 128,-1,30
 454 1019 454 1019 550 1019 c 0,31,32
 742 1019 742 1019 842 936 c 128,-1,33
 942 853 942 853 942 661 c 2,34,-1
 942 0 l 1,35,-1
 801 0 l 1,36,-1
 774 112 l 1,37,38
 730 47 730 47 637.5 13 c 128,-1,39
 545 -21 545 -21 438 -21 c 0,12,13
EndSplineSet
EndUndoOperation
EndUndoes
Redoes
EndRedoes
EndUndoRedoHistory
Fore
SplineSet
461 102 m 0,0,1
 556 102 556 102 650 145.5 c 128,-1,2
 744 189 744 189 767 251 c 1,3,-1
 767 490 l 1,4,5
 674 481 674 481 651 478 c 0,6,7
 451 454 451 454 376 409.5 c 128,-1,8
 301 365 301 365 301 262 c 0,9,10
 301 184 301 184 347.5 143 c 128,-1,11
 394 102 394 102 461 102 c 0,0,1
438 -21 m 0,12,13
 301 -21 301 -21 214 54 c 128,-1,14
 127 129 127 129 127 263 c 0,15,16
 127 417 127 417 246 491.5 c 128,-1,17
 365 566 365 566 592 583 c 1,18,-1
 767 597 l 1,19,-1
 767 685 l 2,20,21
 767 788 767 788 714.5 837 c 128,-1,22
 662 886 662 886 554 886 c 0,23,24
 480 886 480 886 388 866 c 128,-1,25
 296 846 296 846 227 812 c 1,26,27
 214 844 214 844 180 935 c 1,28,29
 245 971 245 971 349.5 995 c 128,-1,30
 454 1019 454 1019 550 1019 c 0,31,32
 742 1019 742 1019 842 936 c 128,-1,33
 942 853 942 853 942 661 c 2,34,-1
 942 0 l 1,35,-1
 801 0 l 1,36,-1
 774 112 l 1,37,38
 730 47 730 47 637.5 13 c 128,-1,39
 545 -21 545 -21 438 -21 c 0,12,13
EndSplineSet
EndChar

StartChar: b
Encoding: 98 98 69
Width: 1188
GlyphClass: 2
Flags: W
LayerCount: 2
UndoRedoHistory
Layer: 1
Undoes
UndoOperation
Index: 0
Type: 1
WasModified: 0
WasOrder2: 1
Width: 1188
VWidth: 2048
LBearingChange: 0
UnicodeEnc: 0
InstructionsLength: 0
SplineSet
620 108 m 0,0,1
 762 108 762 108 836 213 c 128,-1,2
 910 318 910 318 910 499 c 0,3,4
 910 682 910 682 835 786.5 c 128,-1,5
 760 891 760 891 619 891 c 0,6,7
 463 891 463 891 395.5 788 c 128,-1,8
 328 685 328 685 328 482 c 0,9,10
 328 108 328 108 620 108 c 0,0,1
646 -21 m 0,11,12
 541 -21 541 -21 454.5 27.5 c 128,-1,13
 368 76 368 76 328 163 c 1,14,-1
 311 0 l 1,15,-1
 153 0 l 1,16,-1
 153 1395 l 1,17,-1
 328 1409 l 1,18,-1
 328 1053 l 2,19,20
 328 944 328 944 323 862 c 1,21,22
 373 933 373 933 461 976 c 128,-1,23
 549 1019 549 1019 647 1019 c 0,24,25
 841 1019 841 1019 963 874 c 128,-1,26
 1085 729 1085 729 1085 504 c 0,27,28
 1085 269 1085 269 968 124 c 128,-1,29
 851 -21 851 -21 646 -21 c 0,11,12
EndSplineSet
EndUndoOperation
UndoOperation
Index: 1
Type: 1
WasModified: 0
WasOrder2: 1
Width: 1188
VWidth: 2048
LBearingChange: 0
UnicodeEnc: 0
InstructionsLength: 0
SplineSet
620 108 m 0,0,1
 762 108 762 108 836 213 c 128,-1,2
 910 318 910 318 910 499 c 0,3,4
 910 682 910 682 835 786.5 c 128,-1,5
 760 891 760 891 619 891 c 0,6,7
 463 891 463 891 395.5 788 c 128,-1,8
 328 685 328 685 328 482 c 0,9,10
 328 108 328 108 620 108 c 0,0,1
646 -21 m 0,11,12
 541 -21 541 -21 454.5 27.5 c 128,-1,13
 368 76 368 76 328 163 c 1,14,-1
 311 0 l 1,15,-1
 153 0 l 1,16,-1
 153 1395 l 1,17,-1
 328 1409 l 1,18,-1
 328 1053 l 2,19,20
 328 944 328 944 323 862 c 1,21,22
 373 933 373 933 461 976 c 128,-1,23
 549 1019 549 1019 647 1019 c 0,24,25
 841 1019 841 1019 963 874 c 128,-1,26
 1085 729 1085 729 1085 504 c 0,27,28
 1085 269 1085 269 968 124 c 128,-1,29
 851 -21 851 -21 646 -21 c 0,11,12
EndSplineSet
EndUndoOperation
EndUndoes
Redoes
EndRedoes
EndUndoRedoHistory
Fore
SplineSet
620 108 m 0,0,1
 762 108 762 108 836 213 c 128,-1,2
 910 318 910 318 910 499 c 0,3,4
 910 682 910 682 835 786.5 c 128,-1,5
 760 891 760 891 619 891 c 0,6,7
 463 891 463 891 395.5 788 c 128,-1,8
 328 685 328 685 328 482 c 0,9,10
 328 108 328 108 620 108 c 0,0,1
646 -21 m 0,11,12
 541 -21 541 -21 454.5 27.5 c 128,-1,13
 368 76 368 76 328 163 c 1,14,-1
 311 0 l 1,15,-1
 153 0 l 1,16,-1
 153 1395 l 1,17,-1
 328 1409 l 1,18,-1
 328 1053 l 2,19,20
 328 944 328 944 323 862 c 1,21,22
 373 933 373 933 461 976 c 128,-1,23
 549 1019 549 1019 647 1019 c 0,24,25
 841 1019 841 1019 963 874 c 128,-1,26
 1085 729 1085 729 1085 504 c 0,27,28
 1085 269 1085 269 968 124 c 128,-1,29
 851 -21 851 -21 646 -21 c 0,11,12
EndSplineSet
EndChar

StartChar: c
Encoding: 99 99 70
Width: 945
GlyphClass: 2
Flags: W
LayerCount: 2
UndoRedoHistory
Layer: 1
Undoes
UndoOperation
Index: 0
Type: 1
WasModified: 0
WasOrder2: 1
Width: 945
VWidth: 2048
LBearingChange: 0
UnicodeEnc: 0
InstructionsLength: 0
SplineSet
581 -21 m 0,0,1
 371 -21 371 -21 237 124.5 c 128,-1,2
 103 270 103 270 103 496 c 0,3,4
 103 729 103 729 239 874 c 128,-1,5
 375 1019 375 1019 587 1019 c 0,6,7
 665 1019 665 1019 740.5 999.5 c 128,-1,8
 816 980 816 980 858 950 c 1,9,-1
 816 832 l 1,10,11
 715 886 715 886 610 886 c 0,12,13
 454 886 454 886 365.5 780.5 c 128,-1,14
 277 675 277 675 277 495 c 0,15,16
 277 320 277 320 364.5 216 c 128,-1,17
 452 112 452 112 610 112 c 0,18,19
 669 112 669 112 718 127.5 c 128,-1,20
 767 143 767 143 829 175 c 1,21,-1
 852 51 l 1,22,23
 753 -21 753 -21 581 -21 c 0,0,1
EndSplineSet
EndUndoOperation
UndoOperation
Index: 1
Type: 1
WasModified: 0
WasOrder2: 1
Width: 945
VWidth: 2048
LBearingChange: 0
UnicodeEnc: 0
InstructionsLength: 0
SplineSet
581 -21 m 0,0,1
 371 -21 371 -21 237 124.5 c 128,-1,2
 103 270 103 270 103 496 c 0,3,4
 103 729 103 729 239 874 c 128,-1,5
 375 1019 375 1019 587 1019 c 0,6,7
 665 1019 665 1019 740.5 999.5 c 128,-1,8
 816 980 816 980 858 950 c 1,9,-1
 816 832 l 1,10,11
 715 886 715 886 610 886 c 0,12,13
 454 886 454 886 365.5 780.5 c 128,-1,14
 277 675 277 675 277 495 c 0,15,16
 277 320 277 320 364.5 216 c 128,-1,17
 452 112 452 112 610 112 c 0,18,19
 669 112 669 112 718 127.5 c 128,-1,20
 767 143 767 143 829 175 c 1,21,-1
 852 51 l 1,22,23
 753 -21 753 -21 581 -21 c 0,0,1
EndSplineSet
EndUndoOperation
EndUndoes
Redoes
EndRedoes
EndUndoRedoHistory
Fore
SplineSet
581 -21 m 0,0,1
 371 -21 371 -21 237 124.5 c 128,-1,2
 103 270 103 270 103 496 c 0,3,4
 103 729 103 729 239 874 c 128,-1,5
 375 1019 375 1019 587 1019 c 0,6,7
 665 1019 665 1019 740.5 999.5 c 128,-1,8
 816 980 816 980 858 950 c 1,9,-1
 816 832 l 1,10,11
 715 886 715 886 610 886 c 0,12,13
 454 886 454 886 365.5 780.5 c 128,-1,14
 277 675 277 675 277 495 c 0,15,16
 277 320 277 320 364.5 216 c 128,-1,17
 452 112 452 112 610 112 c 0,18,19
 669 112 669 112 718 127.5 c 128,-1,20
 767 143 767 143 829 175 c 1,21,-1
 852 51 l 1,22,23
 753 -21 753 -21 581 -21 c 0,0,1
EndSplineSet
EndChar

StartChar: d
Encoding: 100 100 71
Width: 1182
GlyphClass: 2
Flags: W
LayerCount: 2
UndoRedoHistory
Layer: 1
Undoes
UndoOperation
Index: 0
Type: 1
WasModified: 0
WasOrder2: 1
Width: 1182
VWidth: 2048
LBearingChange: 0
UnicodeEnc: 0
InstructionsLength: 0
SplineSet
568 108 m 0,0,1
 860 108 860 108 860 482 c 0,2,3
 860 685 860 685 792.5 788 c 128,-1,4
 725 891 725 891 569 891 c 0,5,6
 428 891 428 891 352.5 786 c 128,-1,7
 277 681 277 681 277 499 c 0,8,9
 277 318 277 318 351.5 213 c 128,-1,10
 426 108 426 108 568 108 c 0,0,1
541 -21 m 0,11,12
 336 -21 336 -21 219.5 124 c 128,-1,13
 103 269 103 269 103 504 c 0,14,15
 103 732 103 732 224.5 875.5 c 128,-1,16
 346 1019 346 1019 540 1019 c 0,17,18
 638 1019 638 1019 726 976 c 128,-1,19
 814 933 814 933 864 862 c 1,20,21
 860 928 860 928 860 1053 c 2,22,-1
 860 1395 l 1,23,-1
 1035 1409 l 1,24,-1
 1035 0 l 1,25,-1
 877 0 l 1,26,-1
 860 163 l 1,27,28
 820 76 820 76 733 27.5 c 128,-1,29
 646 -21 646 -21 541 -21 c 0,11,12
EndSplineSet
EndUndoOperation
UndoOperation
Index: 1
Type: 1
WasModified: 0
WasOrder2: 1
Width: 1182
VWidth: 2048
LBearingChange: 0
UnicodeEnc: 0
InstructionsLength: 0
SplineSet
568 108 m 0,0,1
 860 108 860 108 860 482 c 0,2,3
 860 685 860 685 792.5 788 c 128,-1,4
 725 891 725 891 569 891 c 0,5,6
 428 891 428 891 352.5 786 c 128,-1,7
 277 681 277 681 277 499 c 0,8,9
 277 318 277 318 351.5 213 c 128,-1,10
 426 108 426 108 568 108 c 0,0,1
541 -21 m 0,11,12
 336 -21 336 -21 219.5 124 c 128,-1,13
 103 269 103 269 103 504 c 0,14,15
 103 732 103 732 224.5 875.5 c 128,-1,16
 346 1019 346 1019 540 1019 c 0,17,18
 638 1019 638 1019 726 976 c 128,-1,19
 814 933 814 933 864 862 c 1,20,21
 860 928 860 928 860 1053 c 2,22,-1
 860 1395 l 1,23,-1
 1035 1409 l 1,24,-1
 1035 0 l 1,25,-1
 877 0 l 1,26,-1
 860 163 l 1,27,28
 820 76 820 76 733 27.5 c 128,-1,29
 646 -21 646 -21 541 -21 c 0,11,12
EndSplineSet
EndUndoOperation
EndUndoes
Redoes
EndRedoes
EndUndoRedoHistory
Fore
SplineSet
568 108 m 0,0,1
 860 108 860 108 860 482 c 0,2,3
 860 685 860 685 792.5 788 c 128,-1,4
 725 891 725 891 569 891 c 0,5,6
 428 891 428 891 352.5 786 c 128,-1,7
 277 681 277 681 277 499 c 0,8,9
 277 318 277 318 351.5 213 c 128,-1,10
 426 108 426 108 568 108 c 0,0,1
541 -21 m 0,11,12
 336 -21 336 -21 219.5 124 c 128,-1,13
 103 269 103 269 103 504 c 0,14,15
 103 732 103 732 224.5 875.5 c 128,-1,16
 346 1019 346 1019 540 1019 c 0,17,18
 638 1019 638 1019 726 976 c 128,-1,19
 814 933 814 933 864 862 c 1,20,21
 860 928 860 928 860 1053 c 2,22,-1
 860 1395 l 1,23,-1
 1035 1409 l 1,24,-1
 1035 0 l 1,25,-1
 877 0 l 1,26,-1
 860 163 l 1,27,28
 820 76 820 76 733 27.5 c 128,-1,29
 646 -21 646 -21 541 -21 c 0,11,12
EndSplineSet
EndChar

StartChar: e
Encoding: 101 101 72
Width: 1108
GlyphClass: 2
Flags: W
LayerCount: 2
UndoRedoHistory
Layer: 1
Undoes
UndoOperation
Index: 0
Type: 1
WasModified: 0
WasOrder2: 1
Width: 1108
VWidth: 2048
LBearingChange: 0
UnicodeEnc: 0
InstructionsLength: 0
SplineSet
597 -21 m 0,0,1
 377 -21 377 -21 240 119 c 128,-1,2
 103 259 103 259 103 496 c 0,3,4
 103 724 103 724 240.5 871.5 c 128,-1,5
 378 1019 378 1019 578 1019 c 0,6,7
 768 1019 768 1019 873 892.5 c 128,-1,8
 978 766 978 766 978 553 c 1,9,-1
 972 469 l 1,10,-1
 275 469 l 1,11,12
 278 302 278 302 376 207 c 128,-1,13
 474 112 474 112 622 112 c 0,14,15
 769 112 769 112 932 197 c 1,16,-1
 956 65 l 1,17,18
 814 -21 814 -21 597 -21 c 0,0,1
279 582 m 1,19,-1
 814 582 l 1,20,21
 810 734 810 734 755.5 811 c 128,-1,22
 701 888 701 888 583 888 c 0,23,24
 463 888 463 888 377 804.5 c 128,-1,25
 291 721 291 721 279 582 c 1,19,-1
EndSplineSet
EndUndoOperation
UndoOperation
Index: 1
Type: 1
WasModified: 0
WasOrder2: 1
Width: 1108
VWidth: 2048
LBearingChange: 0
UnicodeEnc: 0
InstructionsLength: 0
SplineSet
597 -21 m 0,0,1
 377 -21 377 -21 240 119 c 128,-1,2
 103 259 103 259 103 496 c 0,3,4
 103 724 103 724 240.5 871.5 c 128,-1,5
 378 1019 378 1019 578 1019 c 0,6,7
 768 1019 768 1019 873 892.5 c 128,-1,8
 978 766 978 766 978 553 c 1,9,-1
 972 469 l 1,10,-1
 275 469 l 1,11,12
 278 302 278 302 376 207 c 128,-1,13
 474 112 474 112 622 112 c 0,14,15
 769 112 769 112 932 197 c 1,16,-1
 956 65 l 1,17,18
 814 -21 814 -21 597 -21 c 0,0,1
279 582 m 1,19,-1
 814 582 l 1,20,21
 810 734 810 734 755.5 811 c 128,-1,22
 701 888 701 888 583 888 c 0,23,24
 463 888 463 888 377 804.5 c 128,-1,25
 291 721 291 721 279 582 c 1,19,-1
EndSplineSet
EndUndoOperation
EndUndoes
Redoes
EndRedoes
EndUndoRedoHistory
Fore
SplineSet
597 -21 m 0,0,1
 377 -21 377 -21 240 119 c 128,-1,2
 103 259 103 259 103 496 c 0,3,4
 103 724 103 724 240.5 871.5 c 128,-1,5
 378 1019 378 1019 578 1019 c 0,6,7
 768 1019 768 1019 873 892.5 c 128,-1,8
 978 766 978 766 978 553 c 1,9,-1
 972 469 l 1,10,-1
 275 469 l 1,11,12
 278 302 278 302 376 207 c 128,-1,13
 474 112 474 112 622 112 c 0,14,15
 769 112 769 112 932 197 c 1,16,-1
 956 65 l 1,17,18
 814 -21 814 -21 597 -21 c 0,0,1
279 582 m 1,19,-1
 814 582 l 1,20,21
 810 734 810 734 755.5 811 c 128,-1,22
 701 888 701 888 583 888 c 0,23,24
 463 888 463 888 377 804.5 c 128,-1,25
 291 721 291 721 279 582 c 1,19,-1
EndSplineSet
EndChar

StartChar: f
Encoding: 102 102 73
Width: 767
GlyphClass: 2
Flags: W
LayerCount: 2
UndoRedoHistory
Layer: 1
Undoes
UndoOperation
Index: 0
Type: 1
WasModified: 0
WasOrder2: 1
Width: 767
VWidth: 2048
LBearingChange: 0
UnicodeEnc: 0
InstructionsLength: 0
SplineSet
252 0 m 1,0,-1
 252 886 l 1,1,-1
 45 886 l 1,2,-1
 50 981 l 1,3,-1
 252 998 l 1,4,-1
 252 1061 l 2,5,6
 252 1246 252 1246 327.5 1328 c 128,-1,7
 403 1410 403 1410 544 1410 c 0,8,9
 574 1410 574 1410 629.5 1404 c 128,-1,10
 685 1398 685 1398 702 1394 c 1,11,-1
 690 1263 l 1,12,13
 628 1273 628 1273 584 1273 c 0,14,15
 502 1273 502 1273 464.5 1226.5 c 128,-1,16
 427 1180 427 1180 427 1055 c 2,17,-1
 427 998 l 1,18,-1
 660 998 l 1,19,-1
 660 886 l 1,20,-1
 427 886 l 1,21,-1
 427 0 l 1,22,-1
 252 0 l 1,0,-1
EndSplineSet
EndUndoOperation
UndoOperation
Index: 1
Type: 1
WasModified: 0
WasOrder2: 1
Width: 767
VWidth: 2048
LBearingChange: 0
UnicodeEnc: 0
InstructionsLength: 0
SplineSet
252 0 m 1,0,-1
 252 886 l 1,1,-1
 45 886 l 1,2,-1
 50 981 l 1,3,-1
 252 998 l 1,4,-1
 252 1061 l 2,5,6
 252 1246 252 1246 327.5 1328 c 128,-1,7
 403 1410 403 1410 544 1410 c 0,8,9
 574 1410 574 1410 629.5 1404 c 128,-1,10
 685 1398 685 1398 702 1394 c 1,11,-1
 690 1263 l 1,12,13
 628 1273 628 1273 584 1273 c 0,14,15
 502 1273 502 1273 464.5 1226.5 c 128,-1,16
 427 1180 427 1180 427 1055 c 2,17,-1
 427 998 l 1,18,-1
 660 998 l 1,19,-1
 660 886 l 1,20,-1
 427 886 l 1,21,-1
 427 0 l 1,22,-1
 252 0 l 1,0,-1
EndSplineSet
EndUndoOperation
EndUndoes
Redoes
EndRedoes
EndUndoRedoHistory
Fore
SplineSet
252 0 m 1,0,-1
 252 886 l 1,1,-1
 45 886 l 1,2,-1
 50 981 l 1,3,-1
 252 998 l 1,4,-1
 252 1061 l 2,5,6
 252 1246 252 1246 327.5 1328 c 128,-1,7
 403 1410 403 1410 544 1410 c 0,8,9
 574 1410 574 1410 629.5 1404 c 128,-1,10
 685 1398 685 1398 702 1394 c 1,11,-1
 690 1263 l 1,12,13
 628 1273 628 1273 584 1273 c 0,14,15
 502 1273 502 1273 464.5 1226.5 c 128,-1,16
 427 1180 427 1180 427 1055 c 2,17,-1
 427 998 l 1,18,-1
 660 998 l 1,19,-1
 660 886 l 1,20,-1
 427 886 l 1,21,-1
 427 0 l 1,22,-1
 252 0 l 1,0,-1
EndSplineSet
EndChar

StartChar: g
Encoding: 103 103 74
Width: 1183
GlyphClass: 2
Flags: W
LayerCount: 2
UndoRedoHistory
Layer: 1
Undoes
UndoOperation
Index: 0
Type: 1
WasModified: 0
WasOrder2: 1
Width: 1183
VWidth: 2048
LBearingChange: 0
UnicodeEnc: 0
InstructionsLength: 0
SplineSet
524 -425 m 0,0,1
 407 -425 407 -425 267 -390 c 1,2,-1
 278 -262 l 1,3,4
 383 -291 383 -291 511 -291 c 0,5,6
 697 -291 697 -291 778.5 -209.5 c 128,-1,7
 860 -128 860 -128 860 73 c 2,8,-1
 860 191 l 1,9,10
 824 100 824 100 745 50 c 128,-1,11
 666 0 666 0 550 0 c 0,12,13
 443 0 443 0 356 42.5 c 128,-1,14
 269 85 269 85 215 155.5 c 128,-1,15
 161 226 161 226 132 314 c 128,-1,16
 103 402 103 402 103 496 c 0,17,18
 103 604 103 604 131 697.5 c 128,-1,19
 159 791 159 791 213 863.5 c 128,-1,20
 267 936 267 936 354.5 977.5 c 128,-1,21
 442 1019 442 1019 553 1019 c 0,22,23
 750 1019 750 1019 864 865 c 1,24,-1
 876 998 l 1,25,-1
 1035 998 l 1,26,-1
 1035 148 l 2,27,28
 1035 42 1035 42 1021.5 -41 c 128,-1,29
 1008 -124 1008 -124 973 -198 c 128,-1,30
 938 -272 938 -272 881 -320.5 c 128,-1,31
 824 -369 824 -369 734 -397 c 128,-1,32
 644 -425 644 -425 524 -425 c 0,0,1
563 130 m 0,33,34
 641 130 641 130 699.5 157.5 c 128,-1,35
 758 185 758 185 792.5 233.5 c 128,-1,36
 827 282 827 282 843.5 341 c 128,-1,37
 860 400 860 400 860 470 c 2,38,-1
 860 543 l 2,39,40
 860 642 860 642 831 718 c 128,-1,41
 802 794 802 794 734 842.5 c 128,-1,42
 666 891 666 891 567 891 c 0,43,44
 489 891 489 891 430.5 855.5 c 128,-1,45
 372 820 372 820 340 761.5 c 128,-1,46
 308 703 308 703 292.5 638 c 128,-1,47
 277 573 277 573 277 504 c 0,48,49
 277 451 277 451 286.5 399.5 c 128,-1,50
 296 348 296 348 318 298.5 c 128,-1,51
 340 249 340 249 372.5 212 c 128,-1,52
 405 175 405 175 454 152.5 c 128,-1,53
 503 130 503 130 563 130 c 0,33,34
EndSplineSet
EndUndoOperation
UndoOperation
Index: 1
Type: 1
WasModified: 0
WasOrder2: 1
Width: 1183
VWidth: 2048
LBearingChange: 0
UnicodeEnc: 0
InstructionsLength: 0
SplineSet
524 -425 m 0,0,1
 407 -425 407 -425 267 -390 c 1,2,-1
 278 -262 l 1,3,4
 383 -291 383 -291 511 -291 c 0,5,6
 697 -291 697 -291 778.5 -209.5 c 128,-1,7
 860 -128 860 -128 860 73 c 2,8,-1
 860 191 l 1,9,10
 824 100 824 100 745 50 c 128,-1,11
 666 0 666 0 550 0 c 0,12,13
 443 0 443 0 356 42.5 c 128,-1,14
 269 85 269 85 215 155.5 c 128,-1,15
 161 226 161 226 132 314 c 128,-1,16
 103 402 103 402 103 496 c 0,17,18
 103 604 103 604 131 697.5 c 128,-1,19
 159 791 159 791 213 863.5 c 128,-1,20
 267 936 267 936 354.5 977.5 c 128,-1,21
 442 1019 442 1019 553 1019 c 0,22,23
 750 1019 750 1019 864 865 c 1,24,-1
 876 998 l 1,25,-1
 1035 998 l 1,26,-1
 1035 148 l 2,27,28
 1035 42 1035 42 1021.5 -41 c 128,-1,29
 1008 -124 1008 -124 973 -198 c 128,-1,30
 938 -272 938 -272 881 -320.5 c 128,-1,31
 824 -369 824 -369 734 -397 c 128,-1,32
 644 -425 644 -425 524 -425 c 0,0,1
563 130 m 0,33,34
 641 130 641 130 699.5 157.5 c 128,-1,35
 758 185 758 185 792.5 233.5 c 128,-1,36
 827 282 827 282 843.5 341 c 128,-1,37
 860 400 860 400 860 470 c 2,38,-1
 860 543 l 2,39,40
 860 642 860 642 831 718 c 128,-1,41
 802 794 802 794 734 842.5 c 128,-1,42
 666 891 666 891 567 891 c 0,43,44
 489 891 489 891 430.5 855.5 c 128,-1,45
 372 820 372 820 340 761.5 c 128,-1,46
 308 703 308 703 292.5 638 c 128,-1,47
 277 573 277 573 277 504 c 0,48,49
 277 451 277 451 286.5 399.5 c 128,-1,50
 296 348 296 348 318 298.5 c 128,-1,51
 340 249 340 249 372.5 212 c 128,-1,52
 405 175 405 175 454 152.5 c 128,-1,53
 503 130 503 130 563 130 c 0,33,34
EndSplineSet
EndUndoOperation
EndUndoes
Redoes
EndRedoes
EndUndoRedoHistory
Fore
SplineSet
524 -425 m 0,0,1
 407 -425 407 -425 267 -390 c 1,2,-1
 278 -262 l 1,3,4
 383 -291 383 -291 511 -291 c 0,5,6
 697 -291 697 -291 778.5 -209.5 c 128,-1,7
 860 -128 860 -128 860 73 c 2,8,-1
 860 191 l 1,9,10
 824 100 824 100 745 50 c 128,-1,11
 666 0 666 0 550 0 c 0,12,13
 443 0 443 0 356 42.5 c 128,-1,14
 269 85 269 85 215 155.5 c 128,-1,15
 161 226 161 226 132 314 c 128,-1,16
 103 402 103 402 103 496 c 0,17,18
 103 604 103 604 131 697.5 c 128,-1,19
 159 791 159 791 213 863.5 c 128,-1,20
 267 936 267 936 354.5 977.5 c 128,-1,21
 442 1019 442 1019 553 1019 c 0,22,23
 750 1019 750 1019 864 865 c 1,24,-1
 876 998 l 1,25,-1
 1035 998 l 1,26,-1
 1035 148 l 2,27,28
 1035 42 1035 42 1021.5 -41 c 128,-1,29
 1008 -124 1008 -124 973 -198 c 128,-1,30
 938 -272 938 -272 881 -320.5 c 128,-1,31
 824 -369 824 -369 734 -397 c 128,-1,32
 644 -425 644 -425 524 -425 c 0,0,1
563 130 m 0,33,34
 641 130 641 130 699.5 157.5 c 128,-1,35
 758 185 758 185 792.5 233.5 c 128,-1,36
 827 282 827 282 843.5 341 c 128,-1,37
 860 400 860 400 860 470 c 2,38,-1
 860 543 l 2,39,40
 860 642 860 642 831 718 c 128,-1,41
 802 794 802 794 734 842.5 c 128,-1,42
 666 891 666 891 567 891 c 0,43,44
 489 891 489 891 430.5 855.5 c 128,-1,45
 372 820 372 820 340 761.5 c 128,-1,46
 308 703 308 703 292.5 638 c 128,-1,47
 277 573 277 573 277 504 c 0,48,49
 277 451 277 451 286.5 399.5 c 128,-1,50
 296 348 296 348 318 298.5 c 128,-1,51
 340 249 340 249 372.5 212 c 128,-1,52
 405 175 405 175 454 152.5 c 128,-1,53
 503 130 503 130 563 130 c 0,33,34
EndSplineSet
EndChar

StartChar: h
Encoding: 104 104 75
Width: 1094
GlyphClass: 2
Flags: W
LayerCount: 2
UndoRedoHistory
Layer: 1
Undoes
UndoOperation
Index: 0
Type: 1
WasModified: 0
WasOrder2: 1
Width: 1094
VWidth: 2048
LBearingChange: 0
UnicodeEnc: 0
InstructionsLength: 0
SplineSet
149 1395 m 1,0,-1
 324 1409 l 1,1,-1
 324 864 l 1,2,3
 367 938 367 938 447 978.5 c 128,-1,4
 527 1019 527 1019 631 1019 c 0,5,6
 802 1019 802 1019 883.5 917 c 128,-1,7
 965 815 965 815 965 612 c 2,8,-1
 965 0 l 1,9,-1
 790 0 l 1,10,-1
 790 623 l 2,11,12
 790 757 790 757 749.5 823 c 128,-1,13
 709 889 709 889 601 889 c 0,14,15
 448 889 448 889 386 801 c 128,-1,16
 324 713 324 713 324 546 c 2,17,-1
 324 0 l 1,18,-1
 149 0 l 1,19,-1
 149 1395 l 1,0,-1
EndSplineSet
EndUndoOperation
UndoOperation
Index: 1
Type: 1
WasModified: 0
WasOrder2: 1
Width: 1094
VWidth: 2048
LBearingChange: 0
UnicodeEnc: 0
InstructionsLength: 0
SplineSet
149 1395 m 1,0,-1
 324 1409 l 1,1,-1
 324 864 l 1,2,3
 367 938 367 938 447 978.5 c 128,-1,4
 527 1019 527 1019 631 1019 c 0,5,6
 802 1019 802 1019 883.5 917 c 128,-1,7
 965 815 965 815 965 612 c 2,8,-1
 965 0 l 1,9,-1
 790 0 l 1,10,-1
 790 623 l 2,11,12
 790 757 790 757 749.5 823 c 128,-1,13
 709 889 709 889 601 889 c 0,14,15
 448 889 448 889 386 801 c 128,-1,16
 324 713 324 713 324 546 c 2,17,-1
 324 0 l 1,18,-1
 149 0 l 1,19,-1
 149 1395 l 1,0,-1
EndSplineSet
EndUndoOperation
EndUndoes
Redoes
EndRedoes
EndUndoRedoHistory
Fore
SplineSet
149 1395 m 1,0,-1
 324 1409 l 1,1,-1
 324 864 l 1,2,3
 367 938 367 938 447 978.5 c 128,-1,4
 527 1019 527 1019 631 1019 c 0,5,6
 802 1019 802 1019 883.5 917 c 128,-1,7
 965 815 965 815 965 612 c 2,8,-1
 965 0 l 1,9,-1
 790 0 l 1,10,-1
 790 623 l 2,11,12
 790 757 790 757 749.5 823 c 128,-1,13
 709 889 709 889 601 889 c 0,14,15
 448 889 448 889 386 801 c 128,-1,16
 324 713 324 713 324 546 c 2,17,-1
 324 0 l 1,18,-1
 149 0 l 1,19,-1
 149 1395 l 1,0,-1
EndSplineSet
EndChar

StartChar: i
Encoding: 105 105 76
Width: 522
GlyphClass: 2
Flags: W
LayerCount: 2
UndoRedoHistory
Layer: 1
Undoes
UndoOperation
Index: 0
Type: 1
WasModified: 0
WasOrder2: 1
Width: 522
VWidth: 2048
LBearingChange: 0
UnicodeEnc: 0
InstructionsLength: 0
SplineSet
178 1181 m 1,0,-1
 178 1361 l 1,1,-1
 352 1361 l 1,2,-1
 352 1181 l 1,3,-1
 178 1181 l 1,0,-1
178 0 m 1,4,-1
 178 998 l 1,5,-1
 352 998 l 1,6,-1
 352 0 l 1,7,-1
 178 0 l 1,4,-1
EndSplineSet
EndUndoOperation
UndoOperation
Index: 1
Type: 1
WasModified: 0
WasOrder2: 1
Width: 522
VWidth: 2048
LBearingChange: 0
UnicodeEnc: 0
InstructionsLength: 0
SplineSet
178 1181 m 1,0,-1
 178 1361 l 1,1,-1
 352 1361 l 1,2,-1
 352 1181 l 1,3,-1
 178 1181 l 1,0,-1
178 0 m 1,4,-1
 178 998 l 1,5,-1
 352 998 l 1,6,-1
 352 0 l 1,7,-1
 178 0 l 1,4,-1
EndSplineSet
EndUndoOperation
EndUndoes
Redoes
EndRedoes
EndUndoRedoHistory
Fore
SplineSet
178 1181 m 1,0,-1
 178 1361 l 1,1,-1
 352 1361 l 1,2,-1
 352 1181 l 1,3,-1
 178 1181 l 1,0,-1
178 0 m 1,4,-1
 178 998 l 1,5,-1
 352 998 l 1,6,-1
 352 0 l 1,7,-1
 178 0 l 1,4,-1
EndSplineSet
EndChar

StartChar: j
Encoding: 106 106 77
Width: 545
GlyphClass: 2
Flags: W
LayerCount: 2
UndoRedoHistory
Layer: 1
Undoes
UndoOperation
Index: 0
Type: 1
WasModified: 0
WasOrder2: 1
Width: 545
VWidth: 2048
LBearingChange: 0
UnicodeEnc: 0
InstructionsLength: 0
SplineSet
48 -398 m 1,0,-1
 28 -257 l 1,1,-1
 76 -257 l 2,2,3
 126 -257 126 -257 156 -249.5 c 128,-1,4
 186 -242 186 -242 201 -224 c 128,-1,5
 216 -206 216 -206 220.5 -185 c 128,-1,6
 225 -164 225 -164 225 -127 c 2,7,-1
 224 998 l 1,8,-1
 399 998 l 1,9,-1
 399 -68 l 2,10,11
 399 -164 399 -164 386.5 -223.5 c 128,-1,12
 374 -283 374 -283 340 -324 c 128,-1,13
 306 -365 306 -365 248 -381.5 c 128,-1,14
 190 -398 190 -398 96 -398 c 2,15,-1
 48 -398 l 1,0,-1
224 1181 m 1,16,-1
 224 1361 l 1,17,-1
 399 1361 l 1,18,-1
 399 1181 l 1,19,-1
 224 1181 l 1,16,-1
EndSplineSet
EndUndoOperation
UndoOperation
Index: 1
Type: 1
WasModified: 0
WasOrder2: 1
Width: 545
VWidth: 2048
LBearingChange: 0
UnicodeEnc: 0
InstructionsLength: 0
SplineSet
48 -398 m 1,0,-1
 28 -257 l 1,1,-1
 76 -257 l 2,2,3
 126 -257 126 -257 156 -249.5 c 128,-1,4
 186 -242 186 -242 201 -224 c 128,-1,5
 216 -206 216 -206 220.5 -185 c 128,-1,6
 225 -164 225 -164 225 -127 c 2,7,-1
 224 998 l 1,8,-1
 399 998 l 1,9,-1
 399 -68 l 2,10,11
 399 -164 399 -164 386.5 -223.5 c 128,-1,12
 374 -283 374 -283 340 -324 c 128,-1,13
 306 -365 306 -365 248 -381.5 c 128,-1,14
 190 -398 190 -398 96 -398 c 2,15,-1
 48 -398 l 1,0,-1
224 1181 m 1,16,-1
 224 1361 l 1,17,-1
 399 1361 l 1,18,-1
 399 1181 l 1,19,-1
 224 1181 l 1,16,-1
EndSplineSet
EndUndoOperation
EndUndoes
Redoes
EndRedoes
EndUndoRedoHistory
Fore
SplineSet
48 -398 m 1,0,-1
 28 -257 l 1,1,-1
 76 -257 l 2,2,3
 126 -257 126 -257 156 -249.5 c 128,-1,4
 186 -242 186 -242 201 -224 c 128,-1,5
 216 -206 216 -206 220.5 -185 c 128,-1,6
 225 -164 225 -164 225 -127 c 2,7,-1
 224 998 l 1,8,-1
 399 998 l 1,9,-1
 399 -68 l 2,10,11
 399 -164 399 -164 386.5 -223.5 c 128,-1,12
 374 -283 374 -283 340 -324 c 128,-1,13
 306 -365 306 -365 248 -381.5 c 128,-1,14
 190 -398 190 -398 96 -398 c 2,15,-1
 48 -398 l 1,0,-1
224 1181 m 1,16,-1
 224 1361 l 1,17,-1
 399 1361 l 1,18,-1
 399 1181 l 1,19,-1
 224 1181 l 1,16,-1
EndSplineSet
EndChar

StartChar: k
Encoding: 107 107 78
Width: 1046
GlyphClass: 2
Flags: W
LayerCount: 2
UndoRedoHistory
Layer: 1
Undoes
UndoOperation
Index: 0
Type: 1
WasModified: 0
WasOrder2: 1
Width: 1046
VWidth: 2048
LBearingChange: 0
UnicodeEnc: 0
InstructionsLength: 0
SplineSet
154 1395 m 1,0,-1
 329 1409 l 1,1,-1
 329 512 l 1,2,-1
 796 998 l 1,3,-1
 1011 998 l 1,4,-1
 565 532 l 1,5,-1
 1018 0 l 1,6,-1
 822 0 l 1,7,-1
 440 446 l 1,8,-1
 329 350 l 1,9,-1
 329 0 l 1,10,-1
 154 0 l 1,11,-1
 154 1395 l 1,0,-1
EndSplineSet
EndUndoOperation
UndoOperation
Index: 1
Type: 1
WasModified: 0
WasOrder2: 1
Width: 1046
VWidth: 2048
LBearingChange: 0
UnicodeEnc: 0
InstructionsLength: 0
SplineSet
154 1395 m 1,0,-1
 329 1409 l 1,1,-1
 329 512 l 1,2,-1
 796 998 l 1,3,-1
 1011 998 l 1,4,-1
 565 532 l 1,5,-1
 1018 0 l 1,6,-1
 822 0 l 1,7,-1
 440 446 l 1,8,-1
 329 350 l 1,9,-1
 329 0 l 1,10,-1
 154 0 l 1,11,-1
 154 1395 l 1,0,-1
EndSplineSet
EndUndoOperation
EndUndoes
Redoes
EndRedoes
EndUndoRedoHistory
Fore
SplineSet
154 1395 m 1,0,-1
 329 1409 l 1,1,-1
 329 512 l 1,2,-1
 796 998 l 1,3,-1
 1011 998 l 1,4,-1
 565 532 l 1,5,-1
 1018 0 l 1,6,-1
 822 0 l 1,7,-1
 440 446 l 1,8,-1
 329 350 l 1,9,-1
 329 0 l 1,10,-1
 154 0 l 1,11,-1
 154 1395 l 1,0,-1
EndSplineSet
EndChar

StartChar: l
Encoding: 108 108 79
Width: 633
GlyphClass: 2
Flags: W
LayerCount: 2
UndoRedoHistory
Layer: 1
Undoes
UndoOperation
Index: 0
Type: 1
WasModified: 0
WasOrder2: 1
Width: 633
VWidth: 2048
LBearingChange: 0
UnicodeEnc: 0
InstructionsLength: 0
SplineSet
404 -18 m 0,0,1
 321 -18 321 -18 273.5 8 c 128,-1,2
 226 34 226 34 200 105.5 c 128,-1,3
 174 177 174 177 174 305 c 2,4,-1
 174 1395 l 1,5,-1
 349 1409 l 1,6,-1
 349 345 l 2,7,8
 349 246 349 246 356 199 c 128,-1,9
 363 152 363 152 381.5 134 c 128,-1,10
 400 116 400 116 439 116 c 2,11,-1
 503 116 l 1,12,-1
 514 -9 l 1,13,14
 452 -18 452 -18 404 -18 c 0,0,1
EndSplineSet
EndUndoOperation
UndoOperation
Index: 1
Type: 1
WasModified: 0
WasOrder2: 1
Width: 633
VWidth: 2048
LBearingChange: 0
UnicodeEnc: 0
InstructionsLength: 0
SplineSet
404 -18 m 0,0,1
 321 -18 321 -18 273.5 8 c 128,-1,2
 226 34 226 34 200 105.5 c 128,-1,3
 174 177 174 177 174 305 c 2,4,-1
 174 1395 l 1,5,-1
 349 1409 l 1,6,-1
 349 345 l 2,7,8
 349 246 349 246 356 199 c 128,-1,9
 363 152 363 152 381.5 134 c 128,-1,10
 400 116 400 116 439 116 c 2,11,-1
 503 116 l 1,12,-1
 514 -9 l 1,13,14
 452 -18 452 -18 404 -18 c 0,0,1
EndSplineSet
EndUndoOperation
EndUndoes
Redoes
EndRedoes
EndUndoRedoHistory
Fore
SplineSet
404 -18 m 0,0,1
 321 -18 321 -18 273.5 8 c 128,-1,2
 226 34 226 34 200 105.5 c 128,-1,3
 174 177 174 177 174 305 c 2,4,-1
 174 1395 l 1,5,-1
 349 1409 l 1,6,-1
 349 345 l 2,7,8
 349 246 349 246 356 199 c 128,-1,9
 363 152 363 152 381.5 134 c 128,-1,10
 400 116 400 116 439 116 c 2,11,-1
 503 116 l 1,12,-1
 514 -9 l 1,13,14
 452 -18 452 -18 404 -18 c 0,0,1
EndSplineSet
EndChar

StartChar: m
Encoding: 109 109 80
Width: 1675
GlyphClass: 2
Flags: W
LayerCount: 2
UndoRedoHistory
Layer: 1
Undoes
UndoOperation
Index: 0
Type: 1
WasModified: 0
WasOrder2: 1
Width: 1675
VWidth: 2048
LBearingChange: 0
UnicodeEnc: 0
InstructionsLength: 0
SplineSet
318 525 m 2,0,-1
 318 0 l 1,1,-1
 149 0 l 1,2,3
 147 936 147 936 147 998 c 1,4,-1
 292 998 l 1,5,-1
 310 855 l 1,6,7
 354 925 354 925 429.5 972 c 128,-1,8
 505 1019 505 1019 605 1019 c 0,9,10
 729 1019 729 1019 799.5 965.5 c 128,-1,11
 870 912 870 912 895 840 c 1,12,13
 946 928 946 928 1029.5 973.5 c 128,-1,14
 1113 1019 1113 1019 1216 1019 c 0,15,16
 1375 1019 1375 1019 1460.5 922 c 128,-1,17
 1546 825 1546 825 1546 642 c 2,18,-1
 1546 0 l 1,19,-1
 1377 0 l 1,20,-1
 1377 520 l 2,21,22
 1377 592 1377 592 1374 641.5 c 128,-1,23
 1371 691 1371 691 1359.5 741.5 c 128,-1,24
 1348 792 1348 792 1328.5 821.5 c 128,-1,25
 1309 851 1309 851 1274.5 870 c 128,-1,26
 1240 889 1240 889 1191 889 c 0,27,28
 934 889 934 889 934 535 c 2,29,-1
 934 0 l 1,30,-1
 765 0 l 1,31,-1
 765 563 l 2,32,33
 765 735 765 735 724 812 c 128,-1,34
 683 889 683 889 582 889 c 0,35,36
 506 889 506 889 453.5 863 c 128,-1,37
 401 837 401 837 372 786.5 c 128,-1,38
 343 736 343 736 330.5 672.5 c 128,-1,39
 318 609 318 609 318 525 c 2,0,-1
EndSplineSet
EndUndoOperation
UndoOperation
Index: 1
Type: 1
WasModified: 0
WasOrder2: 1
Width: 1675
VWidth: 2048
LBearingChange: 0
UnicodeEnc: 0
InstructionsLength: 0
SplineSet
318 525 m 2,0,-1
 318 0 l 1,1,-1
 149 0 l 1,2,3
 147 936 147 936 147 998 c 1,4,-1
 292 998 l 1,5,-1
 310 855 l 1,6,7
 354 925 354 925 429.5 972 c 128,-1,8
 505 1019 505 1019 605 1019 c 0,9,10
 729 1019 729 1019 799.5 965.5 c 128,-1,11
 870 912 870 912 895 840 c 1,12,13
 946 928 946 928 1029.5 973.5 c 128,-1,14
 1113 1019 1113 1019 1216 1019 c 0,15,16
 1375 1019 1375 1019 1460.5 922 c 128,-1,17
 1546 825 1546 825 1546 642 c 2,18,-1
 1546 0 l 1,19,-1
 1377 0 l 1,20,-1
 1377 520 l 2,21,22
 1377 592 1377 592 1374 641.5 c 128,-1,23
 1371 691 1371 691 1359.5 741.5 c 128,-1,24
 1348 792 1348 792 1328.5 821.5 c 128,-1,25
 1309 851 1309 851 1274.5 870 c 128,-1,26
 1240 889 1240 889 1191 889 c 0,27,28
 934 889 934 889 934 535 c 2,29,-1
 934 0 l 1,30,-1
 765 0 l 1,31,-1
 765 563 l 2,32,33
 765 735 765 735 724 812 c 128,-1,34
 683 889 683 889 582 889 c 0,35,36
 506 889 506 889 453.5 863 c 128,-1,37
 401 837 401 837 372 786.5 c 128,-1,38
 343 736 343 736 330.5 672.5 c 128,-1,39
 318 609 318 609 318 525 c 2,0,-1
EndSplineSet
EndUndoOperation
EndUndoes
Redoes
EndRedoes
EndUndoRedoHistory
Fore
SplineSet
318 525 m 2,0,-1
 318 0 l 1,1,-1
 149 0 l 1,2,3
 147 936 147 936 147 998 c 1,4,-1
 292 998 l 1,5,-1
 310 855 l 1,6,7
 354 925 354 925 429.5 972 c 128,-1,8
 505 1019 505 1019 605 1019 c 0,9,10
 729 1019 729 1019 799.5 965.5 c 128,-1,11
 870 912 870 912 895 840 c 1,12,13
 946 928 946 928 1029.5 973.5 c 128,-1,14
 1113 1019 1113 1019 1216 1019 c 0,15,16
 1375 1019 1375 1019 1460.5 922 c 128,-1,17
 1546 825 1546 825 1546 642 c 2,18,-1
 1546 0 l 1,19,-1
 1377 0 l 1,20,-1
 1377 520 l 2,21,22
 1377 592 1377 592 1374 641.5 c 128,-1,23
 1371 691 1371 691 1359.5 741.5 c 128,-1,24
 1348 792 1348 792 1328.5 821.5 c 128,-1,25
 1309 851 1309 851 1274.5 870 c 128,-1,26
 1240 889 1240 889 1191 889 c 0,27,28
 934 889 934 889 934 535 c 2,29,-1
 934 0 l 1,30,-1
 765 0 l 1,31,-1
 765 563 l 2,32,33
 765 735 765 735 724 812 c 128,-1,34
 683 889 683 889 582 889 c 0,35,36
 506 889 506 889 453.5 863 c 128,-1,37
 401 837 401 837 372 786.5 c 128,-1,38
 343 736 343 736 330.5 672.5 c 128,-1,39
 318 609 318 609 318 525 c 2,0,-1
EndSplineSet
EndChar

StartChar: n
Encoding: 110 110 81
Width: 1115
GlyphClass: 2
Flags: W
LayerCount: 2
UndoRedoHistory
Layer: 1
Undoes
UndoOperation
Index: 0
Type: 1
WasModified: 0
WasOrder2: 1
Width: 1115
VWidth: 2048
LBearingChange: 0
UnicodeEnc: 0
InstructionsLength: 0
SplineSet
147 0 m 1,0,-1
 147 998 l 1,1,-1
 296 998 l 1,2,-1
 315 855 l 1,3,4
 424 1019 424 1019 641 1019 c 0,5,6
 986 1019 986 1019 986 612 c 2,7,-1
 986 0 l 1,8,-1
 811 0 l 1,9,-1
 811 623 l 2,10,11
 811 754 811 754 764 821.5 c 128,-1,12
 717 889 717 889 607 889 c 0,13,14
 453 889 453 889 387.5 800 c 128,-1,15
 322 711 322 711 322 546 c 2,16,-1
 322 0 l 1,17,-1
 147 0 l 1,0,-1
EndSplineSet
EndUndoOperation
UndoOperation
Index: 1
Type: 1
WasModified: 0
WasOrder2: 1
Width: 1115
VWidth: 2048
LBearingChange: 0
UnicodeEnc: 0
InstructionsLength: 0
SplineSet
147 0 m 1,0,-1
 147 998 l 1,1,-1
 296 998 l 1,2,-1
 315 855 l 1,3,4
 424 1019 424 1019 641 1019 c 0,5,6
 986 1019 986 1019 986 612 c 2,7,-1
 986 0 l 1,8,-1
 811 0 l 1,9,-1
 811 623 l 2,10,11
 811 754 811 754 764 821.5 c 128,-1,12
 717 889 717 889 607 889 c 0,13,14
 453 889 453 889 387.5 800 c 128,-1,15
 322 711 322 711 322 546 c 2,16,-1
 322 0 l 1,17,-1
 147 0 l 1,0,-1
EndSplineSet
EndUndoOperation
EndUndoes
Redoes
EndRedoes
EndUndoRedoHistory
Fore
SplineSet
147 0 m 1,0,-1
 147 998 l 1,1,-1
 296 998 l 1,2,-1
 315 855 l 1,3,4
 424 1019 424 1019 641 1019 c 0,5,6
 986 1019 986 1019 986 612 c 2,7,-1
 986 0 l 1,8,-1
 811 0 l 1,9,-1
 811 623 l 2,10,11
 811 754 811 754 764 821.5 c 128,-1,12
 717 889 717 889 607 889 c 0,13,14
 453 889 453 889 387.5 800 c 128,-1,15
 322 711 322 711 322 546 c 2,16,-1
 322 0 l 1,17,-1
 147 0 l 1,0,-1
EndSplineSet
EndChar

StartChar: o
Encoding: 111 111 82
Width: 1138
GlyphClass: 2
Flags: W
LayerCount: 2
UndoRedoHistory
Layer: 1
Undoes
UndoOperation
Index: 0
Type: 1
WasModified: 0
WasOrder2: 1
Width: 1138
VWidth: 2048
LBearingChange: 0
UnicodeEnc: 0
InstructionsLength: 0
SplineSet
569 112 m 128,-1,1
 717 112 717 112 788.5 217.5 c 128,-1,2
 860 323 860 323 860 497 c 0,3,4
 860 612 860 612 831 697 c 128,-1,5
 802 782 802 782 735.5 834 c 128,-1,6
 669 886 669 886 569 886 c 128,-1,7
 469 886 469 886 402 834 c 128,-1,8
 335 782 335 782 306 697 c 128,-1,9
 277 612 277 612 277 497 c 0,10,11
 277 323 277 323 349 217.5 c 128,-1,0
 421 112 421 112 569 112 c 128,-1,1
569 -21 m 128,-1,13
 358 -21 358 -21 230.5 125 c 128,-1,14
 103 271 103 271 103 499 c 0,15,16
 103 732 103 732 227.5 875.5 c 128,-1,17
 352 1019 352 1019 569 1019 c 128,-1,18
 786 1019 786 1019 910.5 875.5 c 128,-1,19
 1035 732 1035 732 1035 499 c 0,20,21
 1035 271 1035 271 907.5 125 c 128,-1,12
 780 -21 780 -21 569 -21 c 128,-1,13
EndSplineSet
EndUndoOperation
UndoOperation
Index: 1
Type: 1
WasModified: 0
WasOrder2: 1
Width: 1138
VWidth: 2048
LBearingChange: 0
UnicodeEnc: 0
InstructionsLength: 0
SplineSet
569 112 m 128,-1,1
 717 112 717 112 788.5 217.5 c 128,-1,2
 860 323 860 323 860 497 c 0,3,4
 860 612 860 612 831 697 c 128,-1,5
 802 782 802 782 735.5 834 c 128,-1,6
 669 886 669 886 569 886 c 128,-1,7
 469 886 469 886 402 834 c 128,-1,8
 335 782 335 782 306 697 c 128,-1,9
 277 612 277 612 277 497 c 0,10,11
 277 323 277 323 349 217.5 c 128,-1,0
 421 112 421 112 569 112 c 128,-1,1
569 -21 m 128,-1,13
 358 -21 358 -21 230.5 125 c 128,-1,14
 103 271 103 271 103 499 c 0,15,16
 103 732 103 732 227.5 875.5 c 128,-1,17
 352 1019 352 1019 569 1019 c 128,-1,18
 786 1019 786 1019 910.5 875.5 c 128,-1,19
 1035 732 1035 732 1035 499 c 0,20,21
 1035 271 1035 271 907.5 125 c 128,-1,12
 780 -21 780 -21 569 -21 c 128,-1,13
EndSplineSet
EndUndoOperation
EndUndoes
Redoes
EndRedoes
EndUndoRedoHistory
Fore
SplineSet
569 112 m 128,-1,1
 717 112 717 112 788.5 217.5 c 128,-1,2
 860 323 860 323 860 497 c 0,3,4
 860 612 860 612 831 697 c 128,-1,5
 802 782 802 782 735.5 834 c 128,-1,6
 669 886 669 886 569 886 c 128,-1,7
 469 886 469 886 402 834 c 128,-1,8
 335 782 335 782 306 697 c 128,-1,9
 277 612 277 612 277 497 c 0,10,11
 277 323 277 323 349 217.5 c 128,-1,0
 421 112 421 112 569 112 c 128,-1,1
569 -21 m 128,-1,13
 358 -21 358 -21 230.5 125 c 128,-1,14
 103 271 103 271 103 499 c 0,15,16
 103 732 103 732 227.5 875.5 c 128,-1,17
 352 1019 352 1019 569 1019 c 128,-1,18
 786 1019 786 1019 910.5 875.5 c 128,-1,19
 1035 732 1035 732 1035 499 c 0,20,21
 1035 271 1035 271 907.5 125 c 128,-1,12
 780 -21 780 -21 569 -21 c 128,-1,13
EndSplineSet
EndChar

StartChar: p
Encoding: 112 112 83
Width: 1185
GlyphClass: 2
Flags: W
LayerCount: 2
UndoRedoHistory
Layer: 1
Undoes
UndoOperation
Index: 0
Type: 1
WasModified: 0
WasOrder2: 1
Width: 1185
VWidth: 2048
LBearingChange: 0
UnicodeEnc: 0
InstructionsLength: 0
SplineSet
620 107 m 128,-1,1
 760 107 760 107 833.5 212 c 128,-1,2
 907 317 907 317 907 500 c 0,3,4
 907 681 907 681 834.5 785.5 c 128,-1,5
 762 890 762 890 621 890 c 0,6,7
 471 890 471 890 398 792 c 128,-1,8
 325 694 325 694 325 516 c 0,9,10
 325 322 325 322 402.5 214.5 c 128,-1,0
 480 107 480 107 620 107 c 128,-1,1
150 998 m 1,11,-1
 308 998 l 1,12,-1
 325 835 l 1,13,14
 366 923 366 923 456 971 c 128,-1,15
 546 1019 546 1019 653 1019 c 0,16,17
 857 1019 857 1019 969.5 874.5 c 128,-1,18
 1082 730 1082 730 1082 494 c 0,19,20
 1082 267 1082 267 963 123 c 128,-1,21
 844 -21 844 -21 644 -21 c 0,22,23
 544 -21 544 -21 452.5 27.5 c 128,-1,24
 361 76 361 76 320 154 c 1,25,26
 325 71 325 71 325 -55 c 2,27,-1
 325 -423 l 1,28,-1
 150 -433 l 1,29,-1
 150 998 l 1,11,-1
EndSplineSet
EndUndoOperation
UndoOperation
Index: 1
Type: 1
WasModified: 0
WasOrder2: 1
Width: 1185
VWidth: 2048
LBearingChange: 0
UnicodeEnc: 0
InstructionsLength: 0
SplineSet
620 107 m 128,-1,1
 760 107 760 107 833.5 212 c 128,-1,2
 907 317 907 317 907 500 c 0,3,4
 907 681 907 681 834.5 785.5 c 128,-1,5
 762 890 762 890 621 890 c 0,6,7
 471 890 471 890 398 792 c 128,-1,8
 325 694 325 694 325 516 c 0,9,10
 325 322 325 322 402.5 214.5 c 128,-1,0
 480 107 480 107 620 107 c 128,-1,1
150 998 m 1,11,-1
 308 998 l 1,12,-1
 325 835 l 1,13,14
 366 923 366 923 456 971 c 128,-1,15
 546 1019 546 1019 653 1019 c 0,16,17
 857 1019 857 1019 969.5 874.5 c 128,-1,18
 1082 730 1082 730 1082 494 c 0,19,20
 1082 267 1082 267 963 123 c 128,-1,21
 844 -21 844 -21 644 -21 c 0,22,23
 544 -21 544 -21 452.5 27.5 c 128,-1,24
 361 76 361 76 320 154 c 1,25,26
 325 71 325 71 325 -55 c 2,27,-1
 325 -423 l 1,28,-1
 150 -433 l 1,29,-1
 150 998 l 1,11,-1
EndSplineSet
EndUndoOperation
EndUndoes
Redoes
EndRedoes
EndUndoRedoHistory
Fore
SplineSet
620 107 m 128,-1,1
 760 107 760 107 833.5 212 c 128,-1,2
 907 317 907 317 907 500 c 0,3,4
 907 681 907 681 834.5 785.5 c 128,-1,5
 762 890 762 890 621 890 c 0,6,7
 471 890 471 890 398 792 c 128,-1,8
 325 694 325 694 325 516 c 0,9,10
 325 322 325 322 402.5 214.5 c 128,-1,0
 480 107 480 107 620 107 c 128,-1,1
150 998 m 1,11,-1
 308 998 l 1,12,-1
 325 835 l 1,13,14
 366 923 366 923 456 971 c 128,-1,15
 546 1019 546 1019 653 1019 c 0,16,17
 857 1019 857 1019 969.5 874.5 c 128,-1,18
 1082 730 1082 730 1082 494 c 0,19,20
 1082 267 1082 267 963 123 c 128,-1,21
 844 -21 844 -21 644 -21 c 0,22,23
 544 -21 544 -21 452.5 27.5 c 128,-1,24
 361 76 361 76 320 154 c 1,25,26
 325 71 325 71 325 -55 c 2,27,-1
 325 -423 l 1,28,-1
 150 -433 l 1,29,-1
 150 998 l 1,11,-1
EndSplineSet
EndChar

StartChar: q
Encoding: 113 113 84
Width: 1174
GlyphClass: 2
Flags: W
LayerCount: 2
UndoRedoHistory
Layer: 1
Undoes
UndoOperation
Index: 0
Type: 1
WasModified: 0
WasOrder2: 1
Width: 1174
VWidth: 2048
LBearingChange: 0
UnicodeEnc: 0
InstructionsLength: 0
SplineSet
568 107 m 0,0,1
 724 107 724 107 792 210 c 128,-1,2
 860 313 860 313 860 516 c 0,3,4
 860 890 860 890 568 890 c 0,5,6
 426 890 426 890 351.5 785 c 128,-1,7
 277 680 277 680 277 500 c 0,8,9
 277 317 277 317 352 212 c 128,-1,10
 427 107 427 107 568 107 c 0,0,1
1034 998 m 1,11,-1
 1034 -423 l 1,12,-1
 860 -433 l 1,13,-1
 860 -55 l 2,14,15
 860 70 860 70 864 136 c 1,16,17
 814 65 814 65 726 22 c 128,-1,18
 638 -21 638 -21 540 -21 c 0,19,20
 346 -21 346 -21 224.5 124 c 128,-1,21
 103 269 103 269 103 494 c 0,22,23
 103 729 103 729 219.5 874 c 128,-1,24
 336 1019 336 1019 541 1019 c 0,25,26
 646 1019 646 1019 733 970.5 c 128,-1,27
 820 922 820 922 860 835 c 1,28,-1
 877 998 l 1,29,-1
 1034 998 l 1,11,-1
EndSplineSet
EndUndoOperation
UndoOperation
Index: 1
Type: 1
WasModified: 0
WasOrder2: 1
Width: 1174
VWidth: 2048
LBearingChange: 0
UnicodeEnc: 0
InstructionsLength: 0
SplineSet
568 107 m 0,0,1
 724 107 724 107 792 210 c 128,-1,2
 860 313 860 313 860 516 c 0,3,4
 860 890 860 890 568 890 c 0,5,6
 426 890 426 890 351.5 785 c 128,-1,7
 277 680 277 680 277 500 c 0,8,9
 277 317 277 317 352 212 c 128,-1,10
 427 107 427 107 568 107 c 0,0,1
1034 998 m 1,11,-1
 1034 -423 l 1,12,-1
 860 -433 l 1,13,-1
 860 -55 l 2,14,15
 860 70 860 70 864 136 c 1,16,17
 814 65 814 65 726 22 c 128,-1,18
 638 -21 638 -21 540 -21 c 0,19,20
 346 -21 346 -21 224.5 124 c 128,-1,21
 103 269 103 269 103 494 c 0,22,23
 103 729 103 729 219.5 874 c 128,-1,24
 336 1019 336 1019 541 1019 c 0,25,26
 646 1019 646 1019 733 970.5 c 128,-1,27
 820 922 820 922 860 835 c 1,28,-1
 877 998 l 1,29,-1
 1034 998 l 1,11,-1
EndSplineSet
EndUndoOperation
EndUndoes
Redoes
EndRedoes
EndUndoRedoHistory
Fore
SplineSet
568 107 m 0,0,1
 724 107 724 107 792 210 c 128,-1,2
 860 313 860 313 860 516 c 0,3,4
 860 890 860 890 568 890 c 0,5,6
 426 890 426 890 351.5 785 c 128,-1,7
 277 680 277 680 277 500 c 0,8,9
 277 317 277 317 352 212 c 128,-1,10
 427 107 427 107 568 107 c 0,0,1
1034 998 m 1,11,-1
 1034 -423 l 1,12,-1
 860 -433 l 1,13,-1
 860 -55 l 2,14,15
 860 70 860 70 864 136 c 1,16,17
 814 65 814 65 726 22 c 128,-1,18
 638 -21 638 -21 540 -21 c 0,19,20
 346 -21 346 -21 224.5 124 c 128,-1,21
 103 269 103 269 103 494 c 0,22,23
 103 729 103 729 219.5 874 c 128,-1,24
 336 1019 336 1019 541 1019 c 0,25,26
 646 1019 646 1019 733 970.5 c 128,-1,27
 820 922 820 922 860 835 c 1,28,-1
 877 998 l 1,29,-1
 1034 998 l 1,11,-1
EndSplineSet
EndChar

StartChar: r
Encoding: 114 114 85
Width: 735
GlyphClass: 2
Flags: W
LayerCount: 2
UndoRedoHistory
Layer: 1
Undoes
UndoOperation
Index: 0
Type: 1
WasModified: 0
WasOrder2: 1
Width: 735
VWidth: 2048
LBearingChange: 0
UnicodeEnc: 0
InstructionsLength: 0
SplineSet
147 998 m 1,0,-1
 296 998 l 1,1,-1
 310 819 l 1,2,3
 361 904 361 904 441.5 955.5 c 128,-1,4
 522 1007 522 1007 612 1007 c 0,5,6
 658 1007 658 1007 687 1002 c 1,7,-1
 681 862 l 1,8,9
 645 869 645 869 609 869 c 0,10,11
 481 869 481 869 401.5 780.5 c 128,-1,12
 322 692 322 692 322 561 c 2,13,-1
 322 0 l 1,14,-1
 147 0 l 1,15,-1
 147 998 l 1,0,-1
EndSplineSet
EndUndoOperation
UndoOperation
Index: 1
Type: 1
WasModified: 0
WasOrder2: 1
Width: 735
VWidth: 2048
LBearingChange: 0
UnicodeEnc: 0
InstructionsLength: 0
SplineSet
147 998 m 1,0,-1
 296 998 l 1,1,-1
 310 819 l 1,2,3
 361 904 361 904 441.5 955.5 c 128,-1,4
 522 1007 522 1007 612 1007 c 0,5,6
 658 1007 658 1007 687 1002 c 1,7,-1
 681 862 l 1,8,9
 645 869 645 869 609 869 c 0,10,11
 481 869 481 869 401.5 780.5 c 128,-1,12
 322 692 322 692 322 561 c 2,13,-1
 322 0 l 1,14,-1
 147 0 l 1,15,-1
 147 998 l 1,0,-1
EndSplineSet
EndUndoOperation
EndUndoes
Redoes
EndRedoes
EndUndoRedoHistory
Fore
SplineSet
147 998 m 1,0,-1
 296 998 l 1,1,-1
 310 819 l 1,2,3
 361 904 361 904 441.5 955.5 c 128,-1,4
 522 1007 522 1007 612 1007 c 0,5,6
 658 1007 658 1007 687 1002 c 1,7,-1
 681 862 l 1,8,9
 645 869 645 869 609 869 c 0,10,11
 481 869 481 869 401.5 780.5 c 128,-1,12
 322 692 322 692 322 561 c 2,13,-1
 322 0 l 1,14,-1
 147 0 l 1,15,-1
 147 998 l 1,0,-1
EndSplineSet
EndChar

StartChar: s
Encoding: 115 115 86
Width: 894
GlyphClass: 2
Flags: W
LayerCount: 2
UndoRedoHistory
Layer: 1
Undoes
UndoOperation
Index: 0
Type: 1
WasModified: 0
WasOrder2: 1
Width: 894
VWidth: 2048
LBearingChange: 0
UnicodeEnc: 0
InstructionsLength: 0
SplineSet
441 -21 m 0,0,1
 229 -21 229 -21 123 48 c 1,2,-1
 155 168 l 1,3,4
 287 98 287 98 433 98 c 0,5,6
 538 98 538 98 595 138.5 c 128,-1,7
 652 179 652 179 652 254 c 0,8,9
 652 320 652 320 609.5 354.5 c 128,-1,10
 567 389 567 389 429 439 c 1,11,-1
 361 465 l 1,12,13
 231 513 231 513 174 581 c 128,-1,14
 117 649 117 649 116 745 c 1,15,16
 116 864 116 864 206 941.5 c 128,-1,17
 296 1019 296 1019 459 1019 c 0,18,19
 618 1019 618 1019 756 954 c 1,20,-1
 718 845 l 1,21,22
 588 899 588 899 466 899 c 0,23,24
 374 899 374 899 320.5 857.5 c 128,-1,25
 267 816 267 816 267 751 c 0,26,27
 267 694 267 694 302.5 665.5 c 128,-1,28
 338 637 338 637 451 593 c 2,29,-1
 515 568 l 2,30,31
 668 508 668 508 731 443.5 c 128,-1,32
 794 379 794 379 794 269 c 1,33,34
 792 130 792 130 699 54.5 c 128,-1,35
 606 -21 606 -21 441 -21 c 0,0,1
EndSplineSet
EndUndoOperation
UndoOperation
Index: 1
Type: 1
WasModified: 0
WasOrder2: 1
Width: 894
VWidth: 2048
LBearingChange: 0
UnicodeEnc: 0
InstructionsLength: 0
SplineSet
441 -21 m 0,0,1
 229 -21 229 -21 123 48 c 1,2,-1
 155 168 l 1,3,4
 287 98 287 98 433 98 c 0,5,6
 538 98 538 98 595 138.5 c 128,-1,7
 652 179 652 179 652 254 c 0,8,9
 652 320 652 320 609.5 354.5 c 128,-1,10
 567 389 567 389 429 439 c 1,11,-1
 361 465 l 1,12,13
 231 513 231 513 174 581 c 128,-1,14
 117 649 117 649 116 745 c 1,15,16
 116 864 116 864 206 941.5 c 128,-1,17
 296 1019 296 1019 459 1019 c 0,18,19
 618 1019 618 1019 756 954 c 1,20,-1
 718 845 l 1,21,22
 588 899 588 899 466 899 c 0,23,24
 374 899 374 899 320.5 857.5 c 128,-1,25
 267 816 267 816 267 751 c 0,26,27
 267 694 267 694 302.5 665.5 c 128,-1,28
 338 637 338 637 451 593 c 2,29,-1
 515 568 l 2,30,31
 668 508 668 508 731 443.5 c 128,-1,32
 794 379 794 379 794 269 c 1,33,34
 792 130 792 130 699 54.5 c 128,-1,35
 606 -21 606 -21 441 -21 c 0,0,1
EndSplineSet
EndUndoOperation
EndUndoes
Redoes
EndRedoes
EndUndoRedoHistory
Fore
SplineSet
441 -21 m 0,0,1
 229 -21 229 -21 123 48 c 1,2,-1
 155 168 l 1,3,4
 287 98 287 98 433 98 c 0,5,6
 538 98 538 98 595 138.5 c 128,-1,7
 652 179 652 179 652 254 c 0,8,9
 652 320 652 320 609.5 354.5 c 128,-1,10
 567 389 567 389 429 439 c 1,11,-1
 361 465 l 1,12,13
 231 513 231 513 174 581 c 128,-1,14
 117 649 117 649 116 745 c 1,15,16
 116 864 116 864 206 941.5 c 128,-1,17
 296 1019 296 1019 459 1019 c 0,18,19
 618 1019 618 1019 756 954 c 1,20,-1
 718 845 l 1,21,22
 588 899 588 899 466 899 c 0,23,24
 374 899 374 899 320.5 857.5 c 128,-1,25
 267 816 267 816 267 751 c 0,26,27
 267 694 267 694 302.5 665.5 c 128,-1,28
 338 637 338 637 451 593 c 2,29,-1
 515 568 l 2,30,31
 668 508 668 508 731 443.5 c 128,-1,32
 794 379 794 379 794 269 c 1,33,34
 792 130 792 130 699 54.5 c 128,-1,35
 606 -21 606 -21 441 -21 c 0,0,1
EndSplineSet
EndChar

StartChar: t
Encoding: 116 116 87
Width: 863
GlyphClass: 2
Flags: W
LayerCount: 2
UndoRedoHistory
Layer: 1
Undoes
UndoOperation
Index: 0
Type: 1
WasModified: 0
WasOrder2: 1
Width: 863
VWidth: 2048
LBearingChange: 0
UnicodeEnc: 0
InstructionsLength: 0
SplineSet
553 -18 m 0,0,1
 405 -18 405 -18 330.5 68 c 128,-1,2
 256 154 256 154 256 313 c 2,3,-1
 256 885 l 1,4,-1
 108 885 l 1,5,-1
 114 986 l 1,6,-1
 255 998 l 1,7,-1
 307 1227 l 1,8,-1
 431 1230 l 1,9,-1
 431 998 l 1,10,-1
 722 998 l 1,11,-1
 722 885 l 1,12,-1
 431 885 l 1,13,-1
 431 313 l 2,14,15
 431 200 431 200 464.5 157 c 128,-1,16
 498 114 498 114 582 114 c 0,17,18
 652 114 652 114 718 139 c 1,19,-1
 745 13 l 1,20,21
 671 -18 671 -18 553 -18 c 0,0,1
EndSplineSet
EndUndoOperation
UndoOperation
Index: 1
Type: 1
WasModified: 0
WasOrder2: 1
Width: 863
VWidth: 2048
LBearingChange: 0
UnicodeEnc: 0
InstructionsLength: 0
SplineSet
553 -18 m 0,0,1
 405 -18 405 -18 330.5 68 c 128,-1,2
 256 154 256 154 256 313 c 2,3,-1
 256 885 l 1,4,-1
 108 885 l 1,5,-1
 114 986 l 1,6,-1
 255 998 l 1,7,-1
 307 1227 l 1,8,-1
 431 1230 l 1,9,-1
 431 998 l 1,10,-1
 722 998 l 1,11,-1
 722 885 l 1,12,-1
 431 885 l 1,13,-1
 431 313 l 2,14,15
 431 200 431 200 464.5 157 c 128,-1,16
 498 114 498 114 582 114 c 0,17,18
 652 114 652 114 718 139 c 1,19,-1
 745 13 l 1,20,21
 671 -18 671 -18 553 -18 c 0,0,1
EndSplineSet
EndUndoOperation
EndUndoes
Redoes
EndRedoes
EndUndoRedoHistory
Fore
SplineSet
553 -18 m 0,0,1
 405 -18 405 -18 330.5 68 c 128,-1,2
 256 154 256 154 256 313 c 2,3,-1
 256 885 l 1,4,-1
 108 885 l 1,5,-1
 114 986 l 1,6,-1
 255 998 l 1,7,-1
 307 1227 l 1,8,-1
 431 1230 l 1,9,-1
 431 998 l 1,10,-1
 722 998 l 1,11,-1
 722 885 l 1,12,-1
 431 885 l 1,13,-1
 431 313 l 2,14,15
 431 200 431 200 464.5 157 c 128,-1,16
 498 114 498 114 582 114 c 0,17,18
 652 114 652 114 718 139 c 1,19,-1
 745 13 l 1,20,21
 671 -18 671 -18 553 -18 c 0,0,1
EndSplineSet
EndChar

StartChar: u
Encoding: 117 117 88
Width: 1124
GlyphClass: 2
Flags: W
LayerCount: 2
UndoRedoHistory
Layer: 1
Undoes
UndoOperation
Index: 0
Type: 1
WasModified: 0
WasOrder2: 1
Width: 1124
VWidth: 2048
LBearingChange: 0
UnicodeEnc: 0
InstructionsLength: 0
SplineSet
977 998 m 1,0,-1
 977 0 l 1,1,-1
 829 0 l 1,2,-1
 810 143 l 1,3,4
 771 60 771 60 683.5 19.5 c 128,-1,5
 596 -21 596 -21 482 -21 c 0,6,7
 138 -21 138 -21 138 387 c 2,8,-1
 138 998 l 1,9,-1
 312 998 l 1,10,-1
 312 375 l 2,11,12
 312 243 312 243 357 176 c 128,-1,13
 402 109 402 109 512 109 c 0,14,15
 802 109 802 109 802 452 c 2,16,-1
 802 998 l 1,17,-1
 977 998 l 1,0,-1
EndSplineSet
EndUndoOperation
UndoOperation
Index: 1
Type: 1
WasModified: 0
WasOrder2: 1
Width: 1124
VWidth: 2048
LBearingChange: 0
UnicodeEnc: 0
InstructionsLength: 0
SplineSet
977 998 m 1,0,-1
 977 0 l 1,1,-1
 829 0 l 1,2,-1
 810 143 l 1,3,4
 771 60 771 60 683.5 19.5 c 128,-1,5
 596 -21 596 -21 482 -21 c 0,6,7
 138 -21 138 -21 138 387 c 2,8,-1
 138 998 l 1,9,-1
 312 998 l 1,10,-1
 312 375 l 2,11,12
 312 243 312 243 357 176 c 128,-1,13
 402 109 402 109 512 109 c 0,14,15
 802 109 802 109 802 452 c 2,16,-1
 802 998 l 1,17,-1
 977 998 l 1,0,-1
EndSplineSet
EndUndoOperation
EndUndoes
Redoes
EndRedoes
EndUndoRedoHistory
Fore
SplineSet
977 998 m 1,0,-1
 977 0 l 1,1,-1
 829 0 l 1,2,-1
 810 143 l 1,3,4
 771 60 771 60 683.5 19.5 c 128,-1,5
 596 -21 596 -21 482 -21 c 0,6,7
 138 -21 138 -21 138 387 c 2,8,-1
 138 998 l 1,9,-1
 312 998 l 1,10,-1
 312 375 l 2,11,12
 312 243 312 243 357 176 c 128,-1,13
 402 109 402 109 512 109 c 0,14,15
 802 109 802 109 802 452 c 2,16,-1
 802 998 l 1,17,-1
 977 998 l 1,0,-1
EndSplineSet
EndChar

StartChar: v
Encoding: 118 118 89
Width: 1030
GlyphClass: 2
Flags: W
LayerCount: 2
UndoRedoHistory
Layer: 1
Undoes
UndoOperation
Index: 0
Type: 1
WasModified: 0
WasOrder2: 1
Width: 1030
VWidth: 2048
LBearingChange: 0
UnicodeEnc: 0
InstructionsLength: 0
SplineSet
430 0 m 1,0,-1
 38 998 l 1,1,-1
 219 998 l 1,2,-1
 521 173 l 1,3,-1
 812 998 l 1,4,-1
 992 998 l 1,5,-1
 608 0 l 1,6,-1
 430 0 l 1,0,-1
EndSplineSet
EndUndoOperation
UndoOperation
Index: 1
Type: 1
WasModified: 0
WasOrder2: 1
Width: 1030
VWidth: 2048
LBearingChange: 0
UnicodeEnc: 0
InstructionsLength: 0
SplineSet
430 0 m 1,0,-1
 38 998 l 1,1,-1
 219 998 l 1,2,-1
 521 173 l 1,3,-1
 812 998 l 1,4,-1
 992 998 l 1,5,-1
 608 0 l 1,6,-1
 430 0 l 1,0,-1
EndSplineSet
EndUndoOperation
EndUndoes
Redoes
EndRedoes
EndUndoRedoHistory
Fore
SplineSet
430 0 m 1,0,-1
 38 998 l 1,1,-1
 219 998 l 1,2,-1
 521 173 l 1,3,-1
 812 998 l 1,4,-1
 992 998 l 1,5,-1
 608 0 l 1,6,-1
 430 0 l 1,0,-1
EndSplineSet
EndChar

StartChar: w
Encoding: 119 119 90
Width: 1498
GlyphClass: 2
Flags: W
LayerCount: 2
UndoRedoHistory
Layer: 1
Undoes
UndoOperation
Index: 0
Type: 1
WasModified: 0
WasOrder2: 1
Width: 1498
VWidth: 2048
LBearingChange: 0
UnicodeEnc: 0
InstructionsLength: 0
SplineSet
51 998 m 1,0,-1
 214 998 l 1,1,-1
 422 190 l 1,2,-1
 660 998 l 1,3,-1
 843 998 l 1,4,-1
 1089 193 l 1,5,-1
 1287 998 l 1,6,-1
 1447 998 l 1,7,-1
 1172 0 l 1,8,-1
 1013 0 l 1,9,-1
 752 855 l 1,10,-1
 499 0 l 1,11,-1
 332 0 l 1,12,-1
 51 998 l 1,0,-1
EndSplineSet
EndUndoOperation
UndoOperation
Index: 1
Type: 1
WasModified: 0
WasOrder2: 1
Width: 1498
VWidth: 2048
LBearingChange: 0
UnicodeEnc: 0
InstructionsLength: 0
SplineSet
51 998 m 1,0,-1
 214 998 l 1,1,-1
 422 190 l 1,2,-1
 660 998 l 1,3,-1
 843 998 l 1,4,-1
 1089 193 l 1,5,-1
 1287 998 l 1,6,-1
 1447 998 l 1,7,-1
 1172 0 l 1,8,-1
 1013 0 l 1,9,-1
 752 855 l 1,10,-1
 499 0 l 1,11,-1
 332 0 l 1,12,-1
 51 998 l 1,0,-1
EndSplineSet
EndUndoOperation
EndUndoes
Redoes
EndRedoes
EndUndoRedoHistory
Fore
SplineSet
51 998 m 1,0,-1
 214 998 l 1,1,-1
 422 190 l 1,2,-1
 660 998 l 1,3,-1
 843 998 l 1,4,-1
 1089 193 l 1,5,-1
 1287 998 l 1,6,-1
 1447 998 l 1,7,-1
 1172 0 l 1,8,-1
 1013 0 l 1,9,-1
 752 855 l 1,10,-1
 499 0 l 1,11,-1
 332 0 l 1,12,-1
 51 998 l 1,0,-1
EndSplineSet
EndChar

StartChar: x
Encoding: 120 120 91
Width: 1021
GlyphClass: 2
Flags: W
LayerCount: 2
UndoRedoHistory
Layer: 1
Undoes
UndoOperation
Index: 0
Type: 1
WasModified: 0
WasOrder2: 1
Width: 1021
VWidth: 2048
LBearingChange: 0
UnicodeEnc: 0
InstructionsLength: 0
SplineSet
509 623 m 1,0,-1
 776 998 l 1,1,-1
 968 998 l 1,2,-1
 607 506 l 1,3,-1
 977 0 l 1,4,-1
 791 0 l 1,5,-1
 509 396 l 1,6,-1
 228 0 l 1,7,-1
 44 0 l 1,8,-1
 410 508 l 1,9,-1
 58 998 l 1,10,-1
 242 998 l 1,11,-1
 509 623 l 1,0,-1
EndSplineSet
EndUndoOperation
UndoOperation
Index: 1
Type: 1
WasModified: 0
WasOrder2: 1
Width: 1021
VWidth: 2048
LBearingChange: 0
UnicodeEnc: 0
InstructionsLength: 0
SplineSet
509 623 m 1,0,-1
 776 998 l 1,1,-1
 968 998 l 1,2,-1
 607 506 l 1,3,-1
 977 0 l 1,4,-1
 791 0 l 1,5,-1
 509 396 l 1,6,-1
 228 0 l 1,7,-1
 44 0 l 1,8,-1
 410 508 l 1,9,-1
 58 998 l 1,10,-1
 242 998 l 1,11,-1
 509 623 l 1,0,-1
EndSplineSet
EndUndoOperation
EndUndoes
Redoes
EndRedoes
EndUndoRedoHistory
Fore
SplineSet
509 623 m 1,0,-1
 776 998 l 1,1,-1
 968 998 l 1,2,-1
 607 506 l 1,3,-1
 977 0 l 1,4,-1
 791 0 l 1,5,-1
 509 396 l 1,6,-1
 228 0 l 1,7,-1
 44 0 l 1,8,-1
 410 508 l 1,9,-1
 58 998 l 1,10,-1
 242 998 l 1,11,-1
 509 623 l 1,0,-1
EndSplineSet
EndChar

StartChar: y
Encoding: 121 121 92
Width: 1045
GlyphClass: 2
Flags: W
LayerCount: 2
UndoRedoHistory
Layer: 1
Undoes
UndoOperation
Index: 0
Type: 1
WasModified: 0
WasOrder2: 1
Width: 1045
VWidth: 2048
LBearingChange: 0
UnicodeEnc: 0
InstructionsLength: 0
SplineSet
104 -412 m 1,0,-1
 98 -281 l 1,1,2
 105 -283 105 -283 164.5 -288.5 c 128,-1,3
 224 -294 224 -294 243 -294 c 0,4,5
 320 -294 320 -294 367 -259.5 c 128,-1,6
 414 -225 414 -225 446 -124 c 0,7,8
 452 -106 452 -106 461 -67 c 128,-1,9
 470 -28 470 -28 476 2 c 2,10,-1
 482 33 l 1,11,-1
 44 998 l 1,12,-1
 232 998 l 1,13,-1
 563 199 l 1,14,-1
 817 998 l 1,15,-1
 1005 998 l 1,16,17
 608 -127 608 -127 595 -161 c 0,18,19
 538 -311 538 -311 463.5 -370 c 128,-1,20
 389 -429 389 -429 264 -429 c 0,21,22
 241 -429 241 -429 180 -422.5 c 128,-1,23
 119 -416 119 -416 104 -412 c 1,0,-1
EndSplineSet
EndUndoOperation
UndoOperation
Index: 1
Type: 1
WasModified: 0
WasOrder2: 1
Width: 1045
VWidth: 2048
LBearingChange: 0
UnicodeEnc: 0
InstructionsLength: 0
SplineSet
104 -412 m 1,0,-1
 98 -281 l 1,1,2
 105 -283 105 -283 164.5 -288.5 c 128,-1,3
 224 -294 224 -294 243 -294 c 0,4,5
 320 -294 320 -294 367 -259.5 c 128,-1,6
 414 -225 414 -225 446 -124 c 0,7,8
 452 -106 452 -106 461 -67 c 128,-1,9
 470 -28 470 -28 476 2 c 2,10,-1
 482 33 l 1,11,-1
 44 998 l 1,12,-1
 232 998 l 1,13,-1
 563 199 l 1,14,-1
 817 998 l 1,15,-1
 1005 998 l 1,16,17
 608 -127 608 -127 595 -161 c 0,18,19
 538 -311 538 -311 463.5 -370 c 128,-1,20
 389 -429 389 -429 264 -429 c 0,21,22
 241 -429 241 -429 180 -422.5 c 128,-1,23
 119 -416 119 -416 104 -412 c 1,0,-1
EndSplineSet
EndUndoOperation
EndUndoes
Redoes
EndRedoes
EndUndoRedoHistory
Fore
SplineSet
104 -412 m 1,0,-1
 98 -281 l 1,1,2
 105 -283 105 -283 164.5 -288.5 c 128,-1,3
 224 -294 224 -294 243 -294 c 0,4,5
 320 -294 320 -294 367 -259.5 c 128,-1,6
 414 -225 414 -225 446 -124 c 0,7,8
 452 -106 452 -106 461 -67 c 128,-1,9
 470 -28 470 -28 476 2 c 2,10,-1
 482 33 l 1,11,-1
 44 998 l 1,12,-1
 232 998 l 1,13,-1
 563 199 l 1,14,-1
 817 998 l 1,15,-1
 1005 998 l 1,16,17
 608 -127 608 -127 595 -161 c 0,18,19
 538 -311 538 -311 463.5 -370 c 128,-1,20
 389 -429 389 -429 264 -429 c 0,21,22
 241 -429 241 -429 180 -422.5 c 128,-1,23
 119 -416 119 -416 104 -412 c 1,0,-1
EndSplineSet
EndChar

StartChar: z
Encoding: 122 122 93
Width: 883
GlyphClass: 2
Flags: W
LayerCount: 2
UndoRedoHistory
Layer: 1
Undoes
UndoOperation
Index: 0
Type: 1
WasModified: 0
WasOrder2: 1
Width: 883
VWidth: 2048
LBearingChange: 0
UnicodeEnc: 0
InstructionsLength: 0
SplineSet
116 998 m 1,0,-1
 783 998 l 1,1,-1
 783 873 l 1,2,-1
 274 120 l 1,3,-1
 800 120 l 1,4,-1
 800 0 l 1,5,-1
 95 0 l 1,6,-1
 95 117 l 1,7,-1
 613 878 l 1,8,-1
 116 878 l 1,9,-1
 116 998 l 1,0,-1
EndSplineSet
EndUndoOperation
UndoOperation
Index: 1
Type: 1
WasModified: 0
WasOrder2: 1
Width: 883
VWidth: 2048
LBearingChange: 0
UnicodeEnc: 0
InstructionsLength: 0
SplineSet
116 998 m 1,0,-1
 783 998 l 1,1,-1
 783 873 l 1,2,-1
 274 120 l 1,3,-1
 800 120 l 1,4,-1
 800 0 l 1,5,-1
 95 0 l 1,6,-1
 95 117 l 1,7,-1
 613 878 l 1,8,-1
 116 878 l 1,9,-1
 116 998 l 1,0,-1
EndSplineSet
EndUndoOperation
EndUndoes
Redoes
EndRedoes
EndUndoRedoHistory
Fore
SplineSet
116 998 m 1,0,-1
 783 998 l 1,1,-1
 783 873 l 1,2,-1
 274 120 l 1,3,-1
 800 120 l 1,4,-1
 800 0 l 1,5,-1
 95 0 l 1,6,-1
 95 117 l 1,7,-1
 613 878 l 1,8,-1
 116 878 l 1,9,-1
 116 998 l 1,0,-1
EndSplineSet
EndChar

StartChar: braceleft
Encoding: 123 123 94
Width: 717
GlyphClass: 2
Flags: W
LayerCount: 2
UndoRedoHistory
Layer: 1
Undoes
UndoOperation
Index: 0
Type: 1
WasModified: 0
WasOrder2: 1
Width: 717
VWidth: 2048
LBearingChange: 0
UnicodeEnc: 0
InstructionsLength: 0
SplineSet
619 -130 m 1,0,-1
 619 -256 l 1,1,2
 449 -255 449 -255 373.5 -179.5 c 128,-1,3
 298 -104 298 -104 298 56 c 2,4,-1
 298 245 l 2,5,6
 298 310 298 310 291 352.5 c 128,-1,7
 284 395 284 395 264.5 432.5 c 128,-1,8
 245 470 245 470 205.5 488 c 128,-1,9
 166 506 166 506 104 506 c 1,10,-1
 104 638 l 1,11,12
 161 639 161 639 198 651.5 c 128,-1,13
 235 664 235 664 255 680.5 c 128,-1,14
 275 697 275 697 285 736 c 128,-1,15
 295 775 295 775 296.5 805 c 128,-1,16
 298 835 298 835 298 898 c 2,17,-1
 298 1119 l 2,18,19
 298 1259 298 1259 380 1329.5 c 128,-1,20
 462 1400 462 1400 619 1400 c 1,21,-1
 619 1275 l 1,22,23
 520 1274 520 1274 484.5 1228 c 128,-1,24
 449 1182 449 1182 449 1067 c 2,25,-1
 449 826 l 2,26,27
 449 744 449 744 408.5 683 c 128,-1,28
 368 622 368 622 280 570 c 1,29,30
 367 542 367 542 408 474 c 128,-1,31
 449 406 449 406 449 318 c 2,32,-1
 449 76 l 2,33,34
 449 -41 449 -41 484.5 -85 c 128,-1,35
 520 -129 520 -129 619 -130 c 1,0,-1
EndSplineSet
EndUndoOperation
UndoOperation
Index: 1
Type: 1
WasModified: 0
WasOrder2: 1
Width: 717
VWidth: 2048
LBearingChange: 0
UnicodeEnc: 0
InstructionsLength: 0
SplineSet
619 -130 m 1,0,-1
 619 -256 l 1,1,2
 449 -255 449 -255 373.5 -179.5 c 128,-1,3
 298 -104 298 -104 298 56 c 2,4,-1
 298 245 l 2,5,6
 298 310 298 310 291 352.5 c 128,-1,7
 284 395 284 395 264.5 432.5 c 128,-1,8
 245 470 245 470 205.5 488 c 128,-1,9
 166 506 166 506 104 506 c 1,10,-1
 104 638 l 1,11,12
 161 639 161 639 198 651.5 c 128,-1,13
 235 664 235 664 255 680.5 c 128,-1,14
 275 697 275 697 285 736 c 128,-1,15
 295 775 295 775 296.5 805 c 128,-1,16
 298 835 298 835 298 898 c 2,17,-1
 298 1119 l 2,18,19
 298 1259 298 1259 380 1329.5 c 128,-1,20
 462 1400 462 1400 619 1400 c 1,21,-1
 619 1275 l 1,22,23
 520 1274 520 1274 484.5 1228 c 128,-1,24
 449 1182 449 1182 449 1067 c 2,25,-1
 449 826 l 2,26,27
 449 744 449 744 408.5 683 c 128,-1,28
 368 622 368 622 280 570 c 1,29,30
 367 542 367 542 408 474 c 128,-1,31
 449 406 449 406 449 318 c 2,32,-1
 449 76 l 2,33,34
 449 -41 449 -41 484.5 -85 c 128,-1,35
 520 -129 520 -129 619 -130 c 1,0,-1
EndSplineSet
EndUndoOperation
EndUndoes
Redoes
EndRedoes
EndUndoRedoHistory
Fore
SplineSet
619 -130 m 1,0,-1
 619 -256 l 1,1,2
 449 -255 449 -255 373.5 -179.5 c 128,-1,3
 298 -104 298 -104 298 56 c 2,4,-1
 298 245 l 2,5,6
 298 310 298 310 291 352.5 c 128,-1,7
 284 395 284 395 264.5 432.5 c 128,-1,8
 245 470 245 470 205.5 488 c 128,-1,9
 166 506 166 506 104 506 c 1,10,-1
 104 638 l 1,11,12
 161 639 161 639 198 651.5 c 128,-1,13
 235 664 235 664 255 680.5 c 128,-1,14
 275 697 275 697 285 736 c 128,-1,15
 295 775 295 775 296.5 805 c 128,-1,16
 298 835 298 835 298 898 c 2,17,-1
 298 1119 l 2,18,19
 298 1259 298 1259 380 1329.5 c 128,-1,20
 462 1400 462 1400 619 1400 c 1,21,-1
 619 1275 l 1,22,23
 520 1274 520 1274 484.5 1228 c 128,-1,24
 449 1182 449 1182 449 1067 c 2,25,-1
 449 826 l 2,26,27
 449 744 449 744 408.5 683 c 128,-1,28
 368 622 368 622 280 570 c 1,29,30
 367 542 367 542 408 474 c 128,-1,31
 449 406 449 406 449 318 c 2,32,-1
 449 76 l 2,33,34
 449 -41 449 -41 484.5 -85 c 128,-1,35
 520 -129 520 -129 619 -130 c 1,0,-1
EndSplineSet
EndChar

StartChar: bar
Encoding: 124 124 95
Width: 488
GlyphClass: 2
Flags: W
LayerCount: 2
UndoRedoHistory
Layer: 1
Undoes
UndoOperation
Index: 0
Type: 1
WasModified: 0
WasOrder2: 1
Width: 488
VWidth: 2048
LBearingChange: 0
UnicodeEnc: 0
InstructionsLength: 0
SplineSet
178 -276 m 1,0,-1
 178 1525 l 1,1,-1
 310 1525 l 1,2,-1
 310 -276 l 1,3,-1
 178 -276 l 1,0,-1
EndSplineSet
EndUndoOperation
UndoOperation
Index: 1
Type: 1
WasModified: 0
WasOrder2: 1
Width: 488
VWidth: 2048
LBearingChange: 0
UnicodeEnc: 0
InstructionsLength: 0
SplineSet
178 -276 m 1,0,-1
 178 1525 l 1,1,-1
 310 1525 l 1,2,-1
 310 -276 l 1,3,-1
 178 -276 l 1,0,-1
EndSplineSet
EndUndoOperation
EndUndoes
Redoes
EndRedoes
EndUndoRedoHistory
Fore
SplineSet
178 -276 m 1,0,-1
 178 1525 l 1,1,-1
 310 1525 l 1,2,-1
 310 -276 l 1,3,-1
 178 -276 l 1,0,-1
EndSplineSet
EndChar

StartChar: braceright
Encoding: 125 125 96
Width: 726
GlyphClass: 2
Flags: W
LayerCount: 2
UndoRedoHistory
Layer: 1
Undoes
UndoOperation
Index: 0
Type: 1
WasModified: 0
WasOrder2: 1
Width: 726
VWidth: 2048
LBearingChange: 0
UnicodeEnc: 0
InstructionsLength: 0
SplineSet
101 -256 m 1,0,-1
 101 -130 l 1,1,2
 199 -129 199 -129 235 -84.5 c 128,-1,3
 271 -40 271 -40 271 76 c 2,4,-1
 271 318 l 2,5,6
 271 403 271 403 306.5 456.5 c 128,-1,7
 342 510 342 510 439 575 c 1,8,9
 353 602 353 602 312 670 c 128,-1,10
 271 738 271 738 271 826 c 2,11,-1
 271 1067 l 2,12,13
 271 1182 271 1182 235.5 1228 c 128,-1,14
 200 1274 200 1274 101 1275 c 1,15,-1
 101 1400 l 1,16,17
 269 1400 269 1400 345 1323.5 c 128,-1,18
 421 1247 421 1247 421 1087 c 2,19,-1
 421 898 l 2,20,21
 421 832 421 832 427 790.5 c 128,-1,22
 433 749 433 749 452.5 711.5 c 128,-1,23
 472 674 472 674 512.5 656.5 c 128,-1,24
 553 639 553 639 617 638 c 1,25,-1
 617 506 l 1,26,27
 555 506 555 506 515 488 c 128,-1,28
 475 470 475 470 455 433 c 128,-1,29
 435 396 435 396 428 353 c 128,-1,30
 421 310 421 310 421 245 c 2,31,-1
 421 25 l 2,32,33
 421 -254 421 -254 101 -256 c 1,0,-1
EndSplineSet
EndUndoOperation
UndoOperation
Index: 1
Type: 1
WasModified: 0
WasOrder2: 1
Width: 726
VWidth: 2048
LBearingChange: 0
UnicodeEnc: 0
InstructionsLength: 0
SplineSet
101 -256 m 1,0,-1
 101 -130 l 1,1,2
 199 -129 199 -129 235 -84.5 c 128,-1,3
 271 -40 271 -40 271 76 c 2,4,-1
 271 318 l 2,5,6
 271 403 271 403 306.5 456.5 c 128,-1,7
 342 510 342 510 439 575 c 1,8,9
 353 602 353 602 312 670 c 128,-1,10
 271 738 271 738 271 826 c 2,11,-1
 271 1067 l 2,12,13
 271 1182 271 1182 235.5 1228 c 128,-1,14
 200 1274 200 1274 101 1275 c 1,15,-1
 101 1400 l 1,16,17
 269 1400 269 1400 345 1323.5 c 128,-1,18
 421 1247 421 1247 421 1087 c 2,19,-1
 421 898 l 2,20,21
 421 832 421 832 427 790.5 c 128,-1,22
 433 749 433 749 452.5 711.5 c 128,-1,23
 472 674 472 674 512.5 656.5 c 128,-1,24
 553 639 553 639 617 638 c 1,25,-1
 617 506 l 1,26,27
 555 506 555 506 515 488 c 128,-1,28
 475 470 475 470 455 433 c 128,-1,29
 435 396 435 396 428 353 c 128,-1,30
 421 310 421 310 421 245 c 2,31,-1
 421 25 l 2,32,33
 421 -254 421 -254 101 -256 c 1,0,-1
EndSplineSet
EndUndoOperation
EndUndoes
Redoes
EndRedoes
EndUndoRedoHistory
Fore
SplineSet
101 -256 m 1,0,-1
 101 -130 l 1,1,2
 199 -129 199 -129 235 -84.5 c 128,-1,3
 271 -40 271 -40 271 76 c 2,4,-1
 271 318 l 2,5,6
 271 403 271 403 306.5 456.5 c 128,-1,7
 342 510 342 510 439 575 c 1,8,9
 353 602 353 602 312 670 c 128,-1,10
 271 738 271 738 271 826 c 2,11,-1
 271 1067 l 2,12,13
 271 1182 271 1182 235.5 1228 c 128,-1,14
 200 1274 200 1274 101 1275 c 1,15,-1
 101 1400 l 1,16,17
 269 1400 269 1400 345 1323.5 c 128,-1,18
 421 1247 421 1247 421 1087 c 2,19,-1
 421 898 l 2,20,21
 421 832 421 832 427 790.5 c 128,-1,22
 433 749 433 749 452.5 711.5 c 128,-1,23
 472 674 472 674 512.5 656.5 c 128,-1,24
 553 639 553 639 617 638 c 1,25,-1
 617 506 l 1,26,27
 555 506 555 506 515 488 c 128,-1,28
 475 470 475 470 455 433 c 128,-1,29
 435 396 435 396 428 353 c 128,-1,30
 421 310 421 310 421 245 c 2,31,-1
 421 25 l 2,32,33
 421 -254 421 -254 101 -256 c 1,0,-1
EndSplineSet
EndChar

StartChar: asciitilde
Encoding: 126 126 97
Width: 1132
GlyphClass: 2
Flags: W
LayerCount: 2
UndoRedoHistory
Layer: 1
Undoes
UndoOperation
Index: 0
Type: 1
WasModified: 0
WasOrder2: 1
Width: 1132
VWidth: 2048
LBearingChange: 0
UnicodeEnc: 0
InstructionsLength: 0
SplineSet
147 458 m 1,0,-1
 100 553 l 1,1,2
 135 634 135 634 197.5 683.5 c 128,-1,3
 260 733 260 733 347 733 c 0,4,5
 400 733 400 733 448.5 719 c 128,-1,6
 497 705 497 705 571 672 c 0,7,8
 577 669 577 669 598.5 659.5 c 128,-1,9
 620 650 620 650 627 647 c 128,-1,10
 634 644 634 644 652.5 636.5 c 128,-1,11
 671 629 671 629 678.5 626 c 128,-1,12
 686 623 686 623 701 617.5 c 128,-1,13
 716 612 716 612 725 610 c 128,-1,14
 734 608 734 608 745.5 605 c 128,-1,15
 757 602 757 602 766.5 601 c 128,-1,16
 776 600 776 600 785 600 c 0,17,18
 839 600 839 600 890 640 c 128,-1,19
 941 680 941 680 975 742 c 1,20,-1
 1026 654 l 1,21,22
 990 567 990 567 928.5 518.5 c 128,-1,23
 867 470 867 470 781 470 c 0,24,25
 703 470 703 470 567 531 c 0,26,27
 510 557 510 557 480 569.5 c 128,-1,28
 450 582 450 582 412 592.5 c 128,-1,29
 374 603 374 603 343 603 c 0,30,31
 284 603 284 603 232.5 562 c 128,-1,32
 181 521 181 521 147 458 c 1,0,-1
EndSplineSet
EndUndoOperation
UndoOperation
Index: 1
Type: 1
WasModified: 0
WasOrder2: 1
Width: 1132
VWidth: 2048
LBearingChange: 0
UnicodeEnc: 0
InstructionsLength: 0
SplineSet
147 458 m 1,0,-1
 100 553 l 1,1,2
 135 634 135 634 197.5 683.5 c 128,-1,3
 260 733 260 733 347 733 c 0,4,5
 400 733 400 733 448.5 719 c 128,-1,6
 497 705 497 705 571 672 c 0,7,8
 577 669 577 669 598.5 659.5 c 128,-1,9
 620 650 620 650 627 647 c 128,-1,10
 634 644 634 644 652.5 636.5 c 128,-1,11
 671 629 671 629 678.5 626 c 128,-1,12
 686 623 686 623 701 617.5 c 128,-1,13
 716 612 716 612 725 610 c 128,-1,14
 734 608 734 608 745.5 605 c 128,-1,15
 757 602 757 602 766.5 601 c 128,-1,16
 776 600 776 600 785 600 c 0,17,18
 839 600 839 600 890 640 c 128,-1,19
 941 680 941 680 975 742 c 1,20,-1
 1026 654 l 1,21,22
 990 567 990 567 928.5 518.5 c 128,-1,23
 867 470 867 470 781 470 c 0,24,25
 703 470 703 470 567 531 c 0,26,27
 510 557 510 557 480 569.5 c 128,-1,28
 450 582 450 582 412 592.5 c 128,-1,29
 374 603 374 603 343 603 c 0,30,31
 284 603 284 603 232.5 562 c 128,-1,32
 181 521 181 521 147 458 c 1,0,-1
EndSplineSet
EndUndoOperation
EndUndoes
Redoes
EndRedoes
EndUndoRedoHistory
Fore
SplineSet
147 458 m 1,0,-1
 100 553 l 1,1,2
 135 634 135 634 197.5 683.5 c 128,-1,3
 260 733 260 733 347 733 c 0,4,5
 400 733 400 733 448.5 719 c 128,-1,6
 497 705 497 705 571 672 c 0,7,8
 577 669 577 669 598.5 659.5 c 128,-1,9
 620 650 620 650 627 647 c 128,-1,10
 634 644 634 644 652.5 636.5 c 128,-1,11
 671 629 671 629 678.5 626 c 128,-1,12
 686 623 686 623 701 617.5 c 128,-1,13
 716 612 716 612 725 610 c 128,-1,14
 734 608 734 608 745.5 605 c 128,-1,15
 757 602 757 602 766.5 601 c 128,-1,16
 776 600 776 600 785 600 c 0,17,18
 839 600 839 600 890 640 c 128,-1,19
 941 680 941 680 975 742 c 1,20,-1
 1026 654 l 1,21,22
 990 567 990 567 928.5 518.5 c 128,-1,23
 867 470 867 470 781 470 c 0,24,25
 703 470 703 470 567 531 c 0,26,27
 510 557 510 557 480 569.5 c 128,-1,28
 450 582 450 582 412 592.5 c 128,-1,29
 374 603 374 603 343 603 c 0,30,31
 284 603 284 603 232.5 562 c 128,-1,32
 181 521 181 521 147 458 c 1,0,-1
EndSplineSet
EndChar

